<?xml version="1.0" encoding="utf-8"?>
<!-- Generator: Adobe Illustrator 21.0.0, SVG Export Plug-In . SVG Version: 6.00 Build 0)  -->
<svg version="1.1" id="Camada_1" xmlns="http://www.w3.org/2000/svg" xmlns:xlink="http://www.w3.org/1999/xlink" x="0px" y="0px"
	 viewBox="0 0 2000 1793.9" style="enable-background:new 0 0 2000 1793.9;" xml:space="preserve">
<style type="text/css">
	.st0{fill:#9A161C;}
	.st1{fill:#F3E832;}
	.st2{fill:#2B9656;}
</style>
<g>
	<path class="st0" d="M30.3,740.2c11.5,14.7,109.2,60.9,134.3,69.2c26.2,8.5,50.8,17.5,79.3,23.2c119.3,24.1,243,24.1,345.3-41.2
		l41.2-31.7c6.4-5.7,10.6-8.3,13.1-15.2c-36.6,7.8-134.7,79.1-290.8,63.9c-74.5-7.4-133.3-37-190.1-77.2l-24.4-19.3
		c-9.2-8-18.2-14.5-23.7-22.8c20-36.8,61.2-93.3,84.8-132c28-45.8,53.3-86.7,79.8-136.6c42.1-78.4,109-225.8,115.9-317.3l87.4,33.6
		c84.8,27.6,183.2,31.3,269,4.6c11-3.4,39.5-15.4,45.3-14.7c20.7,34.5,65.3,281.2,75.6,336.8c51.5,270.4,105.3,842.1,109.9,1136.2
		c-105.5-1.6-210.4-3.4-315.4-9c-23.7-1.1-79.8-6.7-99.3-5.7l-0.5,79.3c21.6,0.5,75.4-8.3,104.8-9.9c32.4-1.8,72.4-4.8,106.4-8.3
		c100-9.9,345.5-11.7,444.9-0.5l210.4,18.6V1585l-219.3,11.5c-72.9,1.8-155.9,6.4-228.5,2.8c6.7-130.8,16.1-262.5,26-392
		c5.1-64.8,12.6-127.4,17.9-192.2c5.3-63.7,16.6-127.8,21.8-189.9l25.5-184.1c23.9-146.2,46.4-293.8,86.2-435.7
		c7.8-27.6,18.4-58.9,23.4-84.4c16.1,0.7,32.6,11.3,49,16.3c206.2,64.1,334.3-28.3,369.9-34.3c7.4,92.9,73.8,237.5,115.9,317.3
		c37,69.9,80.2,138.9,121.4,202.1c12.6,19.5,31.5,45.1,43.5,66.7c-16.6,25.3-78.2,62.8-101.8,76.1
		c-196.8,111.5-389.9-13.1-427.6-20.7c10.8,25.7,98.6,72.2,125.1,81.2c65.5,22.1,132,25.7,206.9,19.1l44.1-7.6
		c34.3-4.6,106.9-26.7,136.8-42.1c26-13.6,87.1-36.8,100.5-54.9l-10.6-10.6c-2.5-2.8-1.4-1.6-3.2-4.1l-40.5-54.3
		c-54-74-102.1-144.8-145.8-226.5c-55.6-103.9-118.9-254-77.5-392.9c-15.4,1.4-41.6,22.5-60.9,28c-74.9,21.8-153.8,38.4-235,41.2
		c-94.7,3.2-186.4-12.2-271.7-48c-9.7-4.1-23.9-12-33.1-14c10.8,16.1,42.8,26.2,53.8,39.1c-12.6,36.3-26,69.9-39.3,108.3
		c-13.3,38.2-24.8,78.2-34,117.2c-52.2,219.3-55.6,303.2-75.2,523.7c-8.3,89.7-12,194.5-12.9,286.7c-7.6-75.2-5.3-188.7-12.2-275.2
		c-3.4-46.7-4.8-90.6-9.4-137c-14.3-140.2-26.4-245.8-51-386.9c-6.9-39.5-14.7-82.3-24.4-121.8c-4.6-18.6-26.7-106.7-26-119.8
		c15.9-12.6,39.3-22.5,51.5-36.6c-23,7.8-42.5,18.6-65.3,27.1c-124.6,47.4-273.8,46.7-403.9,16.1c-25.5-6.2-47.6-12.6-72.9-19.5
		c-17.9-4.8-31.3-14.3-47.8-22.8c-1.8-1.1-5.5-2.8-8-4.1l-6.4-2.8c1.8,24.1,15.6,31,13.6,108.3c-0.9,36.1-8.7,76.3-17.7,107.1
		C257.9,427,161.4,575.8,58.4,705.7C49,717.4,38.6,729.6,30.3,740.2z"/>
	<path class="st0" d="M209.2,1666.2l-0.5,79.5c63.5,0.7,129.9-7.8,192.9-10.3c333.6-13.3,662.6-22.3,997.5-8.3
		c67.8,2.8,130.1,5.5,196.8,8c34.7,1.1,178.6,11.7,194.7,9.9l1.1-78.9l-388.1,11c-267.8,4.8-532.4,3-800.1,0
		c-66.7-0.9-132.7-3.7-197-4.8C342.5,1671,271,1665.3,209.2,1666.2z"/>
	<path class="st1" d="M1332.7,738.3c26.4-12,87.4-82.8,109.2-111c76.6-99.3,150.4-255.9,159.8-386c2.1-26.2,4.1-83.2-5.7-102.3
		c-18.9,175-125.8,385.3-220.2,532L1332.7,738.3z"/>
	<path class="st2" d="M667.6,738.3l-42.1-66.2c-40.7-64.1-84.8-143-115.9-207.6c-23.2-48-47.4-100.2-64.8-151.7
		c-9.4-28.3-16.8-52.2-25.1-82.3c-5.1-17.9-14.3-85.8-17.2-91.5c-11.3,138.4,12.6,232.9,73.1,354.7c12,23.9,23.9,45.3,38.4,68.5
		c41.6,65.5,82.1,117.2,141.2,167.8L667.6,738.3z"/>
</g>
</svg>
