<?xml version="1.0" encoding="utf-8"?>
<!-- Generator: Adobe Illustrator 21.0.0, SVG Export Plug-In . SVG Version: 6.00 Build 0)  -->
<svg version="1.1" id="Camada_1" xmlns="http://www.w3.org/2000/svg" xmlns:xlink="http://www.w3.org/1999/xlink" x="0px" y="0px"
	 viewBox="0 0 5394.2 1793.9" style="enable-background:new 0 0 5394.2 1793.9;" xml:space="preserve">
<style type="text/css">
	.st0{fill:#FFFFFF;}
</style>
<g>
	<g>
		<path class="st0" d="M30.3,740.2c11.5,14.7,109.2,60.9,134.3,69.2c26.2,8.5,50.8,17.5,79.3,23.2c119.3,24.1,243,24.1,345.3-41.2
			l41.2-31.7c6.4-5.7,10.6-8.3,13.1-15.2c-36.6,7.8-134.7,79.1-290.8,63.9c-74.5-7.4-133.3-37-190.1-77.2l-24.4-19.3
			c-9.2-8-18.2-14.5-23.7-22.8c20-36.8,61.2-93.3,84.8-132c28-45.8,53.3-86.7,79.8-136.6c42.1-78.4,109-225.8,115.9-317.3l87.4,33.6
			c84.8,27.6,183.2,31.3,269,4.6c11-3.4,39.5-15.4,45.3-14.7c20.7,34.5,65.3,281.2,75.6,336.8c51.5,270.4,105.3,842.1,109.9,1136.2
			c-105.5-1.6-210.4-3.4-315.4-9c-23.7-1.1-79.8-6.7-99.3-5.7l-0.5,79.3c21.6,0.5,75.4-8.3,104.8-9.9c32.4-1.8,72.4-4.8,106.4-8.3
			c100-9.9,345.5-11.7,444.9-0.5l210.4,18.6V1585l-219.3,11.5c-72.9,1.8-155.9,6.4-228.5,2.8c6.7-130.8,16.1-262.5,26-392
			c5.1-64.8,12.6-127.4,17.9-192.2c5.3-63.7,16.6-127.8,21.8-189.9l25.5-184.1c23.9-146.2,46.4-293.8,86.2-435.7
			c7.8-27.6,18.4-58.9,23.4-84.4c16.1,0.7,32.6,11.3,49,16.3c206.2,64.1,334.3-28.3,369.9-34.3c7.4,92.9,73.8,237.5,115.9,317.3
			c37,69.9,80.2,138.9,121.4,202.1c12.6,19.5,31.5,45.1,43.5,66.7c-16.6,25.3-78.2,62.8-101.8,76.1
			c-196.8,111.5-389.9-13.1-427.6-20.7c10.8,25.7,98.6,72.2,125.1,81.2c65.5,22.1,132,25.7,206.9,19.1l44.1-7.6
			c34.3-4.6,106.9-26.7,136.8-42.1c26-13.6,87.1-36.8,100.5-54.9l-10.6-10.6c-2.5-2.8-1.4-1.6-3.2-4.1l-40.5-54.3
			c-54-74-102.1-144.8-145.8-226.5c-55.6-103.9-118.9-254-77.5-392.9c-15.4,1.4-41.6,22.5-60.9,28c-74.9,21.8-153.8,38.4-235,41.2
			c-94.7,3.2-186.4-12.2-271.7-48c-9.7-4.1-23.9-12-33.1-14c10.8,16.1,42.8,26.2,53.8,39.1c-12.6,36.3-26,69.9-39.3,108.3
			c-13.3,38.2-24.8,78.2-34,117.2c-52.2,219.3-55.6,303.2-75.2,523.7c-8.3,89.7-12,194.5-12.9,286.7c-7.6-75.2-5.3-188.7-12.2-275.2
			c-3.4-46.7-4.8-90.6-9.4-137c-14.3-140.2-26.4-245.8-51-386.9c-6.9-39.5-14.7-82.3-24.4-121.8c-4.6-18.6-26.7-106.7-26-119.8
			c15.9-12.6,39.3-22.5,51.5-36.6c-23,7.8-42.5,18.6-65.3,27.1c-124.6,47.4-273.8,46.7-403.9,16.1c-25.5-6.2-47.6-12.6-72.9-19.5
			c-17.9-4.8-31.3-14.3-47.8-22.8c-1.8-1.1-5.5-2.8-8-4.1l-6.4-2.8c1.8,24.1,15.6,31,13.6,108.3c-0.9,36.1-8.7,76.3-17.7,107.1
			C257.9,427,161.4,575.8,58.4,705.7C49,717.4,38.6,729.6,30.3,740.2z"/>
	</g>
	<g>
		<path class="st0" d="M209.2,1666.2l-0.5,79.5c63.5,0.7,129.9-7.8,192.9-10.3c333.6-13.3,662.6-22.3,997.5-8.3
			c67.8,2.8,130.1,5.5,196.8,8c34.7,1.1,178.6,11.7,194.7,9.9l1.1-78.9l-388.1,11c-267.8,4.8-532.4,3-800.1,0
			c-66.7-0.9-132.7-3.7-197-4.8C342.5,1671,271,1665.3,209.2,1666.2z"/>
	</g>
	<g>
		<path class="st0" d="M1332.7,738.3c26.4-12,87.4-82.8,109.2-111c76.6-99.3,150.4-255.9,159.8-386c2.1-26.2,4.1-83.2-5.7-102.3
			c-18.9,175-125.8,385.3-220.2,532L1332.7,738.3z"/>
	</g>
	<g>
		<path class="st0" d="M667.6,738.3l-42.1-66.2c-40.7-64.1-84.8-143-115.9-207.6c-23.2-48-47.4-100.2-64.8-151.7
			c-9.4-28.3-16.8-52.2-25.1-82.3c-5.1-17.9-14.3-85.8-17.2-91.5c-11.3,138.4,12.6,232.9,73.1,354.7c12,23.9,23.9,45.3,38.4,68.5
			c41.6,65.5,82.1,117.2,141.2,167.8L667.6,738.3z"/>
	</g>
</g>
<g>
	<path class="st0" d="M2205.3,592.3h-49V232.9h49V592.3z"/>
	<path class="st0" d="M2613.3,314.6c-11.3-10.5-24.1-18.9-38.5-25c-16.6-6.9-33.8-10.3-51.9-10.3s-35.3,3.4-51.9,10.3
		c-16,6.9-30.1,16.5-42.4,28.8s-21.8,26.4-28.6,42.2c-6.9,16.7-10.3,34-10.3,51.9c0,18.2,3.4,35.5,10.3,52.1
		c6.7,16,16.3,30,28.6,42.2c12.3,12.5,26.4,22,42.4,28.8c16.6,6.9,33.8,10.3,51.9,10.3s35.3-3.4,51.9-10.3
		c14.2-6.2,27-14.4,38.5-24.8l33,33c-15.8,14.6-33.6,26.2-53.4,34.7c-22.3,9.4-45.6,14.1-69.9,14.1c-24.3,0-47.7-4.7-70.1-14.1
		c-21.4-9.1-40.4-21.9-57.1-38.5c-16.6-16.7-29.4-35.8-38.5-57.3c-9.4-22.3-14.1-45.6-14.1-70.1c0-24.3,4.7-47.6,14.1-69.9
		c9.1-21.5,21.9-40.6,38.5-57.1c16.7-16.6,35.7-29.4,57.1-38.5c22.4-9.4,45.8-14.1,70.1-14.1c24.3,0,47.6,4.7,69.9,14.1
		c19.9,8.3,37.7,19.9,53.4,34.7L2613.3,314.6z"/>
	<path class="st0" d="M2702.3,539.6c-35.2-35.2-52.7-77.6-52.7-127.2c0-49.4,17.6-91.7,52.7-127c35.2-35,77.6-52.5,127.2-52.5
		c49.4,0,91.7,17.5,127,52.5c35,35.3,52.5,77.6,52.5,127c0,49.7-17.5,92.1-52.5,127.2c-35.3,35.2-77.6,52.7-127,52.7
		C2779.9,592.3,2737.5,574.7,2702.3,539.6z M2735.7,318.8c-25.8,25.9-38.7,57.1-38.7,93.6c0,36.6,12.9,67.9,38.7,93.8
		c25.9,25.8,57.2,38.7,93.8,38.7c36.5,0,67.7-12.9,93.6-38.7c25.9-25.9,38.9-57.2,38.9-93.8c0-36.5-13-67.7-38.9-93.6
		s-57.1-38.9-93.6-38.9C2792.9,279.9,2761.7,292.8,2735.7,318.8z"/>
	<path class="st0" d="M3296.7,592.3L3084,357.2v235.1h-48.6V232.9l212.9,231.4V232.9h48.3V592.3z"/>
	<path class="st0" d="M3603.4,561.8c-9.7,6.4-19.9,11.9-30.5,16.5c-10.8,4.7-22,8.2-33.6,10.5c-12,2.3-24.1,3.5-36.3,3.5
		c-12.2,0-24.3-1.2-36.5-3.5c-11.6-2.3-22.8-5.9-33.6-10.5c-10.8-4.5-21.1-10-30.8-16.5c-9.5-6.6-18.3-13.9-26.4-22
		c-8.2-8.2-15.5-17.1-22-26.6c-6.6-9.7-12.2-19.8-16.7-30.5c-4.5-11-8.1-22.3-10.5-33.8c-2.3-11.9-3.5-24-3.5-36.3
		c0-12.2,1.2-24.2,3.5-36.3c2.5-11.6,6-22.8,10.5-33.6c4.5-10.7,10.1-20.9,16.7-30.5c6.4-9.5,13.8-18.5,22-26.8
		c8.1-8.1,16.8-15.4,26.4-22c9.7-6.4,19.9-11.9,30.8-16.3c10.8-4.7,22-8.2,33.6-10.5c12-2.5,24.2-3.7,36.5-3.7
		c12.2,0,24.2,1.2,36.3,3.7c11.6,2.3,22.8,5.9,33.6,10.5c10.8,4.4,21,9.8,30.5,16.3c9.1,6.3,17.5,13.3,25.3,20.9L3596,317
		c-5.7-5.6-11.9-10.5-18.5-14.9c-7.2-4.8-14.8-8.9-22.9-12.3c-8.1-3.5-16.3-6.1-24.8-7.7c-8.9-1.9-17.9-2.9-26.8-2.9
		c-8.9,0-17.9,1-27,2.9c-8.6,1.6-16.9,4.2-24.8,7.7c-8.1,3.4-15.7,7.5-22.9,12.3c-7.2,4.8-13.8,10.3-19.8,16.3
		c-6.2,6.2-11.6,12.7-16.3,19.8c-4.8,7.2-8.9,14.7-12.1,22.6c-3.5,8.1-6.2,16.4-7.9,25c-1.8,8.8-2.6,17.7-2.6,26.8
		c0,9.1,0.9,18.1,2.6,27c1.8,8.5,4.4,16.8,7.9,24.8c3.2,7.9,7.3,15.5,12.1,22.6c4.7,7.2,10.1,13.8,16.3,19.8
		c6,6.2,12.6,11.6,19.8,16.3c7.2,5,14.8,9.1,22.9,12.3c7.9,3.5,16.2,6.1,24.8,7.7c9.1,1.9,18.1,2.9,27,2.9c8.9,0,17.9-1,26.8-2.9
		c8.5-1.6,16.8-4.2,24.8-7.7c8.1-3.2,15.7-7.3,22.9-12.3c7.2-4.7,13.7-10.1,19.6-16.3c6.2-6,11.6-12.6,16.5-19.8
		c4.8-7.2,8.9-14.7,12.1-22.6c3.5-8.1,6.2-16.3,7.9-24.8l0.9-3.7h-94v-46.6h142.4v23.3c0,12.3-1.2,24.4-3.7,36.3
		c-2.3,11.6-5.8,22.9-10.3,33.8c-4.5,10.7-10.1,20.9-16.7,30.5c-6.4,9.5-13.8,18.4-22,26.6C3622,547.9,3613.1,555.2,3603.4,561.8z"
		/>
	<path class="st0" d="M3880.3,592.3l-63.7-80.2h-53.2v80.2h-50.8V232.9h89c38.5,0,71.4,13.6,98.7,40.9s40.9,60.1,40.9,98.7
		c0,38.7-13.6,71.6-40.9,98.9c-9.5,9.4-20.1,17.4-31.6,24l76.2,97.1H3880.3z M3801.6,461.4c24.5,0,45.4-8.7,62.8-26.1
		c17.4-17.3,26.1-38.2,26.1-62.8s-8.7-45.6-26.1-62.8c-17.4-17.4-38.4-26.1-62.8-26.1h-38.2v178H3801.6z"/>
	<path class="st0" d="M4018.3,281.8v167h122.4v49.2h-122.4v45h158.6v49.2h-207.9V232.9h207.9v49H4018.3z"/>
	<path class="st0" d="M4241.1,566.4c-22.7-19.2-34.1-44.8-34.1-76.9h48.6c0,18.3,7,32.4,21.1,42.4c11.4,7.9,24.2,11.9,38.5,11.9
		c17.7,0,32.7-4.5,44.9-13.4c12.2-8.9,18.3-21.8,18.3-38.7c0-11.1-3.7-19.8-11.2-26.1c-10.3-10.7-28.6-17.5-54.9-20.4
		c-36.9-4.4-65.1-17.3-84.6-38.7c-16.3-17.7-24.4-38.3-24.4-61.7c0-27.4,8.2-51.7,24.6-72.9c20.4-25.9,48.8-38.9,85.3-38.9
		c33.5,0,61.2,10.8,82.8,32.5c21.8,21.7,32.7,50.8,32.7,87.2h-48.3c0-20.8-5-37.3-14.9-49.4c-12-14.6-29.4-22-52.3-22
		c-25.3,0-43.1,10.5-53.4,31.4c-5.3,10.8-7.9,21.5-7.9,32.1c0,9.2,3.1,17.9,9.4,26.1c11,14.4,29.9,23,56.7,25.9
		c40.7,4.7,70.1,17.9,88.1,39.8c13.9,16.6,20.9,37.4,20.9,62.6c0,25.6-10.5,47.6-31.6,65.8s-47.8,27.4-80.2,27.4
		C4286.7,592.3,4262,583.7,4241.1,566.4z"/>
	<path class="st0" d="M4492.9,566.4c-22.7-19.2-34.1-44.8-34.1-76.9h48.6c0,18.3,7,32.4,21.1,42.4c11.4,7.9,24.2,11.9,38.5,11.9
		c17.7,0,32.7-4.5,44.9-13.4c12.2-8.9,18.3-21.8,18.3-38.7c0-11.1-3.7-19.8-11.2-26.1c-10.3-10.7-28.6-17.5-54.9-20.4
		c-36.9-4.4-65.1-17.3-84.6-38.7c-16.3-17.7-24.4-38.3-24.4-61.7c0-27.4,8.2-51.7,24.6-72.9c20.4-25.9,48.8-38.9,85.3-38.9
		c33.5,0,61.2,10.8,82.8,32.5c21.8,21.7,32.7,50.8,32.7,87.2h-48.3c0-20.8-5-37.3-14.9-49.4c-12-14.6-29.4-22-52.3-22
		c-25.3,0-43.1,10.5-53.4,31.4c-5.3,10.8-7.9,21.5-7.9,32.1c0,9.2,3.1,17.9,9.4,26.1c11,14.4,29.9,23,56.7,25.9
		c40.7,4.7,70.1,17.9,88.1,39.8c13.9,16.6,20.9,37.4,20.9,62.6c0,25.6-10.5,47.6-31.6,65.8s-47.8,27.4-80.2,27.4
		C4538.5,592.3,4513.8,583.7,4492.9,566.4z"/>
	<path class="st0" d="M4759.6,539.6c-35.2-35.2-52.7-77.6-52.7-127.2c0-49.4,17.6-91.7,52.7-127c35.2-35,77.6-52.5,127.2-52.5
		c49.4,0,91.7,17.5,127,52.5c35,35.3,52.5,77.6,52.5,127c0,49.7-17.5,92.1-52.5,127.2c-35.3,35.2-77.6,52.7-127,52.7
		C4837.2,592.3,4794.8,574.7,4759.6,539.6z M4793,318.8c-25.8,25.9-38.7,57.1-38.7,93.6c0,36.6,12.9,67.9,38.7,93.8
		c25.9,25.8,57.2,38.7,93.8,38.7c36.5,0,67.7-12.9,93.6-38.7c25.9-25.9,38.9-57.2,38.9-93.8c0-36.5-13-67.7-38.9-93.6
		s-57.1-38.9-93.6-38.9C4850.2,279.9,4819,292.8,4793,318.8z"/>
	<path class="st0" d="M2156.3,1083.1c35.3,0,65.6-12.4,90.7-37.4c24.9-25,37.4-55.3,37.4-90.7V772.9h49V955
		c0,49.1-17.3,90.8-51.9,125.2c-34.6,34.7-76.3,52.1-125.2,52.1V1083.1z"/>
	<path class="st0" d="M2399.3,1092.8c-26.4-26.5-39.6-58.4-39.6-95.6V772.9h49.2v224.3c0,23.7,8.3,43.9,25,60.6
		c16.8,16.8,37.1,25.3,60.9,25.3s44-8.4,60.9-25.3c16.7-16.7,25-36.9,25-60.6V772.9h49.2v224.3c0,37.2-13.2,69.1-39.6,95.6
		c-26.4,26.4-58.2,39.6-95.6,39.6S2425.7,1119.1,2399.3,1092.8z"/>
	<path class="st0" d="M2827.6,1132.3l-63.7-80.2h-53.2v80.2h-50.8V772.9h89c38.5,0,71.4,13.6,98.7,40.9s40.9,60.1,40.9,98.7
		c0,38.7-13.6,71.6-40.9,98.9c-9.5,9.4-20.1,17.4-31.6,24l76.2,97.1H2827.6z M2748.9,1001.4c24.5,0,45.4-8.7,62.8-26.1
		c17.4-17.3,26.1-38.2,26.1-62.8c0-24.6-8.7-45.6-26.1-62.8c-17.4-17.4-38.4-26.1-62.8-26.1h-38.2v178H2748.9z"/>
	<path class="st0" d="M2981.8,722.3l-76.7,42.4l-20.2-43.5l76.7-42.4L2981.8,722.3z M2965.4,1132.3h-49V772.9h49V1132.3z"/>
	<path class="st0" d="M2991.7,1132.3V772.9h81.7c24.5,0,47.8,4.7,69.9,14.1c21.5,9.1,40.6,22,57.3,38.7
		c16.4,16.4,29.1,35.5,38.2,57.1c9.5,22.1,14.3,45.3,14.3,69.7c0,24.6-4.8,48-14.3,70.1c-9.1,21.5-21.8,40.6-38.2,57.1
		c-16.7,16.6-35.8,29.4-57.3,38.5c-22.1,9.5-45.4,14.3-69.9,14.3H2991.7z M3041.4,1082.4h32.1c17.6,0,34.4-3.4,50.5-10.1
		c15.5-6.6,29.3-15.9,41.3-27.9c12-12,21.4-25.8,28.1-41.3c6.7-16.1,10.1-33,10.1-50.8c0-17.6-3.4-34.4-10.1-50.5
		c-6.7-15.5-16.1-29.2-28.1-41.1c-12-12-25.8-21.3-41.3-27.9c-16.1-6.9-33-10.3-50.5-10.3h-32.1V1082.4z"/>
	<path class="st0" d="M3328.6,1132.3h-49V772.9h49V1132.3z"/>
	<path class="st0" d="M3625,854.6c-11.3-10.5-24.1-18.9-38.5-25c-16.6-6.9-33.8-10.3-51.9-10.3s-35.3,3.4-51.9,10.3
		c-16,6.9-30.1,16.5-42.4,28.8s-21.8,26.4-28.6,42.2c-6.9,16.7-10.3,34-10.3,51.9c0,18.2,3.4,35.5,10.3,52.1
		c6.7,16,16.3,30,28.6,42.2c12.3,12.5,26.4,22,42.4,28.8c16.6,6.9,33.8,10.3,51.9,10.3s35.3-3.4,51.9-10.3
		c14.2-6.2,27-14.4,38.5-24.8l33,33c-15.8,14.6-33.6,26.2-53.4,34.7c-22.3,9.4-45.6,14.1-69.9,14.1c-24.3,0-47.7-4.7-70.1-14.1
		c-21.4-9.1-40.4-21.9-57.1-38.5c-16.6-16.7-29.4-35.8-38.5-57.3c-9.4-22.3-14.1-45.6-14.1-70.1c0-24.3,4.7-47.6,14.1-69.9
		c9.1-21.5,21.9-40.6,38.5-57.1c16.7-16.6,35.7-29.4,57.1-38.5c22.4-9.4,45.8-14.1,70.1-14.1c24.3,0,47.6,4.7,69.9,14.1
		c19.9,8.3,37.7,19.9,53.4,34.7L3625,854.6z"/>
	<path class="st0" d="M3714,1079.6c-35.2-35.2-52.7-77.6-52.7-127.2c0-49.4,17.6-91.7,52.7-127c35.2-35,77.6-52.5,127.2-52.5
		c49.4,0,91.7,17.5,127,52.5c35,35.3,52.5,77.6,52.5,127c0,49.7-17.5,92.1-52.5,127.2c-35.3,35.2-77.6,52.7-127,52.7
		C3791.5,1132.3,3749.1,1114.7,3714,1079.6z M3747.4,858.8c-25.8,25.9-38.7,57.1-38.7,93.6c0,36.6,12.9,67.9,38.7,93.8
		c25.9,25.8,57.2,38.7,93.8,38.7c36.5,0,67.7-12.9,93.6-38.7c25.9-25.9,38.9-57.2,38.9-93.8c0-36.5-13-67.7-38.9-93.6
		s-57.1-38.9-93.6-38.9C3804.6,819.9,3773.3,832.8,3747.4,858.8z"/>
</g>
<g>
	<path class="st0" d="M2311.1,1325.9v-6.4h82.5v6.4h-8.8c-9.2,0-16.2,3.8-21.1,11.5c-2.4,3.7-3.6,11.9-3.6,24.8v94.5
		c0,23.3-2.3,41.4-7,54.5c-3,8.4-7.2,15.5-12.7,21.4c-5.5,5.9-11.9,10.7-19.1,14.5s-15.2,6.6-23.8,8.3c-8.7,1.8-17.7,2.7-27.1,2.7
		c-25.3,0-44.6-4.4-57.9-13.2c-8.4-5.5-14.8-11.3-19.3-17.4c-4.5-6.1-7.8-12.9-10-20.3c-2.1-7.4-3.4-15.6-3.7-24.6
		c-0.3-9-0.5-19.2-0.5-30.7v-91.1c0-7.2-0.5-13.1-1.5-17.7c-1-4.6-2.5-8.1-4.6-10.7c-2.1-2.5-4.7-4.2-7.8-5.2
		c-3.2-0.9-6.9-1.4-11.3-1.4h-8.8v-6.4h100.7v6.4h-8.9c-5.5,0-9.9,0.8-13.2,2.3c-3.3,1.5-5.8,3.8-7.6,6.8c-1.7,3-2.8,6.6-3.4,11
		c-0.5,4.4-0.8,9.3-0.8,14.8v101.6c0,5.7,0.2,11.4,0.5,17c0.3,5.6,1,11,2.1,16.2c1,5.2,2.4,10.1,4.2,14.8c1.8,4.6,4.1,8.9,7,12.8
		c4.5,6.2,10.5,11.1,18,14.7c7.5,3.6,17.1,5.4,28.8,5.4c7.6,0,14.8-0.9,21.7-2.7c6.9-1.8,13.3-4.2,19.1-7.4
		c5.8-3.2,10.8-6.9,15-11.2c4.2-4.3,7.4-9,9.6-14.2c4.5-10.4,6.7-28,6.7-52.8v-94.4c0-14.7-1.6-23.8-4.8-27.3
		c-4.5-5-11.1-7.6-19.9-7.6H2311.1z"/>
	<path class="st0" d="M2392.7,1319.5h63.2l142.5,174.8v-134.4c0-14.3-1.6-23.3-4.8-26.8c-4.4-4.8-11.1-7.2-20.1-7.2h-8.1v-6.4h81.1
		v6.4h-8.2c-9.9,0-16.8,3-21,8.9c-2.5,3.6-3.8,11.9-3.8,25.1v196.5h-6.2l-153.7-187.7v143.5c0,14.3,1.5,23.3,4.6,26.8
		c4.2,4.8,10.9,7.2,20.1,7.2h8.2v6.4h-81.1v-6.4h8.1c10,0,17-3,21.1-8.9c2.5-3.6,3.8-11.9,3.8-25.1v-162.1c-3.4-4-6.3-7.2-8.6-9.6
		c-2.3-2.4-4.5-4.4-6.5-5.9s-4.3-2.8-6.7-3.8c-2.4-1-5.4-2.1-8.9-3.4c-3.3-1-8.4-1.5-15.1-1.5V1319.5z"/>
	<path class="st0" d="M2760.2,1546.2v6.4h-99.9v-6.4h8.2c9.7,0,16.7-2.8,21-8.4c2.8-3.6,4.1-12.4,4.1-26.5v-150.6
		c0-5.5-0.1-10-0.3-13.4c-0.2-3.4-0.7-6.3-1.3-8.5c-0.6-2.2-1.5-4-2.8-5.2c-1.2-1.3-2.8-2.5-4.9-3.6c-5-2.8-10.3-4.1-15.8-4.1h-8.2
		v-6.4h99.9v6.4h-8.4c-9.6,0-16.6,2.8-20.8,8.4c-2.9,3.6-4.3,12.4-4.3,26.5v150.6c0,5.5,0.1,10,0.3,13.4c0.2,3.4,0.7,6.2,1.3,8.4
		c0.6,2.2,1.6,3.9,2.8,5.2c1.3,1.3,2.9,2.6,5,3.7c4.9,2.8,10.1,4.1,15.6,4.1H2760.2z"/>
	<path class="st0" d="M2764.1,1319.5h63.2l142.5,174.8v-134.4c0-14.3-1.6-23.3-4.8-26.8c-4.4-4.8-11.1-7.2-20.1-7.2h-8.1v-6.4h81.1
		v6.4h-8.2c-9.9,0-16.8,3-21,8.9c-2.5,3.6-3.8,11.9-3.8,25.1v196.5h-6.2l-153.7-187.7v143.5c0,14.3,1.5,23.3,4.6,26.8
		c4.2,4.8,10.9,7.2,20.1,7.2h8.2v6.4H2777v-6.4h8.1c10,0,17-3,21.1-8.9c2.5-3.6,3.8-11.9,3.8-25.1v-162.1c-3.4-4-6.3-7.2-8.6-9.6
		c-2.3-2.4-4.5-4.4-6.5-5.9s-4.3-2.8-6.7-3.8c-2.4-1-5.4-2.1-8.9-3.4c-3.3-1-8.4-1.5-15.1-1.5V1319.5z"/>
	<path class="st0" d="M3151.7,1314.2c30.1,0,56.3,11.5,78.5,34.5c22.2,22.9,33.3,51.6,33.3,85.9c0,35.4-11.2,64.8-33.5,88.2
		s-49.4,35.1-81.1,35.1c-32.2,0-59.2-11.4-81-34.2c-21.8-22.8-32.7-52.3-32.7-88.5c0-37,12.6-67.2,37.8-90.6
		C3095,1324.3,3121.2,1314.2,3151.7,1314.2z M3148.4,1326.7c-11.8,0-22.3,2.5-31.5,7.6c-9.2,5-16.9,12.2-23.1,21.6
		c-6.2,9.3-11,20.7-14.3,33.9c-3.3,13.3-4.9,28.2-4.9,44.7c0,16.4,1.6,31.4,4.8,45c3.2,13.6,7.9,25.4,14.2,35.1
		c6.2,9.8,13.9,17.4,23.1,22.9c9.2,5.4,19.8,8.2,31.8,8.2c10.8,0,20.8-2.1,30-6.2c9.2-4.1,17.2-10.5,24-19.2
		c6.8-8.7,12.1-19.7,15.9-33.1c3.8-13.4,5.8-29.4,5.8-48c0-17.8-1.6-33.6-4.7-47.5c-3.2-13.9-7.9-25.7-14.3-35.3s-14.3-17-23.7-22.1
		C3172.1,1329.3,3161,1326.7,3148.4,1326.7z"/>
	<path class="st0" d="M3515,1552.6h-62.2l-78.9-109c-3,0.1-5.6,0.2-8,0.3c-2.3,0.1-4.4,0.1-6.3,0.1c-1.5,0-3.1,0-4.8-0.1
		c-1.7-0.1-3.5-0.1-5.3-0.3v67.7c0,14.7,1.6,23.8,4.8,27.3c4.4,5,10.9,7.6,19.6,7.6h9.1v6.4h-99.9v-6.4h8.8c9.7,0,16.8-3.2,21.1-9.6
		c2.4-3.6,3.6-12,3.6-25.3v-150.6c0-14.7-1.6-23.8-4.8-27.3c-4.5-5-11.1-7.6-19.9-7.6h-8.8v-6.4h84.9c24.5,0,42.7,1.8,54.7,5.5
		c5.8,1.7,11.3,4.3,16.4,7.7c5.1,3.4,9.6,7.5,13.4,12.2c3.8,4.7,6.9,10,9.1,15.8s3.4,12.1,3.4,18.7c0,7.2-1.1,14-3.4,20.2
		c-2.3,6.2-5.8,11.9-10.6,17.1c-4.8,5.2-10.7,9.6-18,13.4s-15.7,6.8-25.4,8.9l48.1,66.9c11.1,15.5,20.6,25.7,28.4,30.6
		c8,5,18.3,8.2,30.9,9.6V1552.6z M3349.5,1432.8c2.2,0,4.1,0,5.7,0.1c1.6,0.1,2.9,0.1,4,0.1c11.1,0,20.9-1.3,29.3-3.9
		s15.4-6.2,21.1-10.7c5.6-4.6,9.8-10,12.6-16.2c2.8-6.2,4.2-13,4.2-20.4c0-7.2-1.2-13.8-3.6-19.9s-5.8-11.2-10.2-15.6
		c-4.4-4.4-9.7-7.7-15.8-10.1c-6.1-2.4-12.9-3.6-20.2-3.6c-3.3,0-7.2,0.3-11.7,0.8s-9.6,1.3-15.3,2.5V1432.8z"/>
	<path class="st0" d="M3694.5,1319.5v54.7h-4c-0.9-7.3-2.4-13.5-4.6-18.6c-2.1-5.1-4.9-9.2-8.3-12.4c-3.4-3.2-7.6-5.4-12.5-6.9
		c-4.9-1.4-10.7-2.1-17.2-2.1h-32.8v178.1c0,14.3,1.5,23.3,4.6,26.8c4.2,4.8,10.9,7.2,20.1,7.2h8.1v6.4h-98.8v-6.4h8.2
		c9.9,0,16.8-3,21-8.9c2.5-3.6,3.8-11.9,3.8-25.1v-178.1h-28c-7.1,0-13.3,0.5-18.6,1.5c-5.3,1-9.7,3-13.4,5.8
		c-3.7,2.9-6.6,6.9-8.9,12.2c-2.3,5.3-4,12.1-5.2,20.5h-6.5v-54.7H3694.5z"/>
	<path class="st0" d="M3779.4,1332.2v92.1h51.2c7.4,0,13.5-0.7,18.1-2c4.6-1.3,8.3-3.4,10.9-6.2c2.6-2.8,4.5-6.3,5.5-10.6
		c1-4.2,1.7-9.3,2.1-15.1h6.4v81.1h-6.4c-0.8-5.7-1.6-10.4-2.4-14c-0.8-3.6-1.6-6.2-2.4-7.8c-1-2.1-2.3-3.9-4-5.4
		c-1.6-1.5-3.7-2.9-6.2-4c-2.5-1.1-5.6-2-9.1-2.6c-3.6-0.6-7.7-0.9-12.5-0.9h-51.2v76.8c0,10.2,0.5,16.5,1.4,18.9c0.5,1,1,2,1.7,2.9
		c0.7,0.9,1.7,1.7,3,2.3c1.3,0.6,3,1.1,5.2,1.5c2.1,0.3,4.8,0.5,8,0.5h39.5c6.8,0,12.4-0.2,16.9-0.6c4.5-0.4,8.5-1.1,11.9-2.1
		c3.4-1,6.4-2.3,8.9-4.1c2.6-1.8,5.3-4,8.2-6.8c3.6-3.4,7.2-7.8,10.8-13.2c3.7-5.4,7.3-11.7,11-18.9h6.9l-20.1,58.4H3713v-6.4h8.2
		c2.2,0,4.5-0.2,6.9-0.7c2.4-0.5,4.7-1.2,6.8-2.2c2.1-1,4-2.3,5.8-3.9s2.9-3.4,3.6-5.4c1.4-3.6,2.1-11.1,2.1-22.5v-151.4
		c0-14.7-1.5-23.8-4.5-27.3c-4.1-4.6-11-6.9-20.6-6.9h-8.2v-6.4h179.6v51h-4.1c-1.3-6.2-2.5-11.3-3.8-15.3c-1.3-4-2.7-7.3-4.3-10
		c-1.6-2.6-3.4-4.7-5.5-6.3s-4.5-2.9-7.4-4.2c-4.7-1.7-12.8-2.6-24.2-2.6H3779.4z"/>
	<path class="st0" d="M4150.5,1474.5h-90.2l-15.8,36.8c-3.9,8.9-5.8,15.7-5.8,20.3c0,1.8,0.3,3.5,0.9,5.1c0.6,1.5,1.9,3,3.9,4.3
		c1.9,1.3,4.7,2.4,8.2,3.3c3.6,0.9,8.2,1.5,13.9,2v6.4h-73.4v-6.4c9.6-1.7,15.9-4,18.9-6.7c3-2.8,6-6.9,9.2-12.5
		c3.2-5.6,6.6-12.6,10.2-21.1l82-191.8h6l81.1,193.9c3.3,8,6.4,14.5,9.2,19.3c2.8,4.9,5.7,8.7,8.7,11.3c3,2.7,6.2,4.6,9.7,5.6
		c3.5,1,7.6,1.7,12.5,1.9v6.4h-92v-6.4c4.6-0.2,8.4-0.7,11.5-1.5c3.1-0.8,5.5-1.8,7.3-3.1c1.8-1.3,3-2.7,3.8-4.3
		c0.7-1.6,1.1-3.4,1.1-5.3c0.1-2.5-0.4-5.8-1.6-9.7s-3-8.7-5.2-14.2L4150.5,1474.5z M4145.6,1461.8l-39.5-94.2l-40.6,94.2H4145.6z"
		/>
	<path class="st0" d="M4455.5,1314.2l5.3,79.2h-5.3c-3.6-11.8-7.9-21.9-13-30.4c-5.1-8.5-10.9-15.4-17.4-20.8
		c-6.5-5.4-13.8-9.3-21.7-11.9c-7.9-2.5-16.5-3.8-25.8-3.8c-15.6,0-29.4,3.8-41.4,11.4c-12,7.6-21.6,19.3-28.7,35.1
		c-3.9,8.7-6.9,18.6-8.9,29.6c-2.1,11.1-3.1,23.5-3.1,37.2c0,21,3.4,39.2,10.1,54.8c3.4,7.9,7.8,14.8,13,20.8
		c5.2,6,11.1,10.9,17.8,15c6.6,4,13.9,7,21.7,9.1c7.8,2.1,16,3.1,24.5,3.1c9.6,0,17.9-1,24.9-2.9c7-1.9,13.3-4.9,19.1-8.9
		c5.7-4,11.3-9.1,16.6-15.1c5.3-6.1,11.2-13.2,17.6-21.3l5.3,3.4c-5.8,10.3-12.1,19.2-18.9,26.8c-6.8,7.6-14.1,13.8-22,18.7
		c-7.9,4.9-16.5,8.6-25.7,10.9c-9.2,2.3-19.2,3.5-29.8,3.5c-38.7,0-68.6-14.3-89.7-43c-15.8-21.3-23.7-46.4-23.7-75.3
		c0-13.9,1.9-27.3,5.7-40.3c3.8-13,9.6-25,17.5-36c5.5-7.8,11.8-14.8,18.8-20.9c7-6.1,14.7-11.3,22.9-15.5
		c8.2-4.2,16.8-7.4,25.9-9.5c9.1-2.2,18.3-3.3,27.8-3.3c16.8,0,33.5,4.1,49.8,12.4c5,2.6,8.5,3.9,10.3,3.8c3.7,0,6.7-1.5,9.2-4.6
		c2.5-3,4.2-6.9,5.2-11.6H4455.5z"/>
	<path class="st0" d="M4716.3,1552.6h-62.2l-78.9-109c-3,0.1-5.6,0.2-8,0.3c-2.3,0.1-4.4,0.1-6.3,0.1c-1.5,0-3.1,0-4.8-0.1
		c-1.7-0.1-3.5-0.1-5.3-0.3v67.7c0,14.7,1.6,23.8,4.8,27.3c4.4,5,10.9,7.6,19.6,7.6h9.1v6.4h-99.9v-6.4h8.8c9.7,0,16.8-3.2,21.1-9.6
		c2.4-3.6,3.6-12,3.6-25.3v-150.6c0-14.7-1.6-23.8-4.8-27.3c-4.5-5-11.1-7.6-19.9-7.6h-8.8v-6.4h84.9c24.5,0,42.7,1.8,54.7,5.5
		c5.8,1.7,11.3,4.3,16.4,7.7c5.1,3.4,9.6,7.5,13.4,12.2c3.8,4.7,6.9,10,9.1,15.8s3.4,12.1,3.4,18.7c0,7.2-1.1,14-3.4,20.2
		c-2.3,6.2-5.8,11.9-10.6,17.1c-4.8,5.2-10.7,9.6-18,13.4s-15.7,6.8-25.4,8.9l48.1,66.9c11.1,15.5,20.6,25.7,28.4,30.6
		c8,5,18.3,8.2,30.9,9.6V1552.6z M4550.8,1432.8c2.2,0,4.1,0,5.7,0.1c1.6,0.1,2.9,0.1,4,0.1c11.1,0,20.9-1.3,29.3-3.9
		s15.4-6.2,21.1-10.7c5.6-4.6,9.8-10,12.6-16.2c2.8-6.2,4.2-13,4.2-20.4c0-7.2-1.2-13.8-3.6-19.9s-5.8-11.2-10.2-15.6
		c-4.4-4.4-9.7-7.7-15.8-10.1c-6.1-2.4-12.9-3.6-20.2-3.6c-3.3,0-7.2,0.3-11.7,0.8s-9.6,1.3-15.3,2.5V1432.8z"/>
	<path class="st0" d="M4786.7,1332.2v92.1h51.2c7.4,0,13.5-0.7,18.1-2c4.6-1.3,8.3-3.4,10.9-6.2c2.6-2.8,4.5-6.3,5.5-10.6
		c1-4.2,1.7-9.3,2.1-15.1h6.4v81.1h-6.4c-0.8-5.7-1.6-10.4-2.4-14c-0.8-3.6-1.6-6.2-2.4-7.8c-1-2.1-2.3-3.9-4-5.4
		c-1.6-1.5-3.7-2.9-6.2-4c-2.5-1.1-5.6-2-9.1-2.6c-3.6-0.6-7.7-0.9-12.5-0.9h-51.2v76.8c0,10.2,0.5,16.5,1.4,18.9c0.5,1,1,2,1.7,2.9
		c0.7,0.9,1.7,1.7,3,2.3c1.3,0.6,3,1.1,5.2,1.5c2.1,0.3,4.8,0.5,8,0.5h39.5c6.8,0,12.4-0.2,16.9-0.6c4.5-0.4,8.5-1.1,11.9-2.1
		c3.4-1,6.4-2.3,8.9-4.1c2.6-1.8,5.3-4,8.2-6.8c3.6-3.4,7.2-7.8,10.8-13.2c3.7-5.4,7.3-11.7,11-18.9h6.9l-20.1,58.4h-179.6v-6.4h8.2
		c2.2,0,4.5-0.2,6.9-0.7c2.4-0.5,4.7-1.2,6.8-2.2c2.1-1,4-2.3,5.8-3.9s2.9-3.4,3.6-5.4c1.4-3.6,2.1-11.1,2.1-22.5v-151.4
		c0-14.7-1.5-23.8-4.5-27.3c-4.1-4.6-11-6.9-20.6-6.9h-8.2v-6.4H4900v51h-4.1c-1.3-6.2-2.5-11.3-3.8-15.3c-1.3-4-2.7-7.3-4.3-10
		c-1.6-2.6-3.4-4.7-5.5-6.3s-4.5-2.9-7.4-4.2c-4.7-1.7-12.8-2.6-24.2-2.6H4786.7z"/>
</g>
</svg>
