<?xml version="1.0" encoding="utf-8"?>
<!-- Generator: Adobe Illustrator 21.0.0, SVG Export Plug-In . SVG Version: 6.00 Build 0)  -->
<svg version="1.1" id="Camada_1" xmlns="http://www.w3.org/2000/svg" xmlns:xlink="http://www.w3.org/1999/xlink" x="0px" y="0px"
	 viewBox="0 0 485.3 532.4" style="enable-background:new 0 0 485.3 532.4;" xml:space="preserve">
<style type="text/css">
	.st0{fill:#FFFFFF;}
</style>
<g>
	<path class="st0" d="M369.3,400.3c-0.5-21.3,17.7-40.1,40.1-40c22.4,0.1,40,19.1,39.9,40.1c0,20.9-17.5,40-40,40
		C387,440.5,368.8,421.6,369.3,400.3z M438.8,400.2c-0.1-16.5-13.2-29.3-29.7-29.4c-15.7-0.1-29.4,13.4-29.3,29.6
		c0.1,15.4,12.6,29.4,29.5,29.4C426.1,429.8,439.2,415.7,438.8,400.2z"/>
	<path class="st0" d="M181.4,418.8c5.6,7.2,11.1,14.2,16.6,21.1c-0.5,0.8-1.1,0.5-1.6,0.5c-3.5,0-7,0-10.6,0c-1.3,0-2.2-0.4-3-1.4
		c-3.8-4.9-7.8-9.7-11.6-14.7c-1-1.3-2.1-1.9-3.8-1.8c-2.6,0.1-5.3,0.1-7.9,0c-1.2,0-1.6,0.4-1.6,1.6c0.1,4.7,0,9.4,0,14.2
		c0,2.3,0,2.1-2.1,2.1c-2.4,0-4.8,0-7.2,0c-1.9,0-1.9,0-1.9-2c0-0.2,0-0.5,0-0.7c0-24.9,0-49.7,0-74.6c0-3.1-0.3-2.7,2.7-2.7
		c5.8,0,11.7,0,17.5,0c16.1,0.1,27.1,12.2,29.7,23.2c3.1,13.1-1.2,25.7-12.9,33.8C182.9,417.8,182.3,418.2,181.4,418.8z
		 M157.9,391.2c0,6.1,0,12.1,0,18.2c0,1.7,0,1.7,1.7,1.7c2.2,0,4.3-0.1,6.5,0c10.6,0.5,20.8-9,20.1-20.9c-0.5-9.6-8.5-18-18.1-18.5
		c-2.8-0.2-5.6-0.1-8.4-0.1c-1.8,0-1.8,0-1.9,1.8C157.9,379.4,157.9,385.3,157.9,391.2z"/>
	<path class="st0" d="M220.4,400.1c0-12.2,0-24.5,0-36.7c0-0.5,0-1,0-1.4c-0.1-1.2,0.3-1.7,1.6-1.7c2.8,0.1,5.6,0,8.4,0
		c4.4,0.1,8.8-0.2,13.2,0.3c16.9,2,31.2,15.2,34.3,31.9c4.2,22.4-10.2,43.2-32.6,47.2c-2,0.4-4.1,0.5-6.2,0.6c-5.5,0.1-11,0-16.6,0
		c-2.1,0-2.1,0-2.1-2.1C220.4,425.6,220.4,412.8,220.4,400.1z M231.4,400.3c0,2.7,0,5.4,0,8.2c0,6.4,0,12.8,0,19.2
		c0,1.2,0.3,1.7,1.6,1.7c3-0.1,5.9,0.1,8.9-0.3c19.6-2.1,32.1-23.6,22.2-42.3c-5.9-11.1-18.6-17.1-31.7-15.3c-0.7,0.1-1,0.4-1,1
		c0,0.6,0,1.1,0,1.7C231.4,382.8,231.4,391.5,231.4,400.3z"/>
	<path class="st0" d="M90.6,360.3c0.4,1.2,0.2,2.1,0.2,2.9c0,15.4,0,30.9,0,46.3c0,6.5,2.3,11.9,7.5,15.8c6.1,4.6,12.8,5.4,19.7,2.2
		c6.9-3.2,10.9-8.9,11-16.6c0.2-15.9,0-31.8,0.1-47.7c0-3.2-0.4-2.8,2.8-2.8c2.3,0,4.6,0,7,0c0.9,0,1.3,0.3,1.3,1.3c0,0.3,0,0.6,0,1
		c0,16.1,0,32.1,0,48.2c-0.1,12.3-8.1,23.6-19.6,27.8c-17.8,6.4-37-4.7-40.1-23.3c-0.3-1.8-0.3-3.7-0.3-5.5c0-15.7,0-31.3,0-47
		c0-0.5,0-1,0-1.4c0-0.7,0.4-1,1-1C84.1,360.4,87.3,360.3,90.6,360.3z"/>
	<path class="st0" d="M361,422.4c2.4,2.4,4.8,4.8,7.1,7.2c-12.1,12.6-36.8,16-54.1,0.2c-16.9-15.4-17.3-42.3-0.7-58.2
		c17.3-16.6,42.4-13.2,55.1-0.2c-2.1,2.1-4.3,4.3-6.4,6.4c-0.7,0.7-1.1,0.5-1.8-0.1c-3.4-2.9-7.2-4.9-11.6-6.1
		c-17.4-4.6-34.8,7.2-36.9,25c-1.5,12,4.1,23.5,14.6,29.3c11.1,6.1,22.1,5.3,32.5-1.9C359.7,423.5,360.4,422.9,361,422.4z"/>
	<path class="st0" d="M74,383.7c-0.1,6.9,0.2,13.8-0.2,20.6c-1,16.6-14.5,32-30.8,35.2c-2.1,0.4-4.3,0.6-6.4,0.8
		c-2,0.2-2,0.1-2.1-1.8c0-2.4,0-4.8,0-7.2c0-1.8,0-1.8,1.8-1.9c8.5-0.6,15.4-4.3,20.8-10.9c4.2-5.2,6-11.2,6-17.8
		c0-12.5,0-24.9,0-37.4c0-3.4-0.4-2.8,3-2.9c1.8,0,3.7,0,5.5,0c2.2,0,2.4-0.5,2.4,2.3c0,5.3,0,10.6,0,15.8C74,380.2,74,382,74,383.7
		z"/>
	<path class="st0" d="M432.8,274.1c14.7,0,26.3,11.7,26.5,26.3c0.2,13.9-11.4,26.7-26.4,26.7c-15.3,0.1-26.6-13-26.7-26.5
		C406.2,287.1,417.6,274,432.8,274.1z M432.7,320c10.9,0,19.6-8.5,19.7-19.3c0.1-10.8-8.7-19.6-19.4-19.6
		c-10.9,0-19.6,8.5-19.6,19.4C413.2,311.3,421.9,320,432.7,320z"/>
	<path class="st0" d="M102.9,300.6c-0.1-14.7,11.7-26.5,26.5-26.5c14.6,0,26.4,11.7,26.5,26.3c0,14.7-11.7,26.6-26.4,26.7
		C114.8,327.1,103,315.4,102.9,300.6z M148.8,300.7c0.4-10.7-9-19.6-19.1-19.6c-11,0-19.8,8.5-19.9,19.4c0,10.9,8.5,19.5,19.4,19.6
		C140.2,320.1,148.8,311.6,148.8,300.7z"/>
	<path class="st0" d="M247.9,304.1c-4,0-7.8,0-11.6,0c-2.1,0-2.1,0-2.1-2.1c0-1.5-0.6-3.5,0.3-4.4c1-1.1,3-0.4,4.6-0.4
		c4.9-0.1,9.8,0,14.6,0c0.9,0,1.5,0,1.6,1.2c0.7,14.3-8.3,24.8-19.7,27.8c-18.3,4.8-34.9-10.1-33.2-27.8c1-10.6,6.6-18.3,16.5-22.2
		c9.8-3.9,19-2.2,27.2,4.5c0.4,0.3,0.8,0.6,1,1.1c-0.1,0.7-0.7,1-1.2,1.4c-1.1,1.1-2,2.7-3.3,3c-1.2,0.3-2.2-1.5-3.5-2.2
		c-7.3-4.1-14.5-4-21.5,0.6c-6.5,4.3-9.7,12.4-8,19.9c1.8,8.3,7,13.6,15.3,15.3C237.2,322.3,246.5,313.3,247.9,304.1z"/>
	<path class="st0" d="M282.9,313.1c3.5,4.5,7.1,9,11,14c-3.3,0-6.1,0-8.9,0c-0.9,0-1.2-0.7-1.6-1.3c-2.4-3.1-4.9-6.1-7.3-9.2
		c-0.7-1-1.5-1.5-2.8-1.4c-1.3,0.1-2.7,0-4.1,0c-2,0-2,0-2,2.1c0,2.7-0.1,5.4,0,8.2c0,1.3-0.5,1.7-1.7,1.6c-1.6-0.1-3.2,0-4.8,0
		c-0.8,0-1.2-0.3-1.1-1.1c0-0.5,0-1,0-1.4c0-16,0-32,0-48c0-0.5,0-1,0-1.4c0-0.7,0.4-1,1-1c5.3,0.1,10.7-0.5,16,0.4
		c8.9,1.4,16.1,9.6,16.6,18.6c0.5,7.9-2.6,14.1-9,18.7C283.8,312.1,283.2,312.3,282.9,313.1z M267.2,294.7c0,3.8,0,7.7,0,11.5
		c0,1.3,0.4,1.7,1.6,1.6c1.9-0.1,3.8,0.1,5.7-0.2c6.1-0.8,10.9-5.9,11.3-12.1c0.4-6.3-3.8-12-9.9-13.5c-2.4-0.6-4.8-0.2-7.2-0.4
		c-1.3-0.1-1.7,0.4-1.6,1.6C267.2,287,267.2,290.8,267.2,294.7z"/>
	<path class="st0" d="M197.9,326.6c-10.1-11.2-20.3-22.4-30.4-33.6c-0.8,0.6-0.5,1.4-0.5,2c0,9.8,0,19.5,0,29.3c0,0.6,0,1.3,0,1.9
		c0,0.6-0.3,0.9-0.9,0.9c-1.8,0-3.5,0-5.3,0c-0.7,0-1-0.3-1-1c0-0.4,0-0.8,0-1.2c0-16.2,0-32.5,0-48.7c0-0.5,0-0.9,0-1.3
		c0.2-0.1,0.3-0.1,0.4-0.2c0.1,0,0.2,0,0.2,0.1c10.1,10.9,20.2,21.8,30.4,32.8c0.7-0.8,0.4-1.7,0.4-2.5c0-9.4,0-18.7,0-28.1
		c0-0.6,0-1.1,0-1.7c-0.1-0.9,0.4-1.3,1.3-1.2c1.9,0.2,3.8-0.4,5.7,0.3c0.4,1.7,0.2,3.3,0.2,5c0,14.9,0,29.7,0,44.6
		c0,0.8,0,1.6,0,2.4C198.1,326.4,198,326.5,197.9,326.6z"/>
	<path class="st0" d="M203.6,400.4c0-12.4,0-24.8,0-37.2c0-0.6,0-1.1,0-1.7c0-0.8,0.2-1.2,1.1-1.2c3,0,5.9,0,8.9,0c0.7,0,1,0.4,1,1
		c0,0.6,0,1.1,0,1.7c0,24.9,0,49.7,0,74.6c0,0.5,0,1,0,1.4c0.1,1.1-0.4,1.4-1.4,1.3c-2.7,0-5.4-0.1-8.2,0c-1.1,0-1.4-0.4-1.4-1.4
		c0-2.6,0-5.3,0-7.9C203.6,420.8,203.6,410.6,203.6,400.4z"/>
	<path class="st0" d="M25.4,287.1c0-12.4,0-24.8,0-37.2c0-0.6,0-1.1,0-1.7c0-0.8,0.2-1.2,1.1-1.2c3,0,5.9,0,8.9,0c0.7,0,1,0.3,1,1
		c0,0.6,0,1.1,0,1.7c0,24.9,0,49.7,0,74.6c0,0.4,0,0.8,0,1.2c0.1,1.1-0.2,1.6-1.4,1.6c-2.7-0.1-5.4-0.1-8.2,0c-1,0-1.5-0.4-1.4-1.4
		c0-0.6,0-1.1,0-1.7C25.4,311.7,25.4,299.4,25.4,287.1z"/>
	<path class="st0" d="M328.2,320.2c0,1.8,0,3.7,0,5.6c0,1.1-0.5,1.3-1.5,1.3c-2.1,0-4.2,0-6.2,0c-7,0-14.1,0-21.1,0
		c-1.8,0-1.8,0-1.8-1.8c0-16.5,0-33,0-49.4c0-1.7,0-1.7,1.8-1.7c9,0,18.1,0,27.1,0c1.7,0,1.8,0,1.8,1.7c0,1.4,0,2.9,0,4.3
		c0,0.9-0.4,1.3-1.3,1.3c-0.6,0-1.1,0-1.7,0c-6.2,0-12.3,0-18.5,0c-2,0-2,0-2,1.9c0,6.9,0,13.8,0,20.6c0,2,0,2,1.9,2
		c4.7,0,9.4,0,14.2,0c2,0,2,0,2,1.9c0,1.3-0.1,2.6,0,3.8c0.1,1.2-0.4,1.5-1.5,1.5c-4.6,0-9.3,0-13.9,0c-0.6,0-1.1,0-1.7,0
		c-0.7,0-1,0.4-1,1c0,0.2,0,0.3,0,0.5c0.1,1.6-0.6,3.6,0.3,4.7c1,1.2,3,0.4,4.6,0.4c5.7,0.1,11.4,0,17,0
		C327.1,319.8,327.6,319.8,328.2,320.2z"/>
	<path class="st0" d="M395.5,291.7c-0.1-0.9-0.3-1.6-0.4-2.3c-0.9-5.4-4.6-8.4-10.1-8.1c-5.1,0.2-8.8,4.2-8.7,9.3
		c0.1,2.7,1.5,4.6,3.8,6c2,1.2,4.2,1.5,6.4,1.8c2.6,0.3,5,0.9,7.4,2c4.9,2.3,7.7,6.1,8.1,11.5c0.5,5.6-1.9,9.9-6.6,12.6
		c-6.4,3.7-13,3.8-19.3-0.2c-4-2.5-6.1-6.2-6.4-11c-0.1-1,0.1-1.5,1.3-1.4c0.7,0.1,1.4,0,2.2,0c1,0,2.2-0.2,3.1,0.1
		c1.2,0.4,0.6,1.8,1,2.7c1.2,2.9,3.4,4.3,6.3,5c2.9,0.6,5.6,0.1,8.1-1.4c1.4-0.8,2.4-2,2.9-3.7c1-3.1,0.1-5.7-2.8-7.4
		c-1.7-1-3.5-1.4-5.4-1.7c-2.6-0.3-5.2-0.8-7.7-1.8c-7-2.9-10.4-8.7-9.3-16.2c1.1-7.2,6.6-12.6,13.7-13.3c3.2-0.3,6.4-0.1,9.4,1.3
		c6.4,2.9,9.4,8.1,9.8,15c0.1,1-0.3,1.2-1.2,1.2C399.3,291.7,397.5,291.7,395.5,291.7z"/>
	<path class="st0" d="M339.6,311.9c1.5,7.3,8.4,10.3,14.7,6.6c1.7-1,2.9-2.4,3.4-4.4c0.6-3-0.2-5.1-2.9-6.7c-1.7-1-3.7-1.5-5.7-1.8
		c-2.7-0.4-5.4-0.8-7.9-1.9c-6.6-2.9-10.1-8.9-9-15.5c1.2-7.7,6.6-13.1,13.8-13.8c5.7-0.6,10.8,0.7,14.8,5c2.9,3.1,4.2,6.9,4.4,11.1
		c0,0.9-0.1,1.3-1.2,1.3c-1.5-0.1-3-0.1-4.6,0c-1,0-1.5-0.2-1.5-1.3c0-0.6-0.1-1.3-0.2-1.9c-1.4-6.3-9-9.5-14.4-6
		c-3.1,2-4.3,5.1-4.1,8.7c0.3,3.2,2.6,5,5.4,6.1c1.6,0.6,3.2,0.8,4.9,1.1c2.9,0.4,5.6,1.1,8.2,2.4c8.1,4.1,10.1,16.5,2,22.7
		c-6.2,4.7-15.8,4.8-21.9-0.1c-3.3-2.6-4.9-6-5.3-10.1c-0.1-1,0.1-1.5,1.2-1.5C335.8,311.9,337.7,311.9,339.6,311.9z"/>
	<path class="st0" d="M284.5,400.4c0-12.4,0-24.8,0-37.2c0-0.6,0-1.1,0-1.7c0-0.8,0.2-1.2,1.1-1.2c2.9,0,5.8,0,8.6,0
		c0.8,0,1.2,0.3,1.1,1.1c0,0.6,0,1.1,0,1.7c0,24.8,0,49.6,0,74.4c0,3.3,0.2,2.8-2.8,2.8c-2.2,0-4.5,0-6.7,0c-1.1,0-1.4-0.4-1.4-1.4
		c0-0.6,0-1.1,0-1.7C284.5,425,284.5,412.7,284.5,400.4z"/>
	<path class="st0" d="M97.4,315.1c1.6,1.6,3.1,3.2,4.6,4.7c-7.8,8.4-24.2,10.8-35.8,0.3c-11-10-11.5-27.4-1.1-38
		c11-11.3,28.2-9.7,37.1-0.7c-1.2,1.2-2.4,2.3-3.5,3.5c-0.8,0.9-1.4,1.1-2.5,0.2c-3.9-3.2-8.4-4.4-13.4-4.1
		c-9.5,0.5-17.6,8.6-18.2,18.2c-0.7,11.1,7.3,18.9,15.2,20.5c5.7,1.1,11,0.2,15.7-3.2C96.2,316.1,96.7,315.7,97.4,315.1z"/>
	<path class="st0" d="M96.8,469.9c-0.4,0.9-1.2,0.5-1.9,0.6c-2.2,0.3-3.1,1.1-3.3,3.4c0,0.5-0.1,1-0.1,1.4c0,6.2,0,12.3,0,18.5
		c0,2,0.3,4,1,5.9c1.2,3.1,3.6,4.8,6.9,5.1c2.9,0.3,5.6-0.1,8.1-1.6c2.3-1.3,3.9-3.3,4.3-6c0.2-1.5,0.4-3,0.4-4.5
		c0-5.8,0-11.5,0-17.3c0-0.5,0-1-0.1-1.4c-0.2-2.3-1-3.1-3.2-3.5c-0.6-0.1-1.5,0.3-1.9-0.5c0.2-0.7,0.7-0.6,1.2-0.6
		c3.5,0,7,0,10.6,0c0.4,0,1.1-0.2,1.1,0.5c0,0.5-0.5,0.5-0.9,0.5c-3.4,0-4.2,2.2-4.2,4.9c0,5,0,10.1,0,15.1c0,1.9,0,3.8-0.2,5.7
		c-0.9,7.5-5.5,10.1-11.2,10.8c-2.5,0.3-4.9,0.2-7.4-0.3c-5.9-1.2-9.4-5.1-9.6-11.2c-0.2-5.7-0.1-11.4-0.1-17c0-1.2,0-2.4,0-3.6
		c-0.2-3.4-0.8-4.1-4.2-4.5c-0.2,0-0.5,0-0.7-0.1c-0.1,0-0.2-0.2-0.3-0.3c0-0.2,0-0.5,0.3-0.5c0.3,0,0.6-0.1,1-0.1
		c4.4,0,8.8,0,13.2,0C96,469.4,96.5,469.3,96.8,469.9z"/>
	<path class="st0" d="M301,506.1c-4.1,0-7.9,0-11.7,0c-0.1-0.9,0.5-0.9,0.9-1c1.6-0.3,2.7-1.4,3.4-2.8c0.7-1.4,1.4-2.9,2-4.3
		c3.9-9.1,7.7-18.2,11.6-27.3c0.3-0.7,0.3-2,1.4-2c1,0.1,1,1.3,1.3,2.1c3.9,9.3,7.8,18.7,11.7,28.1c0.5,1.1,1,2.2,1.5,3.3
		c0.9,1.7,2.1,3,4.2,3.2c0.2,0,0.4,0.2,0.6,0.3c0,0,0.1,0.1,0.1,0.2c0,0.6-0.5,0.5-0.9,0.5c-4.2,0-8.3,0-12.5,0
		c-0.4,0-0.9,0.1-1-0.4c-0.1-0.7,0.5-0.6,1-0.7c2.5-0.7,3.1-1.5,2.2-3.9c-0.7-2.1-1.7-4.1-2.5-6.2c-0.3-0.8-0.8-1.1-1.6-1.1
		c-4,0-8,0-12,0c-0.7,0-1.2,0.3-1.5,1c-0.9,2.1-1.8,4.3-2.6,6.4c-0.8,2.3-0.3,3.2,2.2,3.8C299.6,505.3,300.3,505,301,506.1z
		 M300.8,491.9c2.4,0,4.4,0,6.4,0c1.9,0,3.9,0.1,6.1-0.1c-2.1-4.9-4-9.5-5.8-13.9c-0.6-0.1-0.7,0.1-0.8,0.3
		C304.8,482.6,302.8,487.1,300.8,491.9z"/>
	<path class="st0" d="M242.1,483.5c-0.7-0.3-1.4-0.1-2.1-0.2c-1-0.1-1.7,0-2,1.3c-0.4,1.6-1.7,2-3.2,1.3c-0.3-0.1-0.6-0.3-0.8-0.5
		c-2.3-1.3-2.6-1.3-4.2,1c-0.8,1.2-1.3,2.5-1.3,4c0.1,3.4,0,6.7,0,10.1c0,3.5,0.5,4,3.9,4.9c0.1,0,0.2,0.2,0.3,0.3
		c0,0.4-0.2,0.6-0.6,0.6c-3.7,0-7.4,0-11,0c-0.4,0-0.9,0.1-0.9-0.5c0-0.4,0.3-0.4,0.7-0.5c2.7-0.6,3-0.9,3.1-3.6
		c0.1-3.3,0.1-6.6,0-9.8c0-1.6,0-3.2-0.1-4.8c-0.2-2.4-0.6-2.7-3-2.5c-0.2,0-0.5,0-0.7-0.1c-0.1,0-0.1-0.1-0.1-0.2
		c1-1.2,6-3.3,8.3-3.5c0.4,1.5,0,3,0.3,4.5c0.8,0,0.8-0.7,1.2-1c0.5-0.5,0.9-1.1,1.4-1.7c2.5-2.5,4.5-2.5,7.1-0.1
		c4.1-1.9,6.3-5.4,8-9.5c1,0.7,0.7,1.5,0.7,2.1c0,1.6,0.1,3.2,0,4.8c0,1,0.3,1.5,1.3,1.4c1.1-0.1,2.2,0,3.4,0c0.7,0,1,0.4,1,1
		c0,0.8-0.4,0.9-1.1,0.9c-1.1,0-2.2,0-3.4,0c-0.9,0-1.3,0.4-1.3,1.3c0,1.4,0,2.9,0,4.3c0,3.2,0,6.4,0,9.6c0,0.9,0.1,1.8,0.2,2.6
		c0.1,1,0.4,1.9,1.5,2.2c1.1,0.3,2,0,2.9-0.7c0.5-0.4,0.6-1.3,1.8-1.1c-0.9,2.4-2.2,4.1-4.5,4.9c-2.7,0.9-5.2-0.5-6-3.1
		c-0.3-1.1-0.4-2.2-0.4-3.3c0-4.7,0-9.4,0-14.2C242.3,485,242.5,484.2,242.1,483.5z"/>
	<path class="st0" d="M176.8,505.9c-1.7,0.5-9.8,0.6-12.1,0.1c-0.1-0.6,0.3-0.6,0.7-0.7c2.2-0.4,2.7-0.9,2.9-3
		c0.1-0.7,0.1-1.4,0.1-2.2c0-3.7,0-7.4,0-11c0-0.7,0-1.4-0.1-2.2c-0.3-2.2-0.6-2.4-2.9-2.4c-0.3,0-0.7,0.1-0.8-0.2
		c-0.3-0.5,0.2-0.7,0.5-0.9c2.1-0.9,4.3-1.8,6.4-2.6c0.8-0.3,1.4,0,1.3,1c0,1.1-0.2,2.2,0.2,3.4c1-0.1,1.4-1,2-1.6
		c1.7-1.5,3.5-2.8,5.9-2.9c2.9-0.1,4.7,1.1,5.8,3.7c0.7,1.7,0.9,3.4,0.9,5.2c0,3.6,0,7.2,0,10.8c0,0.8,0,1.6,0.1,2.4
		c0.2,1.6,0.7,2.1,2.4,2.4c0.4,0.1,1-0.1,1.2,0.5c-1.4,0.6-9.1,0.8-12.1,0.2c-0.1-0.9,0.6-0.7,1.1-0.8c2.1-0.3,2.5-0.6,2.6-2.7
		c0.2-4.9,0.4-9.7-0.1-14.6c-0.3-3.6-2.6-4.8-5.9-3.4c-1.2,0.5-2.2,1.3-3.2,2.1c-0.6,0.6-0.9,1.2-0.9,2.1c0,4.2,0,8.5,0,12.7
		c0,2.9,0.4,3.3,3.4,3.8C176.5,505.4,176.8,505.4,176.8,505.9z"/>
	<path class="st0" d="M133.9,505.8c-2,0.6-10.2,0.6-12.4,0.1c-0.1-0.6,0.3-0.6,0.7-0.7c2.2-0.4,2.7-0.9,2.9-3.1
		c0.1-0.9,0.1-1.8,0.1-2.6c0-3.6,0-7.2,0-10.8c0-0.6,0-1.3-0.1-1.9c-0.3-2-0.8-2.9-2.9-2.4c-0.3,0.1-0.7,0.1-0.8-0.2
		c-0.2-0.5,0.2-0.7,0.5-0.9c2.1-0.9,4.1-1.8,6.2-2.5c1.2-0.4,1.5-0.2,1.5,1.2c0.1,1-0.1,2.1,0.2,3.2c1-0.3,1.5-1.2,2.2-1.8
		c1.8-1.5,3.7-2.8,6.2-2.7c2.4,0.1,4.1,1.2,5.1,3.3c0.8,1.7,1,3.5,1,5.4c0,3.7,0,7.4,0,11c0,0.7,0,1.4,0.1,2.2
		c0.2,1.8,0.7,2.3,2.5,2.7c0.4,0.1,1-0.1,1.1,0.6c-1.5,0.6-9.4,0.7-12.1,0.2c-0.1-0.9,0.7-0.7,1.2-0.7c2-0.3,2.5-0.6,2.6-2.5
		c0.3-5.1,0.5-10.2-0.1-15.3c-0.3-2.8-2.2-4-5-3.3c-1.8,0.4-3.1,1.5-4.4,2.8c-0.6,0.6-0.6,1.3-0.6,2c0,4,0,8,0,12
		c0,3.4,0.3,3.7,3.6,4.3C133.4,505.4,133.5,505.6,133.9,505.8z"/>
	<path class="st0" d="M217.4,493.5c0.1,2.3-0.5,4.4-1.5,6.5c-2.3,4.8-6.9,7.6-11.7,7.1c-4.8-0.5-9-4.2-10.3-9.4
		c-1-4.2-0.3-8.1,2-11.7c5-7.5,15.7-7,19.9,1.1C216.9,489.1,217.5,491.2,217.4,493.5z M198.6,491.8c-0.1,2.9,0.4,5.5,1.5,8.1
		c0.6,1.6,1.5,3,2.9,4.1c2.9,2.3,6.6,1.4,8.2-1.9c0.4-0.8,0.7-1.6,0.8-2.5c0.6-3.5,0.5-7-0.5-10.4c-0.5-1.7-1.2-3.3-2.5-4.6
		c-3.1-3.3-7.6-2.5-9.4,1.5C198.8,487.9,198.5,489.9,198.6,491.8z"/>
	<path class="st0" d="M394.9,490.9c-5.7,0-11.3,0-16.9,0c-0.1,2.7,0.5,5.1,1.7,7.3c1.3,2.3,3.2,3.9,6,4.3c3.1,0.5,5.7-0.6,7.4-3.3
		c0.4-0.6,0.7-1.3,1-1.9c0.1-0.2,0.4-0.3,0.6-0.2c0.1,0.1,0.3,0.2,0.3,0.4c0,0.3,0,0.6-0.1,0.9c-0.6,2.2-1.6,4.1-3.3,5.8
		c-3.5,3.5-8.6,3.9-12.6,0.9c-1.4-1.1-2.6-2.4-3.3-4c-2.3-5-2.2-10.1,0.4-15c2.3-4.3,7.1-6.3,11.8-5.3
		C392.2,481.8,395.1,485.8,394.9,490.9z M383.6,489.2c1.4,0,2.9-0.1,4.3,0c1.3,0.1,1.4-0.5,1.3-1.6c-0.3-2.9-2.6-5.1-5.4-5
		c-2.9,0-5.7,2.9-5.8,5.7c0,0.8,0.4,0.9,1,0.9C380.6,489.2,382.1,489.2,383.6,489.2z"/>
	<path class="st0" d="M259.2,490.8c0,3.1,0.7,5.7,2.2,8c1.5,2.3,3.6,3.6,6.3,3.8c2.9,0.2,5.1-1,6.6-3.5c0.4-0.7,0.6-1.7,1.4-2.2
		c0.2,0.2,0.5,0.4,0.4,0.5c-0.8,4.3-3,7.5-7.2,9.1c-4,1.5-8.5-0.2-11.2-3.9c-3.5-4.9-3.4-13.3,0.4-18c2.7-3.4,7.3-4.9,11.4-3.7
		c3.8,1.1,6.5,4.6,6.7,8.5c0.1,1.1-0.4,1.4-1.4,1.3c-4.3,0-8.6,0-12.9,0C261.2,490.8,260.3,490.8,259.2,490.8z M264.7,489.2
		c1.5,0,3-0.1,4.5,0c1.3,0.1,1.5-0.5,1.3-1.6c-0.3-2.3-1.5-4.1-3.8-4.8c-2.3-0.7-4.2,0-5.8,1.7c-0.8,0.9-1.3,2-1.6,3.1
		c-0.3,1-0.2,1.5,1,1.5C261.9,489.2,263.3,489.2,264.7,489.2z"/>
	<path class="st0" d="M351,496.7c0.5,0.2,0.6,0.4,0.6,0.7c-0.8,3.4-2.3,6.3-5.3,8.3c-3.6,2.4-8.2,2-11.5-1.1
		c-5.6-5.2-5.5-15.8,0.2-20.9c3.4-3.1,8.4-3.8,12.3-1.8c1.4,0.8,2.7,1.8,3.3,3.3c0.7,1.6,0.2,3.2-1.1,3.7c-1.8,0.7-3.5-0.2-4-2
		c-0.1-0.2-0.1-0.5-0.1-0.7c-0.6-3.3-2.9-4.5-6-3.2c-1.7,0.7-2.9,2.1-3.5,3.8c-1.6,4.5-1.2,8.9,1.4,12.8c3,4.5,8.7,4.4,11.8,0
		C349.9,498.7,350.4,497.7,351,496.7z"/>
	<path class="st0" d="M201.2,358.6c-1.4-3.1-2.8-6-4.2-9c-0.4-0.8,0.2-1,0.7-1.3c1.7-1,3.5-1.9,5.2-2.9c3.1-1.7,6.3-3.5,9.4-5.2
		c1.4-0.8,1.5-0.8,2.1,0.6c1.1,2.4,2.2,4.8,3.3,7.1c0.3,0.7,0.4,1.3-0.5,1.8C211.9,352.6,206.6,355.5,201.2,358.6z"/>
	<path class="st0" d="M362.8,485.5c1-1.2,1.7-2.1,2.5-2.9c1-1.1,2.2-1.9,3.8-1.8c1.3,0,2.3,0.6,2.9,1.8c0.6,1,0.5,2-0.2,2.9
		c-0.8,0.9-1.8,1.1-2.8,0.6c-0.6-0.3-1.2-0.7-1.8-1.1c-0.8-0.5-1.5-0.5-2.1,0.2c-1.3,1.4-2.5,2.9-2.4,5c0.1,3.4,0,6.7,0,10.1
		c0,0.5,0,1,0.1,1.4c0.3,2.6,0.7,3,3.3,3.6c0.4,0.1,0.9,0,0.8,0.6c0,0.6-0.6,0.4-0.9,0.4c-3.6,0-7.2,0-10.8,0c-0.3,0-0.6,0-0.8-0.4
		c0.1-0.8,0.8-0.6,1.3-0.7c1.6-0.4,2.2-0.9,2.4-2.5c0.1-0.5,0.1-1,0.1-1.4c0-4.5,0-8.9,0-13.4c0-0.2,0-0.5,0-0.7
		c-0.2-2.3-0.6-2.7-2.9-2.6c-0.4,0-0.8,0.2-0.9-0.4c-0.1-0.4,0.3-0.6,0.5-0.7c2.1-0.9,4.3-1.8,6.4-2.6c1.1-0.4,1.3-0.1,1.4,1.1
		C362.6,483,362.4,484,362.8,485.5z"/>
	<path class="st0" d="M162.6,506.3c-3.9,0-7.6,0-11.3,0c-0.3,0-0.6-0.2-0.6-0.5c0-0.2,0.2-0.4,0.5-0.4c2.8-0.9,3-1,3.1-3.9
		c0.1-4.8,0.2-9.6-0.1-14.4c-0.2-2.6-0.3-2.6-2.9-2.5c-0.4,0-0.9,0.1-0.9-0.4c-0.1-0.4,0.3-0.5,0.6-0.6c2.1-0.9,4.1-1.8,6.2-2.5
		c1.3-0.5,1.7-0.2,1.7,1.3c0,5.7,0,11.4,0,17c0,0.7,0,1.4,0,2.2c0.1,3,0.3,3.3,3.3,4C162.3,505.4,162.4,505.6,162.6,506.3z"/>
	<path class="st0" d="M156.6,473.1c-1.5,0.1-2.8-1.1-2.8-2.6c-0.1-1.5,1.1-2.8,2.6-2.8c1.5-0.1,2.8,1.1,2.8,2.6
		C159.3,471.8,158.1,473.1,156.6,473.1z"/>
</g>
<g>
	<path class="st0" d="M286.8,112.6c1-0.5,1.8,0.3,2.6,0.6c5.4,2.3,10.9,4.5,16.7,5.8c12.3,2.7,24,1.2,34.8-5.6
		c3.1-1.9,6.3-3.9,9-6.4c1.8-1.7,1.8-1.7,0.5-3.7c-4.1-6.2-8.2-12.4-12.1-18.8C331,72.5,324.6,59.9,320,46.4
		c-1.4-4.2-2.6-8.6-3.1-13.1c-1.3-0.2-2.2,0.4-3.2,0.9c-5.4,2.3-10.8,4.3-16.7,5.2c-9.6,1.5-19,0.4-28-3.1c-3.5-1.4-3.4-1.4-4.5,2.1
		c-5.6,18.1-8.8,36.8-11.8,55.5c-1.5,9.5-2.9,19-4,28.5c-1.4,11.1-2.6,22.2-3.7,33.4c-1.5,15.5-2.5,31.1-3.6,46.6
		c-0.3,4.5-0.4,8.9-0.7,13.4c-0.1,1.3,0.4,1.7,1.6,1.7c5,0.1,9.9,0.1,14.9-0.1c11.7-0.3,23.3-0.9,35-1.6c0.8,0,1.6,0,2.4-0.1
		c0.9-0.1,1.3,0.2,1.3,1.2c0,2.4-0.1,4.8,0,7.2c0,1.2-0.5,1.3-1.5,1.2c-2.5-0.2-4.9-0.4-7.4-0.7c-20.8-2.4-41.6-3.1-62.5-2.1
		c-10.5,0.5-21.1,1.3-31.6,2.6c-3.9,0.5-3.9,0.5-3.9-3.4c0-1.5,0.1-3,0-4.6c-0.1-1.3,0.5-1.7,1.7-1.6c1.3,0.1,2.6,0.1,3.8,0.2
		c10.6,0.9,21.2,1.1,31.9,1.4c4,0.1,8,0.2,12,0.2c1.7,0,1.8,0,1.7-1.7c-0.3-10.3-0.7-20.6-1.4-30.9c-0.5-7.4-1.1-14.8-1.7-22.2
		c-0.8-9.6-1.7-19.3-2.7-28.9c-0.9-8.6-1.9-17.2-3-25.7c-1.6-12.8-3.6-25.5-6.1-38.1c-1.8-9.4-3.6-18.8-6-28.1
		c-0.4-1.5-0.9-3.1-1.4-4.6c-0.3-1.1-0.9-1.3-2-0.9c-2.8,1-5.6,2-8.5,2.6c-10.4,2.1-20.5,1.3-30.4-2.3c-2.9-1.1-5.8-2.2-8.5-3.2
		c-0.6,0.1-0.6,0.3-0.7,0.5c-1.4,9.9-5.2,19.1-9.3,28.1c-5,11.1-11.3,21.5-17.9,31.7c-2.2,3.3-4.4,6.7-6.5,10.1
		c-1,1.6-1,1.7,0.3,2.8c7.4,6.5,15.6,11.5,25.5,13.1c9.4,1.5,18.5,0.3,27.3-3c2.6-1,5.2-2.2,7.7-3.2c0.9-0.4,1.9-0.8,3-1.2
		c0.1,0.8-0.4,1.1-0.8,1.4c-7.7,7-16.9,10.4-27.2,11c-16,0.9-30.7-3.2-44.5-11.2c-2.9-1.7-2.9-1.7-0.8-4.2
		c9.9-12.3,18.9-25.2,25.6-39.6c3.3-7.2,6.2-14.6,7.6-22.4c1.1-6.4,1.5-12.7-0.5-19c-0.1-0.3-0.1-0.6-0.1-0.9c0-0.1,0.1-0.3,0.1-0.5
		c11.5,5.8,23.9,7.9,36.5,8.4c12.8,0.5,25.1-1.8,36.8-7.5c-0.8,1.3-2.1,1.8-3.2,2.6c-2.4,1.5-2.4,1.5-1.8,4.2
		c1.1,4.7,2.2,9.3,3.2,14c2.2,9.7,3.7,19.5,5.2,29.3c1.6,10.5,2.7,21.1,3.7,31.7c0.7,7.9,1.1,15.8,1.5,23.7
		c0.3,6.2,0.4,12.5,0.6,18.7c0,0.6-0.2,1.3,0.4,2c0.4-1.9,0.4-3.6,0.4-5.3c0.2-12,1.3-24,2.4-35.9c0.7-7.6,1.3-15.3,2.5-22.9
		c2.7-18.1,6.5-35.8,13.2-52.9c0.2-0.6,0.5-1.2,0.7-1.8c1-2.8,1-2.8-1.7-4.4c-1.1-0.6-2.3-1.1-3-2.4c11.7,5.2,23.9,7.6,36.5,7
		c12.5-0.6,24.8-2.4,36.3-8.5c0.1,1.6-0.5,2.9-0.7,4.3c-1.3,7.8-0.4,15.5,1.7,23c2.8,9.8,7.3,18.9,12.5,27.7
		c6,10.2,12.9,19.8,20.2,29.1c0.6,0.8,0.6,1.2-0.2,1.7c-0.8,0.5-1.6,1.1-2.4,1.5c-9.9,5.3-20.2,9.3-31.4,10.4
		c-8.1,0.8-16.2,0.6-24-1.9c-5.4-1.7-10.2-4.5-14.7-8C287.8,114.1,287,113.6,286.8,112.6L286.8,112.6z"/>
	<path class="st0" d="M144.7,226c1.4-0.4,2.7-0.3,4-0.2c14.5,0.4,28.9,1.1,43.4,1.3c32.5,0.5,64.9,0.6,97.4,0.1
		c15.9-0.2,31.8-0.9,47.7-1.3c3-0.1,2.7-0.3,2.7,2.6c0,1.4-0.1,2.9-0.1,4.3c-0.1,3,0.4,2.8-2.9,2.7c-3.5-0.1-7-0.3-10.5-0.6
		c-8.1-0.7-16.3-0.8-24.4-1.2c-28.2-1.4-56.4-1.5-84.7-0.9c-18.2,0.4-36.5,0.9-54.7,1.9c-4.9,0.3-9.9,0.8-14.8,0.9
		c-0.6,0-1.3,0-1.9,0c-0.9,0-1.1-0.4-1.1-1.2C144.8,231.6,144.7,228.8,144.7,226z"/>
	<path class="st0" d="M315.8,38c0.8,1.3,0.7,2.5,0.8,3.7c0.4,7.3-0.4,14.5-2.5,21.5c-5.1,17-13.6,32-26.2,44.5
		c-1.2,1.2-2.4,2.3-4.3,3.4c0.7-1.2,1.1-1.9,1.5-2.6c6.2-9.4,12-19.1,17-29.2c5.3-10.9,9.9-22,12.4-33.9
		C314.9,43.2,315.3,40.7,315.8,38z"/>
	<path class="st0" d="M200.5,110.2c-0.7,0.6-1-0.2-1.3-0.5c-2-1.7-3.9-3.5-5.7-5.5c-10.8-12-18.5-25.8-22.9-41.3
		c-2.1-7.5-2.5-15.3-2.1-23.1c0-0.3,0.1-0.6,0.1-0.9c0,0,0.1-0.1,0.4-0.2c0.3,1.9,0.6,3.7,1,5.6c1.7,9.2,4.9,17.8,8.7,26.3
		c5.6,12.5,12.3,24.4,19.7,35.9C199,107.7,200,108.8,200.5,110.2L200.5,110.2z"/>
	<path class="st0" d="M286.8,112.6c-0.2-0.3-0.3,0.2-0.2-0.1c0,0,0.1-0.1,0.1-0.1C286.9,112.4,286.9,112.5,286.8,112.6
		C286.8,112.6,286.8,112.6,286.8,112.6z"/>
	<path class="st0" d="M200.4,110.2c0.1,0.1,0.2,0.2,0.3,0.3c-0.1,0-0.2,0-0.3,0C200.4,110.4,200.4,110.3,200.4,110.2
		C200.5,110.2,200.4,110.2,200.4,110.2z"/>
</g>
</svg>
