<svg width="485.3" height="532.4" xmlns="http://www.w3.org/2000/svg">
 <style type="text/css">.st0{fill:#FFFFFF;}</style>

 <g>
  <title>background</title>
  <rect fill="none" id="canvas_background" height="402" width="582" y="-1" x="-1"/>
 </g>
 <g>
  <title>Layer 1</title>
  <g id="svg_33">
   <path id="svg_34" d="m291.749969,112.599998c1,-0.5 1.799988,0.300003 2.600006,0.599998c5.399994,2.300003 10.899994,4.5 16.699982,5.800003c12.300018,2.699997 24,1.199997 34.800018,-5.599998c3.100006,-1.900002 6.299988,-3.900002 9,-6.400002c1.799988,-1.699997 1.799988,-1.699997 0.5,-3.699997c-4.100006,-6.200005 -8.200012,-12.400002 -12.100006,-18.800003c-7.299988,-12 -13.699982,-24.599998 -18.299988,-38.099998c-1.399994,-4.200001 -2.600006,-8.600002 -3.100006,-13.100002c-1.299988,-0.200001 -2.199982,0.400002 -3.199982,0.900002c-5.400024,2.299999 -10.800018,4.299999 -16.700012,5.200001c-9.600006,1.5 -19,0.399998 -28,-3.100002c-3.5,-1.399998 -3.399994,-1.399998 -4.5,2.100002c-5.600006,18.099998 -8.800018,36.799995 -11.800018,55.5c-1.5,9.5 -2.899979,19 -3.999985,28.5c-1.399994,11.099998 -2.599976,22.200005 -3.699982,33.400002c-1.5,15.5 -2.5,31.099991 -3.600006,46.599991c-0.299988,4.5 -0.399994,8.900009 -0.699997,13.400009c-0.099991,1.300003 0.400009,1.699997 1.599991,1.699997c5,0.100006 9.899979,0.100006 14.900009,-0.100006c11.699982,-0.299988 23.299988,-0.899994 35,-1.599991c0.799988,0 1.599976,0 2.399994,-0.100006c0.899994,-0.099991 1.299988,0.199997 1.299988,1.199997c0,2.400009 -0.100006,4.800003 0,7.200012c0,1.199997 -0.5,1.299988 -1.5,1.199997c-2.5,-0.199997 -4.899994,-0.400009 -7.399994,-0.699997c-20.799988,-2.400009 -41.599991,-3.100006 -62.499985,-2.100006c-10.5,0.5 -21.100006,1.300003 -31.600006,2.600006c-3.899994,0.5 -3.899994,0.5 -3.899994,-3.400009c0,-1.5 0.100006,-3 0,-4.599991c-0.100006,-1.300003 0.5,-1.700012 1.699997,-1.600006c1.300003,0.100006 2.600006,0.100006 3.800003,0.199997c10.600006,0.900009 21.199997,1.100006 31.899994,1.400009c4,0.099991 8,0.199997 12,0.199997c1.700012,0 1.800003,0 1.700012,-1.699997c-0.300003,-10.300003 -0.700012,-20.600006 -1.400009,-30.900009c-0.5,-7.399994 -1.099991,-14.800003 -1.699997,-22.199997c-0.800003,-9.600006 -1.699997,-19.300003 -2.699997,-28.899994c-0.900009,-8.600006 -1.900009,-17.200005 -3,-25.700005c-1.600006,-12.800003 -3.600006,-25.5 -6.100006,-38.099998c-1.800003,-9.400002 -3.599991,-18.800003 -6,-28.100002c-0.399994,-1.5 -0.899994,-3.100002 -1.399994,-4.600002c-0.300003,-1.099998 -0.900009,-1.299999 -2,-0.899998c-2.800003,1 -5.600006,2 -8.5,2.599998c-10.400009,2.100002 -20.5,1.299999 -30.400009,-2.299999c-2.899994,-1.099998 -5.799988,-2.200001 -8.5,-3.200001c-0.599991,0.100002 -0.599991,0.299999 -0.699997,0.5c-1.399994,9.900002 -5.199997,19.100002 -9.300003,28.100002c-5,11.099998 -11.299988,21.5 -17.899994,31.699997c-2.199997,3.300003 -4.399994,6.700005 -6.5,10.099998c-1,1.600006 -1,1.700005 0.300003,2.800003c7.399994,6.5 15.599991,11.5 25.5,13.099998c9.399994,1.5 18.5,0.300003 27.300003,-3c2.599991,-1 5.199997,-2.199997 7.699997,-3.199997c0.899994,-0.400002 1.899994,-0.800003 3,-1.200005c0.099991,0.800003 -0.400009,1.100006 -0.800003,1.400002c-7.699997,7 -16.899994,10.400002 -27.199997,11c-16,0.900002 -30.699997,-3.199997 -44.5,-11.199997c-2.900017,-1.700005 -2.900017,-1.700005 -0.800003,-4.200005c9.899994,-12.299995 18.899994,-25.199997 25.600006,-39.599998c3.299988,-7.199997 6.199997,-14.599998 7.599991,-22.399998c1.100006,-6.400002 1.5,-12.699989 -0.5,-19c-0.099991,-0.300001 -0.099991,-0.6 -0.099991,-0.900002c0,-0.099998 0.099991,-0.299999 0.099991,-0.5c11.5,5.800011 23.900009,7.900002 36.5,8.400002c12.800003,0.5 25.100006,-1.799999 36.800003,-7.5c-0.800003,1.299999 -2.100006,1.799999 -3.199997,2.599998c-2.400009,1.5 -2.400009,1.5 -1.800003,4.200001c1.100006,4.700001 2.199997,9.299999 3.199997,14c2.199997,9.700001 3.699997,19.5 5.199997,29.300003c1.600006,10.5 2.700012,21.099998 3.700012,31.699997c0.699997,7.900002 1.099991,15.800003 1.5,23.699997c0.299988,6.199997 0.399994,12.5 0.599991,18.700012c0,0.600006 -0.199997,1.300003 0.400009,2c0.399994,-1.899994 0.399994,-3.600006 0.399994,-5.300003c0.199997,-12 1.299988,-23.999992 2.399994,-35.900009c0.700012,-7.599998 1.299988,-15.299995 2.5,-22.899994c2.700012,-18.100006 6.499985,-35.799992 13.199997,-52.900002c0.199982,-0.600002 0.5,-1.200001 0.699982,-1.800003c1,-2.799999 1,-2.799999 -1.699982,-4.399998c-1.100006,-0.6 -2.300018,-1.1 -3,-2.400002c11.699982,5.200001 23.899994,7.600002 36.5,7c12.5,-0.599998 24.799988,-2.399998 36.299988,-8.5c0.100006,1.6 -0.5,2.900002 -0.699982,4.300001c-1.300018,7.800001 -0.400024,15.499998 1.699982,22.999998c2.800018,9.800003 7.300018,18.900002 12.5,27.700005c6,10.199997 12.899994,19.799995 20.200012,29.099998c0.600006,0.799995 0.600006,1.199997 -0.200012,1.699997c-0.799988,0.5 -1.600006,1.099998 -2.399994,1.5c-9.899994,5.300003 -20.200012,9.300003 -31.399994,10.400002c-8.100006,0.800003 -16.200012,0.599998 -24,-1.900002c-5.399994,-1.699997 -10.200012,-4.5 -14.700012,-8c-0.600006,-0.5 -1.399994,-1 -1.600006,-2l0,0z" class="st0"/>
   <path id="svg_35" d="m149.649994,226c1.400009,-0.399994 2.699997,-0.300003 4,-0.199997c14.5,0.399994 28.900009,1.099991 43.400009,1.300003c32.5,0.5 64.899979,0.599991 97.399979,0.099991c15.899994,-0.199997 31.799988,-0.899994 47.700012,-1.300003c3,-0.099991 2.699982,-0.299988 2.699982,2.600006c0,1.399994 -0.100006,2.899994 -0.100006,4.300003c-0.099976,3 0.400024,2.800003 -2.899994,2.699997c-3.5,-0.100006 -7,-0.300003 -10.5,-0.600006c-8.100006,-0.699997 -16.299988,-0.799988 -24.399994,-1.199997c-28.200012,-1.399994 -56.399979,-1.5 -84.699982,-0.899994c-18.199997,0.399994 -36.5,0.899994 -54.699997,1.899994c-4.900009,0.300003 -9.900009,0.800003 -14.800003,0.900009c-0.600006,0 -1.300003,0 -1.900009,0c-0.899994,0 -1.099991,-0.400009 -1.099991,-1.200012c0,-2.799988 -0.100006,-5.599991 -0.100006,-8.399994z" class="st0"/>
   <path id="svg_36" d="m320.749969,38c0.799988,1.299999 0.700012,2.5 0.799988,3.700001c0.400024,7.299999 -0.399994,14.5 -2.5,21.5c-5.099976,16.999996 -13.599976,31.999996 -26.199982,44.499996c-1.200012,1.200005 -2.399994,2.300003 -4.300018,3.400002c0.700012,-1.199997 1.100006,-1.900002 1.5,-2.599998c6.200012,-9.400002 12,-19.099998 17,-29.199997c5.300018,-10.900002 9.900024,-22.000004 12.400024,-33.900002c0.399994,-2.200001 0.799988,-4.700001 1.299988,-7.400002z" class="st0"/>
   <path id="svg_37" d="m205.449997,110.199997c-0.699997,0.600006 -1,-0.199997 -1.300003,-0.5c-2,-1.699997 -3.899994,-3.5 -5.699997,-5.5c-10.800003,-12 -18.5,-25.799995 -22.899994,-41.299995c-2.100006,-7.5 -2.5,-15.300003 -2.100006,-23.100002c0,-0.299999 0.100006,-0.599998 0.100006,-0.899998c0,0 0.099991,-0.100002 0.399994,-0.200001c0.300003,1.899998 0.600006,3.700001 1,5.599998c1.699997,9.200001 4.899994,17.799999 8.699997,26.299999c5.600006,12.5 12.300003,24.400002 19.699997,35.900002c0.600006,1.199997 1.600006,2.300003 2.100006,3.699997l0,0z" class="st0"/>
   <path id="svg_38" d="m291.749969,112.599998c-0.200012,-0.299995 -0.299988,0.200005 -0.200012,-0.099998c0,0 0.100006,-0.099998 0.100006,-0.099998c0.200012,0 0.200012,0.099998 0.100006,0.199997c0,0 0,0 0,0z" class="st0"/>
   <path id="svg_39" d="m205.349991,110.199997c0.099991,0.100006 0.199997,0.200005 0.300003,0.300003c-0.100006,0 -0.200012,0 -0.300003,0c0,-0.099998 0,-0.199997 0,-0.300003c0.100006,0 0,0 0,0z" class="st0"/>
  </g>
  <g id="svg_40">
   <path id="svg_8" d="m422.699982,274.100006c14.700012,0 26.299988,11.700012 26.5,26.300018c0.200012,13.899963 -11.399994,26.699982 -26.399994,26.699982c-15.300018,0.100006 -26.600006,-13 -26.700012,-26.5c0.000031,-13.5 11.400024,-26.600006 26.600006,-26.5zm-0.099976,45.899994c10.899994,0 19.600006,-8.5 19.700012,-19.299988c0.099976,-10.800018 -8.700012,-19.600006 -19.400024,-19.600006c-10.899994,0 -19.599976,8.5 -19.599976,19.399994c-0.200012,10.799988 8.499969,19.5 19.299988,19.5z" class="st0"/>
   <path id="svg_9" d="m92.800003,300.600006c-0.099998,-14.699982 11.699997,-26.5 26.499992,-26.5c14.599998,0 26.400002,11.700012 26.499992,26.300018c0,14.699982 -11.699997,26.599976 -26.399986,26.699982c-14.699997,0 -26.5,-11.700012 -26.599998,-26.5zm45.899994,0.100006c0.399994,-10.700012 -9,-19.600006 -19.099998,-19.600006c-11,0 -19.799995,8.5 -19.899994,19.399994c0,10.900024 8.5,19.5 19.399994,19.600006c10.999992,0 19.599998,-8.5 19.599998,-19.399994z" class="st0"/>
   <path id="svg_10" d="m237.799988,304.100006c-4,0 -7.800003,0 -11.600006,0c-2.099991,0 -2.099991,0 -2.099991,-2.100006c0,-1.5 -0.600006,-3.5 0.299988,-4.399994c1,-1.100006 3,-0.399994 4.600006,-0.399994c4.899994,-0.100006 9.800003,0 14.600006,0c0.899994,0 1.5,0 1.599991,1.200012c0.699997,14.299988 -8.300003,24.799988 -19.699997,27.799988c-18.300003,4.799988 -34.899994,-10.100006 -33.199997,-27.799988c1,-10.600006 6.599991,-18.300018 16.5,-22.200012c9.800003,-3.899994 19,-2.200012 27.199997,4.5c0.399994,0.299988 0.800003,0.600006 1,1.100006c-0.100006,0.699982 -0.699997,1 -1.199997,1.399994c-1.100006,1.100006 -2,2.700012 -3.300003,3c-1.199997,0.299988 -2.199997,-1.5 -3.5,-2.200012c-7.300003,-4.099976 -14.5,-4 -21.5,0.600006c-6.5,4.300018 -9.699997,12.399994 -8,19.899994c1.800003,8.300018 7,13.600006 15.300003,15.300018c12.300003,2.499969 21.600006,-6.500031 23,-15.700012z" class="st0"/>
   <path id="svg_11" d="m272.799988,313.100006c3.5,4.5 7.100006,9 11,14c-3.300018,0 -6.100006,0 -8.899994,0c-0.900024,0 -1.200012,-0.699982 -1.600006,-1.299988c-2.399994,-3.100006 -4.899994,-6.100006 -7.300018,-9.200012c-0.699982,-1 -1.5,-1.5 -2.799988,-1.399994c-1.299988,0.100006 -2.700012,0 -4.100006,0c-2,0 -2,0 -2,2.100006c0,2.699982 -0.100006,5.399994 0,8.199982c0,1.300018 -0.5,1.700012 -1.699982,1.600006c-1.600006,-0.100006 -3.200012,0 -4.800018,0c-0.799988,0 -1.199982,-0.299988 -1.100006,-1.100006c0,-0.5 0,-1 0,-1.399994c0,-16 0,-32 0,-48c0,-0.5 0,-1 0,-1.399994c0,-0.700012 0.400024,-1 1,-1c5.300018,0.100006 10.700012,-0.5 16,0.399994c8.900024,1.399994 16.100006,9.600006 16.600006,18.600006c0.5,7.899994 -2.600006,14.100006 -9,18.700012c-0.399994,0.199982 -0.999969,0.399963 -1.299988,1.199982zm-15.699982,-18.399994c0,3.799988 0,7.700012 0,11.5c0,1.299988 0.399994,1.700012 1.600006,1.600006c1.899994,-0.100006 3.799988,0.100006 5.699982,-0.200012c6.100006,-0.799988 10.900024,-5.899994 11.300018,-12.100006c0.399994,-6.299988 -3.800018,-12 -9.899994,-13.5c-2.400024,-0.599976 -4.800018,-0.199982 -7.200012,-0.399994c-1.299988,-0.100006 -1.700012,0.399994 -1.600006,1.600006c0.100006,3.799988 0.100006,7.599976 0.100006,11.5z" class="st0"/>
   <path id="svg_12" d="m187.799988,326.600006c-10.100006,-11.199982 -20.300003,-22.399994 -30.400009,-33.600006c-0.799988,0.600006 -0.5,1.400024 -0.5,2c0,9.800018 0,19.5 0,29.300018c0,0.600006 0,1.299988 0,1.899994c0,0.600006 -0.299988,0.899994 -0.899994,0.899994c-1.800003,0 -3.5,0 -5.300003,0c-0.699997,0 -1,-0.299988 -1,-1c0,-0.399994 0,-0.799988 0,-1.199982c0,-16.200012 0,-32.5 0,-48.700012c0,-0.5 0,-0.899994 0,-1.299988c0.199997,-0.100006 0.300003,-0.100006 0.400009,-0.200012c0.099991,0 0.199997,0 0.199997,0.100006c10.099991,10.899994 20.199997,21.799988 30.399994,32.799988c0.699997,-0.799988 0.400009,-1.699982 0.400009,-2.5c0,-9.399994 0,-18.700012 0,-28.100006c0,-0.600006 0,-1.100006 0,-1.700012c-0.100006,-0.899994 0.399994,-1.299988 1.299988,-1.199982c1.900009,0.199982 3.800003,-0.399994 5.700012,0.299988c0.399994,1.700012 0.199997,3.300018 0.199997,5c0,14.899994 0,29.700012 0,44.600006c0,0.799988 0,1.600006 0,2.399994c-0.299988,0 -0.399994,0.100006 -0.5,0.200012z" class="st0"/>
   <path id="svg_15" d="m318.100006,320.200012c0,1.799988 0,3.700012 0,5.600006c0,1.100006 -0.5,1.299988 -1.5,1.299988c-2.100006,0 -4.200012,0 -6.200012,0c-7,0 -14.099976,0 -21.099976,0c-1.800018,0 -1.800018,0 -1.800018,-1.799988c0,-16.5 0,-33 0,-49.399994c0,-1.700012 0,-1.700012 1.800018,-1.700012c9,0 18.099976,0 27.099976,0c1.700012,0 1.800018,0 1.800018,1.700012c0,1.399994 0,2.899994 0,4.299988c0,0.899994 -0.399994,1.299988 -1.300018,1.299988c-0.599976,0 -1.099976,0 -1.699982,0c-6.200012,0 -12.300018,0 -18.5,0c-2,0 -2,0 -2,1.900024c0,6.899994 0,13.799988 0,20.599976c0,2 0,2 1.899994,2c4.700012,0 9.399994,0 14.200012,0c2,0 2,0 2,1.900024c0,1.299988 -0.100006,2.599976 0,3.799988c0.099976,1.200012 -0.400024,1.5 -1.5,1.5c-4.600006,0 -9.300018,0 -13.900024,0c-0.599976,0 -1.099976,0 -1.699982,0c-0.700012,0 -1,0.399994 -1,1c0,0.200012 0,0.299988 0,0.5c0.100006,1.600006 -0.600006,3.600006 0.299988,4.700012c1,1.199982 3,0.399994 4.600006,0.399994c5.700012,0.100006 11.399994,0 17,0c0.399994,-0.000031 0.899994,-0.000031 1.5,0.399994z" class="st0"/>
   <path id="svg_16" d="m385.399994,291.700012c-0.100006,-0.899994 -0.299988,-1.600006 -0.399994,-2.299988c-0.899994,-5.400024 -4.600006,-8.400024 -10.100006,-8.100006c-5.100006,0.199982 -8.799988,4.199982 -8.700012,9.299988c0.100006,2.700012 1.5,4.600006 3.800018,6c2,1.200012 4.199982,1.5 6.399994,1.800018c2.600006,0.299988 5,0.899994 7.399994,2c4.899994,2.299988 7.700012,6.099976 8.100006,11.5c0.5,5.599976 -1.899994,9.899994 -6.600006,12.599976c-6.399994,3.700012 -13,3.800018 -19.299988,-0.199982c-4,-2.5 -6.100006,-6.200012 -6.399994,-11c-0.100006,-1 0.099976,-1.5 1.299988,-1.399994c0.700012,0.099976 1.399994,0 2.200012,0c1,0 2.199982,-0.200012 3.099976,0.099976c1.200012,0.400024 0.600006,1.800018 1,2.700012c1.200012,2.899994 3.400024,4.299988 6.300018,5c2.899994,0.600006 5.600006,0.100006 8.100006,-1.399994c1.399994,-0.800018 2.399994,-2 2.899994,-3.700012c1,-3.100006 0.100006,-5.699982 -2.800018,-7.399994c-1.699982,-1 -3.5,-1.399994 -5.399994,-1.700012c-2.600006,-0.299988 -5.199982,-0.799988 -7.699982,-1.799988c-7,-2.899994 -10.400024,-8.700012 -9.300018,-16.200012c1.100006,-7.199982 6.600006,-12.599976 13.700012,-13.299988c3.199982,-0.299988 6.399994,-0.100006 9.399994,1.299988c6.399994,2.900024 9.399994,8.100006 9.799988,15c0.100006,1 -0.299988,1.200012 -1.199982,1.200012c-1.800018,0 -3.600006,0 -5.600006,0z" class="st0"/>
   <path id="svg_17" d="m329.5,311.899994c1.5,7.299988 8.399994,10.299988 14.700012,6.600006c1.699982,-1 2.899994,-2.400024 3.399994,-4.400024c0.600006,-3 -0.200012,-5.099976 -2.899994,-6.699982c-1.700012,-1 -3.700012,-1.5 -5.700012,-1.800018c-2.699982,-0.399994 -5.399994,-0.799988 -7.899994,-1.899994c-6.600006,-2.899994 -10.100006,-8.899994 -9,-15.5c1.200012,-7.699982 6.600006,-13.100006 13.799988,-13.799988c5.700012,-0.600006 10.800018,0.699982 14.800018,5c2.899994,3.100006 4.199982,6.899994 4.399994,11.100006c0,0.899994 -0.100006,1.299988 -1.200012,1.299988c-1.5,-0.100006 -3,-0.100006 -4.599976,0c-1,0 -1.5,-0.200012 -1.5,-1.299988c0,-0.600006 -0.100006,-1.300018 -0.200012,-1.900024c-1.399994,-6.299988 -9,-9.5 -14.399994,-6c-3.100006,2 -4.300018,5.100006 -4.100006,8.700012c0.299988,3.200012 2.600006,5 5.399994,6.100006c1.600006,0.600006 3.200012,0.799988 4.899994,1.100006c2.900024,0.399994 5.600006,1.099976 8.200012,2.399994c8.100006,4.100006 10.100006,16.5 2,22.699982c-6.200012,4.700012 -15.799988,4.800018 -21.899994,-0.099976c-3.300018,-2.600006 -4.899994,-6 -5.300018,-10.100006c-0.099976,-1 0.100006,-1.5 1.200012,-1.5c2.099976,0 4,0 5.899994,0z" class="st0"/>
   <path id="svg_19" d="m87.300003,315.100006c1.599998,1.600006 3.099998,3.200012 4.599998,4.700012c-7.800003,8.399994 -24.199997,10.799988 -35.800003,0.299988c-11,-10 -11.5,-27.399994 -1.099998,-38c11,-11.299988 28.200005,-9.699982 37.099998,-0.699982c-1.199997,1.199982 -2.399994,2.299988 -3.5,3.5c-0.799995,0.899994 -1.399994,1.099976 -2.5,0.199982c-3.899994,-3.199982 -8.399994,-4.399994 -13.399994,-4.100006c-9.5,0.5 -17.600006,8.600006 -18.200005,18.200012c-0.699997,11.100006 7.300003,18.899994 15.200005,20.5c5.699997,1.100006 11,0.200012 15.699997,-3.200012c0.699997,-0.399994 1.199997,-0.799988 1.900002,-1.399994z" class="st0"/>
  </g>
  <g id="svg_41">
   <path id="svg_2" d="m374.349976,400.299988c-0.5,-21.299988 17.700012,-40.100006 40.100006,-40c22.399994,0.100006 40,19.100006 39.899994,40.100006c0,20.899994 -17.5,40 -40,40c-22.299988,0.100006 -40.5,-18.799988 -40,-40.100006zm69.5,-0.099976c-0.100006,-16.5 -13.200012,-29.299988 -29.700012,-29.399994c-15.699982,-0.100006 -29.399994,13.399994 -29.299988,29.600006c0.100006,15.399994 12.600006,29.399994 29.5,29.399994c16.800018,-0.000031 29.900024,-14.100006 29.5,-29.600006z" class="st0"/>
   <path id="svg_3" d="m186.449982,418.799988c5.599991,7.200012 11.099991,14.200012 16.599991,21.100006c-0.5,0.799988 -1.099991,0.5 -1.599991,0.5c-3.5,0 -7,0 -10.600006,0c-1.300003,0 -2.199997,-0.399994 -3,-1.399994c-3.800003,-4.900024 -7.800003,-9.700012 -11.599991,-14.700012c-1,-1.299988 -2.100006,-1.899994 -3.800003,-1.799988c-2.600006,0.099976 -5.300003,0.099976 -7.900009,0c-1.199997,0 -1.599991,0.399994 -1.599991,1.599976c0.099991,4.700012 0,9.400024 0,14.200012c0,2.299988 0,2.100006 -2.100006,2.100006c-2.399994,0 -4.800003,0 -7.199997,0c-1.899994,0 -1.899994,0 -1.899994,-2c0,-0.200012 0,-0.5 0,-0.700012c0,-24.899994 0,-49.699982 0,-74.600006c0,-3.099976 -0.300003,-2.699982 2.699997,-2.699982c5.800003,0 11.699997,0 17.5,0c16.099991,0.100006 27.099991,12.199982 29.699997,23.199982c3.100006,13.100006 -1.199997,25.700012 -12.899994,33.800018c-0.800003,0.399994 -1.399994,0.800018 -2.300003,1.399994zm-23.5,-27.599976c0,6.100006 0,12.100006 0,18.200012c0,1.699982 0,1.699982 1.699997,1.699982c2.199997,0 4.300003,-0.100006 6.5,0c10.600006,0.5 20.800003,-9 20.100006,-20.899994c-0.5,-9.600006 -8.5,-18 -18.100006,-18.5c-2.800003,-0.200012 -5.600006,-0.100006 -8.399994,-0.100006c-1.800003,0 -1.800003,0 -1.900009,1.800018c0.100006,5.999969 0.100006,11.899963 0.100006,17.799988z" class="st0"/>
   <path id="svg_4" d="m225.449982,400.100006c0,-12.199982 0,-24.5 0,-36.699982c0,-0.5 0,-1 0,-1.400024c-0.100006,-1.199982 0.300003,-1.699982 1.599991,-1.699982c2.800003,0.100006 5.600006,0 8.400009,0c4.399994,0.100006 8.800003,-0.200012 13.199997,0.299988c16.900009,2 31.199997,15.200012 34.300003,31.899994c4.199982,22.399994 -10.200012,43.200012 -32.600006,47.200012c-2,0.399994 -4.099991,0.5 -6.199997,0.600006c-5.5,0.100006 -11,0 -16.600006,0c-2.099991,0 -2.099991,0 -2.099991,-2.100006c0,-12.600006 0,-25.400024 0,-38.100006zm11,0.199982c0,2.700012 0,5.399994 0,8.200012c0,6.399994 0,12.799988 0,19.199982c0,1.200012 0.300003,1.700012 1.599991,1.700012c3,-0.100006 5.900009,0.100006 8.900009,-0.300018c19.600006,-2.099976 32.100006,-23.599976 22.199982,-42.299988c-5.899994,-11.100006 -18.599991,-17.100006 -31.699982,-15.299988c-0.699997,0.099976 -1,0.399994 -1,1c0,0.599976 0,1.099976 0,1.699982c0,8.600006 0,17.300018 0,26.100006z" class="st0"/>
   <path id="svg_5" d="m95.649979,360.299988c0.400002,1.200012 0.200005,2.100006 0.200005,2.899994c0,15.399994 0,30.899994 0,46.300018c0,6.5 2.299995,11.899994 7.5,15.799988c6.099998,4.600006 12.799995,5.399994 19.699997,2.200012c6.900002,-3.200012 10.900002,-8.900024 11.000008,-16.600006c0.199997,-15.899994 0,-31.800018 0.100006,-47.700012c0,-3.199982 -0.400009,-2.799988 2.799988,-2.799988c2.300003,0 4.600006,0 7,0c0.900009,0 1.300003,0.299988 1.300003,1.299988c0,0.300018 0,0.600006 0,1c0,16.100006 0,32.100006 0,48.200012c-0.099991,12.299988 -8.099991,23.600006 -19.600006,27.799988c-17.799995,6.399994 -37,-4.699982 -40.099998,-23.299988c-0.300003,-1.800018 -0.300003,-3.700012 -0.300003,-5.5c0,-15.700012 0,-31.300018 0,-47c0,-0.5 0,-1 0,-1.399994c0,-0.700012 0.400002,-1 1,-1c2.900002,-0.100006 6.100006,-0.200012 9.400002,-0.200012z" class="st0"/>
   <path id="svg_6" d="m366.049988,422.399994c2.399994,2.399994 4.799988,4.799988 7.100006,7.199982c-12.100006,12.600006 -36.800018,16 -54.100006,0.200012c-16.899994,-15.399994 -17.299988,-42.299988 -0.700012,-58.200012c17.300018,-16.599976 42.400024,-13.199982 55.100006,-0.199982c-2.100006,2.100006 -4.299988,4.299988 -6.399994,6.399994c-0.700012,0.700012 -1.100006,0.5 -1.799988,-0.100006c-3.400024,-2.899994 -7.200012,-4.899994 -11.600006,-6.100006c-17.399994,-4.599976 -34.800018,7.200012 -36.899994,25c-1.5,12 4.099976,23.5 14.599976,29.300018c11.100006,6.100006 22.100006,5.299988 32.5,-1.899994c0.900024,-0.5 1.600006,-1.100006 2.200012,-1.600006z" class="st0"/>
   <path id="svg_7" d="m79.04998,383.700012c-0.099998,6.899994 0.199997,13.799988 -0.199997,20.600006c-1,16.600006 -14.5,32 -30.800003,35.199982c-2.099998,0.400024 -4.299995,0.600006 -6.400002,0.800018c-2,0.199982 -2,0.100006 -2.099998,-1.800018c0,-2.399994 0,-4.799988 0,-7.199982c0,-1.800018 0,-1.800018 1.800003,-1.899994c8.5,-0.600006 15.400002,-4.300018 20.799995,-10.900024c4.200005,-5.199982 6,-11.199982 6,-17.799988c0,-12.5 0,-24.899994 0,-37.399994c0,-3.399994 -0.399994,-2.800018 3,-2.899994c1.800003,0 3.700005,0 5.5,0c2.200005,0 2.400002,-0.5 2.400002,2.299988c0,5.299988 0,10.600006 0,15.799988c0,1.700012 0,3.5 0,5.200012z" class="st0"/>
   <path id="svg_13" d="m208.649994,400.399994c0,-12.399994 0,-24.800018 0,-37.200012c0,-0.600006 0,-1.100006 0,-1.699982c0,-0.800018 0.199997,-1.200012 1.100006,-1.200012c3,0 5.899994,0 8.899994,0c0.699997,0 1,0.399994 1,1c0,0.600006 0,1.100006 0,1.700012c0,24.899994 0,49.699982 0,74.599976c0,0.5 0,1 0,1.400024c0.100006,1.099976 -0.399994,1.399994 -1.399994,1.299988c-2.699997,0 -5.400009,-0.100006 -8.199997,0c-1.100006,0 -1.400009,-0.399994 -1.400009,-1.399994c0,-2.600006 0,-5.300018 0,-7.899994c0,-10.200012 0,-20.399994 0,-30.600006z" class="st0"/>
   <path id="svg_18" d="m289.549988,400.399994c0,-12.399994 0,-24.800018 0,-37.200012c0,-0.600006 0,-1.100006 0,-1.699982c0,-0.800018 0.200012,-1.200012 1.100006,-1.200012c2.899994,0 5.799988,0 8.600006,0c0.799988,0 1.199982,0.299988 1.099976,1.100006c0,0.600006 0,1.100006 0,1.699982c0,24.800018 0,49.600006 0,74.400024c0,3.299988 0.200012,2.799988 -2.799988,2.799988c-2.200012,0 -4.5,0 -6.700012,0c-1.099976,0 -1.399994,-0.399994 -1.399994,-1.399994c0,-0.600006 0,-1.100006 0,-1.700012c0.100006,-12.199982 0.100006,-24.499969 0.100006,-36.799988z" class="st0"/>
   <path id="svg_29" d="m206.249985,358.600006c-1.399994,-3.100006 -2.800003,-6 -4.199997,-9c-0.399994,-0.799988 0.199997,-1 0.699997,-1.299988c1.699997,-1 3.5,-1.899994 5.199997,-2.899994c3.100006,-1.700012 6.300003,-3.5 9.400009,-5.200012c1.399994,-0.799988 1.5,-0.799988 2.099991,0.600006c1.100006,2.399994 2.200012,4.799988 3.300003,7.100006c0.300003,0.699982 0.400009,1.299988 -0.5,1.799988c-5.300003,2.899994 -10.599991,5.799988 -16,8.899994z" class="st0"/>
  </g>
 </g>
</svg>