<?xml version="1.0" encoding="UTF-8" standalone="no"?>
<!-- Creator: CorelDRAW X8 -->

<svg
   xmlns:dc="http://purl.org/dc/elements/1.1/"
   xmlns:cc="http://creativecommons.org/ns#"
   xmlns:rdf="http://www.w3.org/1999/02/22-rdf-syntax-ns#"
   xmlns:svg="http://www.w3.org/2000/svg"
   xmlns="http://www.w3.org/2000/svg"
   xmlns:xlink="http://www.w3.org/1999/xlink"
   xmlns:sodipodi="http://sodipodi.sourceforge.net/DTD/sodipodi-0.dtd"
   xmlns:inkscape="http://www.inkscape.org/namespaces/inkscape"
   xml:space="preserve"
   width="420mm"
   height="297mm"
   version="1.1"
   style="shape-rendering:geometricPrecision; text-rendering:geometricPrecision; image-rendering:optimizeQuality; fill-rule:evenodd; clip-rule:evenodd"
   viewBox="0 0 42000 29700"
   id="svg2"
   inkscape:version="0.91 r13725"
   sodipodi:docname="congresso2 .svg"><metadata
     id="metadata124"><rdf:RDF><cc:Work
         rdf:about=""><dc:format>image/svg+xml</dc:format><dc:type
           rdf:resource="http://purl.org/dc/dcmitype/StillImage" /></cc:Work></rdf:RDF></metadata><sodipodi:namedview
     pagecolor="#ffffff"
     bordercolor="#666666"
     borderopacity="1"
     objecttolerance="10"
     gridtolerance="10"
     guidetolerance="10"
     inkscape:pageopacity="0"
     inkscape:pageshadow="2"
     inkscape:window-width="3440"
     inkscape:window-height="1388"
     id="namedview122"
     showgrid="false"
     inkscape:zoom="0.62149074"
     inkscape:cx="651.49335"
     inkscape:cy="372.49304"
     inkscape:window-x="0"
     inkscape:window-y="0"
     inkscape:window-maximized="1"
     inkscape:current-layer="svg2" /><defs
     id="defs4"><style
       type="text/css"
       id="style6"><![CDATA[
    .fil5 {fill:#FEFEFE}
    .fil8 {fill:#FFF212}
    .fil3 {fill:#E6473C}
    .fil9 {fill:#00A859}
    .fil7 {fill:#A30D14}
    .fil6 {fill:#373435;fill-rule:nonzero}
    .fil0 {fill:#201E1E;fill-rule:nonzero}
    .fil1 {fill:url(#id4)}
    .fil2 {fill:url(#id5)}
    .fil4 {fill:url(#id6)}
   ]]></style><mask
       id="id0"><linearGradient
         id="id1"
         gradientUnits="userSpaceOnUse"
         x1="21094.8"
         y1="21563"
         x2="21213.2"
         y2="20003.2"><stop
           offset="0"
           style="stop-opacity:1; stop-color:white"
           id="stop10" /><stop
           offset="0.631373"
           style="stop-opacity:0.501961; stop-color:white"
           id="stop12" /><stop
           offset="1"
           style="stop-opacity:0; stop-color:white"
           id="stop14" /></linearGradient><rect
         style="fill:url(#id1)"
         x="20282"
         y="20144"
         width="2172"
         height="1146"
         id="rect16" /></mask><mask
       id="id2"><linearGradient
         id="id3"
         gradientUnits="userSpaceOnUse"
         x1="23431.7"
         y1="21440.7"
         x2="23431.7"
         y2="19745.7"><stop
           offset="0"
           style="stop-opacity:1; stop-color:white"
           id="stop20" /><stop
           offset="1"
           style="stop-opacity:0; stop-color:white"
           id="stop22" /></linearGradient><rect
         style="fill:url(#id3)"
         x="22721"
         y="19915"
         width="1846"
         height="1371"
         id="rect24" /></mask><linearGradient
       id="id4"
       gradientUnits="userSpaceOnUse"
       x1="21368.5"
       y1="21354.6"
       x2="21368.5"
       y2="18512.9"><stop
         offset="0"
         style="stop-opacity:1; stop-color:#9C3C3F"
         id="stop27" /><stop
         offset="1"
         style="stop-opacity:1; stop-color:#ED3237"
         id="stop29" /></linearGradient><linearGradient
       id="id5"
       gradientUnits="userSpaceOnUse"
       xlink:href="#id4"
       x1="23643.5"
       y1="21361"
       x2="23643.5"
       y2="18524.7" /><radialGradient
       id="id6"
       gradientUnits="userSpaceOnUse"
       gradientTransform="matrix(1.49629,0.418193,-0.418194,1.49627,-1043,-17583)"
       cx="18688"
       cy="19683.3"
       r="480.01"
       fx="18688"
       fy="19683.3"><stop
         offset="0"
         style="stop-opacity:1; stop-color:#77C5E3"
         id="stop33" /><stop
         offset="0.2"
         style="stop-opacity:1; stop-color:#4AA2C2"
         id="stop35" /><stop
         offset="1"
         style="stop-opacity:1; stop-color:#384559"
         id="stop37" /></radialGradient><linearGradient
       inkscape:collect="always"
       xlink:href="#id4"
       id="linearGradient3452"
       gradientUnits="userSpaceOnUse"
       x1="21368.5"
       y1="21354.6"
       x2="21368.5"
       y2="18512.9" /></defs><g
     id="g3505"
     transform="matrix(1.3035537,0,0,1.1676073,153.02672,-4758.2333)"><path
       class="fil0"
       d="m 16285,13052 c -52,-49 -112,-87 -178,-115 -76,-32 -156,-48 -240,-48 -83,0 -163,16 -239,48 -74,31 -139,76 -196,133 -57,57 -101,121 -132,194 -32,78 -48,157 -48,240 0,84 16,164 48,241 31,74 75,138 132,195 57,57 122,101 196,133 76,32 156,47 239,47 84,0 164,-15 240,-47 66,-29 125,-67 178,-115 l 152,152 c -73,68 -155,121 -247,161 -103,43 -210,65 -323,65 -112,0 -220,-22 -323,-65 -99,-42 -187,-102 -264,-178 -77,-77 -136,-166 -178,-265 -44,-103 -65,-211 -65,-324 0,-112 21,-220 65,-323 42,-99 101,-187 178,-264 77,-76 165,-135 264,-177 103,-44 211,-65 323,-65 113,0 220,21 323,65 93,38 175,92 247,160 l -152,152 z m 999,-160 c -169,0 -314,60 -434,180 -119,119 -178,264 -178,432 0,169 59,314 178,434 120,119 265,178 434,178 169,0 313,-59 432,-178 120,-120 180,-265 180,-434 0,-168 -60,-313 -180,-432 -119,-120 -263,-180 -432,-180 z m 0,1444 c -230,0 -425,-81 -588,-244 -162,-162 -244,-358 -244,-588 0,-228 82,-424 244,-587 163,-162 358,-242 588,-242 228,0 424,80 587,242 161,163 243,359 243,587 0,230 -82,426 -243,588 -163,163 -359,244 -587,244 z m 2159,0 -983,-1087 0,1087 -224,0 0,-1661 983,1069 0,-1069 224,0 0,1661 z m 1417,-141 c -45,29 -92,55 -141,76 -50,21 -102,38 -155,48 -56,11 -112,17 -168,17 -56,0 -112,-6 -168,-17 -54,-10 -106,-27 -156,-48 -50,-21 -97,-47 -142,-76 -44,-31 -85,-65 -122,-102 -37,-38 -71,-79 -101,-123 -31,-45 -56,-91 -78,-141 -20,-51 -37,-103 -48,-156 -11,-55 -16,-111 -16,-168 0,-56 5,-112 16,-167 11,-54 28,-106 48,-156 22,-49 47,-96 78,-141 30,-44 64,-85 101,-124 37,-37 78,-71 122,-101 45,-30 92,-55 142,-76 50,-21 102,-37 156,-48 55,-12 111,-17 168,-17 56,0 112,5 168,17 53,11 105,27 155,48 50,21 97,46 141,76 42,29 81,61 117,96 l -151,151 c -27,-25 -55,-48 -86,-69 -33,-22 -68,-41 -105,-56 -38,-17 -76,-28 -115,-36 -41,-9 -83,-13 -124,-13 -41,0 -83,4 -125,13 -40,8 -78,19 -114,36 -38,15 -73,34 -106,56 -33,23 -63,48 -92,76 -28,28 -53,59 -74,91 -23,33 -41,68 -56,104 -17,38 -29,76 -37,116 -8,41 -12,82 -12,124 0,42 4,84 12,125 8,39 20,77 37,115 15,36 33,71 56,104 21,33 46,64 74,92 29,28 59,53 92,75 33,23 68,42 106,57 36,16 74,28 114,35 42,9 84,14 125,14 41,0 83,-5 124,-14 39,-7 77,-19 115,-35 37,-15 72,-34 105,-57 34,-22 64,-47 91,-75 28,-28 53,-59 76,-92 22,-33 41,-68 56,-104 16,-38 28,-76 36,-115 l 4,-17 -434,0 0,-215 658,0 0,107 c 0,57 -6,113 -17,168 -11,53 -27,105 -48,156 -21,50 -47,96 -77,141 -30,44 -64,85 -102,123 -37,37 -78,71 -123,102 z m 916,-464 c 113,0 210,-41 290,-121 81,-80 121,-177 121,-291 0,-113 -40,-210 -121,-290 -80,-81 -177,-121 -290,-121 l -177,0 0,823 177,0 z m 363,605 -294,-371 -246,0 0,371 -234,0 0,-1661 411,0 c 178,0 330,63 456,188 126,126 189,278 189,456 0,179 -63,331 -189,457 -44,44 -93,80 -146,111 l 352,449 -299,0 z m 638,-1435 0,772 566,0 0,227 -566,0 0,208 733,0 0,228 -960,0 0,-1661 960,0 0,226 -733,0 z m 1372,1435 c -131,0 -245,-40 -342,-120 -105,-89 -158,-207 -158,-355 l 225,0 c 0,84 32,149 97,195 53,37 112,55 178,55 82,0 151,-20 207,-62 57,-41 85,-100 85,-178 0,-52 -17,-92 -52,-121 -47,-50 -132,-81 -253,-95 -171,-20 -301,-79 -391,-178 -75,-82 -113,-177 -113,-286 0,-126 38,-238 114,-337 94,-119 225,-179 394,-179 155,0 282,50 382,150 101,100 152,234 152,403 l -224,0 c 0,-96 -22,-172 -69,-228 -55,-68 -136,-102 -241,-102 -117,0 -200,48 -247,145 -25,50 -37,100 -37,148 0,43 15,83 44,121 51,66 138,106 262,120 188,22 324,83 407,184 64,76 97,173 97,289 0,119 -49,220 -147,304 -97,84 -220,127 -370,127 z m 1163,0 c -131,0 -245,-40 -342,-120 -105,-89 -157,-207 -157,-355 l 224,0 c 0,84 33,149 98,195 53,37 112,55 177,55 82,0 151,-20 208,-62 56,-41 85,-100 85,-178 0,-52 -17,-92 -52,-121 -47,-50 -132,-81 -254,-95 -170,-20 -301,-79 -391,-178 -75,-82 -112,-177 -112,-286 0,-126 37,-238 113,-337 94,-119 226,-179 394,-179 155,0 283,50 383,150 101,100 151,234 151,403 l -223,0 c 0,-96 -23,-172 -69,-228 -56,-68 -136,-102 -242,-102 -117,0 -199,48 -246,145 -25,50 -37,100 -37,148 0,43 14,83 43,121 51,66 139,106 263,120 188,22 324,83 407,184 64,76 96,173 96,289 0,119 -48,220 -146,304 -98,84 -221,127 -371,127 z m 1478,-1444 c -169,0 -313,60 -433,180 -119,119 -179,264 -179,432 0,169 60,314 179,434 120,119 264,178 433,178 169,0 313,-59 433,-178 120,-120 180,-265 180,-434 0,-168 -60,-313 -180,-432 -120,-120 -264,-180 -433,-180 z m 0,1444 c -229,0 -425,-81 -587,-244 -163,-162 -244,-358 -244,-588 0,-228 81,-424 244,-587 162,-162 358,-242 587,-242 229,0 424,80 588,242 161,163 242,359 242,587 0,230 -81,426 -242,588 -164,163 -359,244 -588,244 z m -12213,2861 c 245,0 456,-86 632,-260 173,-174 260,-385 260,-632 l 0,-1269 341,0 0,1269 c 0,342 -120,633 -361,873 -241,241 -532,362 -872,362 l 0,-343 z m 2359,343 c -261,0 -483,-92 -667,-275 -183,-185 -275,-407 -275,-666 l 0,-1563 343,0 0,1563 c 0,165 58,306 174,422 118,117 259,176 425,176 165,0 306,-59 423,-176 117,-116 175,-257 175,-422 l 0,-1563 343,0 0,1563 c 0,259 -92,481 -276,666 -184,183 -405,275 -665,275 z m 1769,-912 c 170,0 316,-61 438,-182 121,-121 182,-266 182,-438 0,-172 -61,-317 -182,-438 -122,-121 -268,-182 -438,-182 l -267,0 0,1240 267,0 z m 548,912 -444,-558 -371,0 0,558 -353,0 0,-2504 620,0 c 268,0 497,95 687,285 190,189 285,419 285,687 0,269 -95,499 -285,689 -66,65 -140,121 -220,167 l 531,676 -450,0 z m 960,0 -342,0 0,-2504 342,0 0,2504 z m 115,-2856 -535,295 -141,-303 534,-295 142,303 z m 414,2509 224,0 c 122,0 240,-24 352,-71 108,-46 204,-111 287,-194 84,-84 149,-180 196,-288 47,-112 71,-230 71,-353 0,-123 -24,-240 -71,-352 -47,-109 -112,-204 -196,-287 -83,-83 -179,-148 -287,-194 -112,-48 -230,-72 -352,-72 l -224,0 0,1811 z m -346,347 0,-2504 570,0 c 170,0 332,33 486,98 150,63 284,153 400,269 115,115 203,247 267,398 66,154 99,316 99,486 0,171 -33,334 -99,488 -64,150 -152,282 -267,398 -116,115 -250,204 -400,268 -154,66 -316,99 -486,99 l -570,0 z m 2347,0 -341,0 0,-2504 341,0 0,2504 z m 2065,-1935 c -79,-73 -168,-131 -268,-174 -115,-48 -235,-72 -361,-72 -126,0 -246,24 -361,72 -112,48 -210,115 -296,201 -86,85 -152,183 -199,293 -48,117 -72,237 -72,362 0,126 24,247 72,362 47,112 113,209 199,294 86,87 184,154 296,201 115,48 235,72 361,72 126,0 246,-24 361,-72 99,-43 188,-101 268,-173 l 230,230 c -111,101 -234,182 -372,241 -155,65 -317,98 -487,98 -170,0 -332,-33 -488,-98 -149,-63 -282,-153 -398,-268 -116,-116 -205,-249 -268,-399 -66,-155 -98,-318 -98,-488 0,-170 32,-332 98,-487 63,-150 152,-283 268,-398 116,-116 249,-205 398,-268 156,-65 318,-98 488,-98 170,0 332,33 487,98 139,58 262,139 372,241 l -230,230 z m 1506,-242 c -255,0 -473,91 -654,272 -179,180 -269,397 -269,652 0,255 90,473 269,653 181,180 399,269 654,269 255,0 472,-89 652,-269 181,-180 271,-398 271,-653 0,-255 -90,-472 -271,-652 -180,-181 -397,-272 -652,-272 z m 0,2177 c -346,0 -641,-122 -886,-367 -245,-245 -367,-540 -367,-886 0,-345 122,-639 367,-885 245,-244 540,-366 886,-366 344,0 639,122 885,366 244,246 366,540 366,885 0,346 -122,641 -366,886 -246,245 -541,367 -885,367 z"
       id="path41"
       inkscape:connector-curvature="0"
       style="fill:#201e1e;fill-rule:nonzero" /><g
       id="_1547818982480"><polygon
         class="fil1"
         points="21970,19934 22572,21355 21369,21355 20165,21355 20767,19934 21369,18513 "
         id="polygon44"
         style="fill:url(#linearGradient3452)" /><path
         class="fil2"
         d="m 23647,18525 c 320,157 532,430 532,740 0,172 -65,333 -179,469 385,144 652,453 652,809 0,364 -279,678 -677,818 l -1340,0 0,-2836 1012,0 z"
         id="path46"
         style="fill:url(#id5)"
         inkscape:connector-curvature="0" /><path
         class="fil3"
         style="fill:#e6473c"
         d="m 21989,20157 462,1129 -1082,0 -1083,0 466,-1138 c 237,13 478,19 722,19 173,0 345,-3 515,-10 z"
         id="path48"
         mask="url(#id0)"
         inkscape:connector-curvature="0" /><path
         class="fil3"
         style="fill:#e6473c"
         d="m 24226,19919 c 207,151 337,368 337,608 0,336 -254,626 -618,755 l -1221,0 0,-1122 c 526,-51 1030,-132 1502,-241 z"
         id="path50"
         mask="url(#id2)"
         inkscape:connector-curvature="0" /><path
         class="fil4"
         d="m 19058,18517 c 785,0 1422,637 1422,1422 0,786 -637,1423 -1422,1423 -786,0 -1423,-637 -1423,-1423 0,-785 637,-1422 1423,-1422 z"
         id="path52"
         style="fill:url(#id6)"
         inkscape:connector-curvature="0" /><polygon
         class="fil5"
         points="19923,20728 19958,20733 19933,20758 19940,20792 19909,20776 19878,20793 19883,20759 19858,20735 19892,20729 19907,20697 "
         id="polygon54"
         style="fill:#fefefe" /><polygon
         class="fil5"
         points="17894,20392 17938,20398 17906,20429 17914,20473 17874,20453 17835,20474 17842,20430 17810,20399 17854,20392 17873,20352 "
         id="polygon56"
         style="fill:#fefefe" /><polygon
         class="fil5"
         points="18164,20187 18191,20191 18171,20210 18176,20238 18151,20224 18126,20237 18131,20210 18112,20190 18139,20186 18152,20162 "
         id="polygon58"
         style="fill:#fefefe" /><polygon
         class="fil5"
         points="20058,20665 20100,20672 20069,20701 20076,20743 20039,20723 20000,20742 20008,20700 19978,20670 20020,20665 20040,20626 "
         id="polygon60"
         style="fill:#fefefe" /><polygon
         class="fil5"
         points="19409,19828 19448,19834 19420,19861 19426,19899 19392,19881 19358,19899 19364,19860 19337,19833 19375,19828 19392,19793 "
         id="polygon62"
         style="fill:#fefefe" /><polygon
         class="fil5"
         points="18997,20410 19001,20437 18977,20424 18953,20436 18958,20409 18939,20390 18966,20386 18978,20362 18990,20387 19017,20391 "
         id="polygon64"
         style="fill:#fefefe" /><polygon
         class="fil5"
         points="19078,21051 19101,21054 19085,21071 19090,21094 19068,21084 19048,21095 19051,21072 19033,21056 19057,21052 19067,21030 "
         id="polygon66"
         style="fill:#fefefe" /><polygon
         class="fil5"
         points="19220,20282 19265,20288 19232,20320 19241,20365 19200,20344 19160,20366 19168,20321 19135,20289 19180,20283 19199,20242 "
         id="polygon68"
         style="fill:#fefefe" /><polygon
         class="fil5"
         points="18891,20302 18929,20307 18901,20334 18908,20372 18874,20354 18840,20372 18846,20334 18818,20308 18857,20302 18874,20267 "
         id="polygon70"
         style="fill:#fefefe" /><polygon
         class="fil5"
         points="18485,20696 18535,20703 18500,20738 18509,20788 18464,20765 18420,20789 18428,20739 18391,20704 18441,20696 18463,20651 "
         id="polygon72"
         style="fill:#fefefe" /><polygon
         class="fil5"
         points="19085,20571 19137,20578 19100,20615 19109,20666 19063,20642 19017,20667 19025,20615 18988,20579 19039,20571 19062,20524 "
         id="polygon74"
         style="fill:#fefefe" /><polygon
         class="fil5"
         points="19787,21015 19824,21020 19798,21046 19805,21083 19771,21066 19739,21084 19744,21047 19717,21022 19754,21016 19770,20982 "
         id="polygon76"
         style="fill:#fefefe" /><polygon
         class="fil5"
         points="20127,20552 20168,20559 20137,20587 20144,20628 20107,20608 20071,20627 20078,20586 20049,20557 20090,20552 20109,20515 "
         id="polygon78"
         style="fill:#fefefe" /><polygon
         class="fil5"
         points="20074,20404 20126,20411 20089,20448 20099,20499 20052,20475 20007,20500 20015,20449 19977,20413 20028,20405 20051,20358 "
         id="polygon80"
         style="fill:#fefefe" /><polygon
         class="fil5"
         points="18525,19970 18570,19975 18539,20008 18548,20052 18507,20033 18467,20055 18474,20010 18440,19979 18485,19971 18504,19930 "
         id="polygon82"
         style="fill:#fefefe" /><polygon
         class="fil5"
         points="18325,20403 18367,20409 18337,20439 18345,20482 18306,20462 18268,20483 18275,20440 18244,20410 18287,20404 18305,20365 "
         id="polygon84"
         style="fill:#fefefe" /><polygon
         class="fil5"
         points="19793,20861 19837,20868 19804,20898 19812,20943 19772,20921 19732,20942 19741,20898 19709,20866 19753,20860 19774,20820 "
         id="polygon86"
         style="fill:#fefefe" /><polygon
         class="fil5"
         points="19372,20724 19408,20729 19382,20755 19388,20792 19355,20774 19323,20791 19329,20755 19303,20729 19339,20724 19355,20691 "
         id="polygon88"
         style="fill:#fefefe" /><polygon
         class="fil5"
         points="20286,20459 20293,20494 20261,20478 20229,20496 20234,20460 20208,20435 20244,20429 20259,20396 20276,20428 20312,20433 "
         id="polygon90"
         style="fill:#fefefe" /><polygon
         class="fil5"
         points="19784,20728 19821,20734 19794,20760 19800,20796 19768,20779 19735,20796 19741,20759 19715,20733 19751,20728 19768,20695 "
         id="polygon92"
         style="fill:#fefefe" /><polygon
         class="fil5"
         points="18272,20555 18310,20561 18283,20587 18289,20624 18256,20607 18223,20624 18229,20587 18202,20561 18239,20555 18256,20522 "
         id="polygon94"
         style="fill:#fefefe" /><polygon
         class="fil5"
         points="19490,20894 19532,20900 19502,20930 19511,20971 19473,20952 19436,20973 19442,20931 19411,20902 19453,20895 19471,20857 "
         id="polygon96"
         style="fill:#fefefe" /><polygon
         class="fil5"
         points="19617,20760 19654,20765 19628,20791 19634,20827 19601,20810 19569,20828 19575,20791 19548,20766 19585,20760 19601,20727 "
         id="polygon98"
         style="fill:#fefefe" /><polygon
         class="fil5"
         points="17926,19673 17980,19681 17941,19719 17950,19773 17902,19748 17853,19773 17862,19719 17823,19681 17878,19673 17902,19624 "
         id="polygon100"
         style="fill:#fefefe" /><polygon
         class="fil5"
         points="19519,19410 19573,19418 19534,19456 19544,19510 19495,19485 19447,19511 19455,19457 19416,19419 19470,19411 19494,19361 "
         id="polygon102"
         style="fill:#fefefe" /><polygon
         class="fil5"
         points="19090,20160 19135,20166 19103,20198 19111,20242 19071,20222 19032,20243 19039,20199 19006,20168 19051,20161 19070,20120 "
         id="polygon104"
         style="fill:#fefefe" /><polygon
         class="fil5"
         points="18042,20265 18094,20272 18057,20309 18066,20360 18020,20336 17974,20360 17983,20309 17945,20273 17997,20266 18019,20219 "
         id="polygon106"
         style="fill:#fefefe" /><path
         class="fil5"
         d="m 20470,20108 c -11,76 -25,146 -44,220 -782,-640 -1725,-927 -2733,-791 23,-71 49,-139 79,-207 965,-92 1801,88 2698,778 z"
         id="path108"
         inkscape:connector-curvature="0"
         style="fill:#fefefe" /><path
         class="fil6"
         d="m 17814,19419 c 0,-11 1,-20 4,-27 2,-6 5,-11 9,-15 4,-5 8,-8 13,-10 7,-3 14,-5 23,-5 15,-1 28,4 37,13 10,9 15,22 16,39 0,17 -4,30 -13,40 -8,10 -21,15 -36,16 -15,1 -28,-4 -38,-13 -9,-9 -14,-22 -15,-38 z m 22,-2 c 0,12 3,21 9,27 6,5 13,8 21,8 9,0 16,-4 21,-10 5,-6 7,-15 7,-28 -1,-11 -4,-20 -9,-26 -6,-6 -13,-8 -21,-8 -9,0 -16,4 -21,10 -5,6 -8,15 -7,27 z m 98,47 -2,-104 44,-1 c 12,0 20,0 25,2 5,2 9,5 12,10 3,5 5,10 5,16 0,8 -2,15 -6,20 -5,5 -12,9 -21,10 5,3 9,5 12,9 3,3 7,8 12,16 l 13,20 -25,1 -16,-22 c -5,-8 -9,-14 -11,-16 -2,-2 -4,-3 -7,-4 -2,-1 -5,-1 -10,-1 l -5,0 1,44 -21,0 z m 20,-60 16,-1 c 10,0 16,0 19,-1 2,-1 4,-3 6,-5 1,-2 2,-5 1,-8 0,-3 -1,-6 -3,-8 -1,-2 -4,-4 -8,-4 -1,0 -6,0 -15,0 l -16,0 0,27 z m 87,-47 39,1 c 8,0 15,1 20,2 6,2 11,5 15,10 5,5 8,10 10,17 2,7 3,15 3,25 0,8 -1,16 -3,22 -3,8 -7,14 -12,18 -4,4 -9,7 -15,8 -5,2 -11,3 -19,2 l -39,0 1,-105 z m 21,18 -1,70 16,0 c 6,0 10,0 13,-1 3,-1 6,-2 8,-4 2,-2 4,-6 6,-10 1,-5 2,-11 2,-19 0,-9 0,-15 -2,-19 -1,-4 -3,-8 -5,-10 -3,-3 -6,-4 -10,-5 -3,-1 -9,-1 -18,-2 l -9,0 z m 83,88 2,-104 77,1 0,17 -56,0 -1,23 53,1 -1,17 -52,-1 0,29 58,1 0,17 -80,-1 z m 97,2 5,-104 32,1 16,72 22,-70 31,1 -5,105 -19,-1 4,-82 -25,81 -20,-1 -17,-83 -4,82 -20,-1 z m 170,-95 38,3 c 9,0 15,2 20,3 6,2 11,6 15,11 4,5 7,11 9,17 2,7 2,16 2,25 -1,9 -3,16 -5,22 -3,8 -7,14 -12,18 -4,3 -9,6 -16,7 -5,2 -11,2 -19,1 l -39,-2 7,-105 z m 20,19 -5,70 16,1 c 6,0 10,0 13,-1 3,0 6,-1 8,-3 3,-2 5,-6 6,-10 2,-5 3,-11 4,-19 0,-8 0,-14 -1,-19 -1,-4 -3,-8 -5,-10 -3,-3 -6,-5 -10,-6 -3,-1 -8,-1 -17,-2 l -9,-1 z m 77,43 c 1,-11 3,-20 7,-27 3,-5 6,-9 11,-13 4,-4 9,-7 14,-8 7,-2 14,-3 23,-3 15,2 27,8 35,18 9,10 12,24 11,41 -1,17 -7,29 -17,38 -10,9 -23,13 -38,11 -15,-1 -27,-7 -36,-17 -8,-10 -12,-24 -10,-40 z m 22,1 c -1,12 1,21 5,27 5,7 12,11 20,11 9,1 16,-1 22,-7 6,-6 9,-14 10,-27 1,-11 -1,-21 -5,-27 -5,-6 -12,-10 -21,-11 -8,0 -15,2 -21,8 -6,5 -9,14 -10,26 z m 90,29 21,0 c 0,7 2,13 6,16 3,4 8,6 14,7 7,1 12,0 16,-2 4,-2 6,-5 6,-9 1,-3 0,-5 -1,-7 -1,-2 -3,-4 -7,-5 -2,-2 -8,-4 -16,-7 -11,-4 -18,-9 -22,-14 -6,-6 -8,-14 -7,-22 1,-5 3,-10 7,-14 3,-4 8,-7 14,-9 6,-1 13,-2 21,0 13,1 22,5 28,12 6,7 8,15 7,24 l -21,-2 c 0,-5 -1,-9 -4,-12 -3,-3 -7,-4 -13,-5 -6,-1 -11,0 -15,2 -2,1 -3,3 -4,6 0,2 1,4 3,6 2,3 8,6 18,10 10,4 17,7 21,10 5,4 8,8 10,12 3,5 3,11 2,18 -1,5 -3,11 -7,16 -4,4 -9,8 -16,9 -6,2 -14,2 -23,1 -13,-2 -22,-6 -29,-13 -6,-7 -9,-17 -9,-28 z m 225,68 -22,-4 -6,-25 -41,-6 -12,22 -22,-3 56,-97 22,3 25,110 z m -32,-47 -8,-41 -20,37 28,4 z m 62,-52 38,7 c 9,1 15,3 19,5 6,3 11,8 14,13 3,5 6,11 7,18 1,7 0,16 -2,25 -1,9 -4,16 -7,22 -4,7 -9,12 -14,16 -5,2 -10,4 -16,5 -5,1 -12,0 -19,-1 l -39,-8 19,-102 z m 18,21 -13,68 15,3 c 6,1 10,1 13,1 3,0 7,-1 9,-2 3,-2 5,-5 7,-9 3,-5 5,-11 6,-19 2,-8 2,-14 2,-18 -1,-5 -2,-9 -4,-11 -3,-3 -5,-6 -9,-7 -3,-1 -9,-3 -17,-4 l -9,-2 z m 93,107 -16,-110 23,5 10,81 41,-70 22,4 -58,95 -22,-5 z m 78,-34 c 3,-10 7,-18 12,-25 3,-4 8,-8 13,-11 5,-3 10,-5 15,-6 7,-1 15,0 23,2 15,4 26,12 32,23 7,12 8,26 3,43 -4,16 -12,27 -23,34 -11,7 -24,9 -39,5 -15,-4 -26,-12 -33,-23 -6,-12 -7,-26 -3,-42 z m 21,5 c -3,11 -2,21 1,28 4,7 10,12 18,14 8,2 16,1 23,-3 6,-5 11,-13 14,-24 3,-12 3,-21 0,-28 -4,-7 -10,-12 -18,-14 -9,-3 -16,-1 -23,3 -7,4 -12,12 -15,24 z m 136,52 5,-17 44,12 -12,40 c -5,3 -12,5 -21,6 -9,1 -18,0 -26,-2 -11,-3 -19,-8 -26,-15 -6,-6 -10,-14 -12,-24 -2,-9 -1,-18 2,-28 3,-10 8,-19 14,-26 7,-7 15,-11 25,-13 7,-2 16,-1 25,1 13,4 22,9 27,17 6,7 8,15 8,25 l -21,-2 c -1,-5 -2,-10 -5,-14 -3,-4 -8,-7 -14,-8 -8,-3 -16,-2 -23,2 -7,4 -12,12 -15,23 -3,12 -3,22 0,29 4,8 10,13 19,15 4,1 8,2 13,1 5,0 9,-1 13,-3 l 3,-13 -23,-6 z m 141,85 -21,-7 -2,-25 -40,-13 -15,20 -22,-7 71,-87 21,7 8,112 z m -24,-51 -2,-42 -25,33 27,9 z m 70,-42 37,13 c 8,3 14,5 18,8 5,4 9,9 11,15 3,5 4,12 4,19 0,7 -2,15 -5,24 -3,8 -7,15 -11,20 -5,7 -10,11 -16,14 -5,2 -11,3 -17,3 -5,0 -11,-2 -19,-5 l -37,-13 35,-98 z m 14,23 -23,66 15,5 c 5,2 9,3 12,3 4,1 7,0 10,-1 2,-1 5,-4 8,-8 3,-3 6,-9 9,-17 2,-7 4,-14 4,-18 0,-5 -1,-9 -2,-12 -2,-3 -4,-5 -8,-8 -2,-1 -8,-3 -16,-6 l -9,-4 z m 65,62 c 3,-10 8,-18 14,-24 4,-4 8,-7 14,-10 5,-2 10,-3 16,-4 7,0 14,2 22,5 15,5 25,14 30,26 5,12 5,26 -1,42 -6,16 -15,27 -27,32 -12,6 -25,6 -40,1 -14,-6 -24,-15 -29,-27 -6,-12 -5,-26 1,-41 z m 20,7 c -4,11 -5,20 -2,28 3,8 9,13 17,16 7,3 15,3 22,-1 7,-4 13,-12 17,-23 5,-11 5,-20 3,-28 -3,-7 -9,-12 -17,-15 -8,-4 -16,-3 -23,0 -7,4 -13,12 -17,23 z m 80,52 19,7 c -1,6 -1,12 1,17 2,4 6,8 12,10 6,3 12,4 16,2 4,-1 7,-3 9,-7 1,-2 1,-4 0,-6 0,-3 -2,-5 -5,-8 -2,-1 -6,-5 -14,-11 -9,-7 -15,-13 -17,-19 -4,-7 -4,-15 0,-23 2,-5 5,-9 10,-12 4,-3 10,-4 16,-4 6,0 13,2 20,5 12,5 20,12 24,20 4,8 4,16 0,25 l -20,-8 c 2,-5 2,-9 0,-13 -2,-3 -6,-6 -11,-8 -6,-3 -11,-3 -15,-3 -2,1 -4,3 -5,5 -1,2 -1,5 0,7 1,3 6,8 15,14 8,7 14,12 18,16 3,5 5,10 6,15 1,5 0,11 -3,17 -2,5 -6,10 -11,13 -6,4 -11,5 -18,5 -7,0 -14,-2 -22,-6 -12,-5 -21,-12 -25,-20 -4,-9 -4,-19 0,-30 z m 162,-5 34,17 c 8,4 14,7 17,11 5,4 9,9 10,15 2,6 3,13 2,20 -1,7 -3,15 -8,24 -3,7 -8,13 -12,18 -6,6 -12,10 -18,12 -5,2 -11,2 -17,1 -5,-1 -11,-3 -18,-6 l -36,-17 46,-95 z m 11,26 -30,62 14,7 c 5,2 9,4 12,4 3,1 7,1 10,0 2,-1 6,-3 9,-6 3,-4 7,-10 10,-17 4,-7 6,-13 6,-18 1,-4 1,-8 -1,-11 -1,-4 -3,-6 -6,-9 -3,-2 -8,-5 -15,-8 l -9,-4 z m 58,68 c 5,-10 11,-17 17,-22 4,-3 9,-6 15,-8 6,-2 11,-2 16,-2 7,1 15,3 22,7 14,7 23,17 26,30 4,13 2,27 -6,42 -8,15 -18,24 -31,28 -12,4 -25,3 -39,-4 -14,-7 -22,-17 -26,-30 -4,-13 -2,-26 6,-41 z m 20,9 c -6,11 -8,20 -6,28 2,8 7,14 14,18 8,4 15,4 23,1 8,-2 14,-9 20,-20 5,-11 7,-20 5,-27 -1,-8 -6,-14 -14,-18 -8,-4 -15,-5 -23,-2 -7,3 -14,10 -19,20 z m 149,24 36,21 c 7,5 12,8 15,11 3,3 6,6 7,9 2,4 3,8 3,12 0,4 -2,8 -4,12 -2,4 -6,7 -10,9 -5,3 -9,3 -14,3 4,5 7,10 8,16 0,5 -1,11 -4,16 -2,4 -6,7 -10,10 -4,3 -9,4 -13,5 -5,0 -10,-1 -15,-3 -3,-2 -11,-6 -22,-13 l -31,-18 54,-90 z m 9,26 -12,21 11,7 c 8,4 12,6 14,7 3,2 6,2 9,1 3,0 5,-2 7,-5 2,-3 2,-6 2,-8 -1,-3 -3,-5 -5,-7 -2,-2 -7,-5 -16,-10 l -10,-6 z m -21,36 -15,24 17,10 c 7,4 11,6 13,6 3,2 6,2 9,1 2,-1 5,-3 7,-6 1,-3 2,-6 2,-8 0,-3 -1,-5 -3,-8 -2,-2 -7,-6 -16,-11 l -14,-8 z m 48,82 55,-89 38,23 c 10,6 16,11 19,16 4,4 5,9 5,15 0,5 -1,11 -4,16 -5,7 -10,11 -17,13 -6,2 -14,1 -22,-3 2,5 4,9 5,14 1,4 1,11 1,20 l 0,24 -21,-13 -1,-27 c -1,-10 -1,-16 -2,-19 0,-3 -1,-5 -3,-7 -1,-2 -4,-4 -8,-7 l -4,-2 -23,37 -18,-11 z m 50,-40 13,8 c 9,5 14,8 17,9 3,0 5,0 7,-1 3,-1 5,-3 6,-5 2,-3 3,-6 2,-9 0,-3 -2,-5 -4,-8 -1,-1 -6,-4 -13,-8 l -14,-9 -14,23 z m 117,149 -19,-12 6,-25 -35,-23 -21,14 -18,-12 92,-64 18,12 -23,110 z m -9,-56 9,-40 -33,24 24,16 z m 33,33 18,11 c -3,6 -4,11 -3,16 1,5 5,9 10,13 5,4 10,6 15,6 4,-1 8,-2 10,-6 1,-2 2,-4 2,-6 0,-2 -2,-5 -4,-8 -1,-2 -5,-7 -11,-14 -7,-9 -12,-16 -13,-22 -2,-8 0,-16 4,-23 4,-4 8,-7 13,-9 5,-2 11,-2 17,-1 6,1 12,4 18,9 11,8 17,16 19,24 2,9 1,17 -4,25 l -18,-11 c 2,-5 3,-10 2,-13 -1,-4 -4,-7 -9,-11 -5,-4 -10,-5 -14,-5 -3,0 -5,1 -6,3 -2,2 -2,4 -1,7 0,3 4,9 11,17 7,8 12,14 14,19 3,5 4,11 3,16 0,5 -2,10 -6,16 -3,5 -8,8 -14,10 -6,3 -12,3 -18,2 -7,-2 -13,-5 -21,-11 -11,-7 -17,-16 -19,-25 -2,-9 -1,-19 5,-29 z m 63,89 63,-84 17,13 -63,83 -17,-12 z m 33,26 62,-83 17,12 -52,69 42,32 -10,14 -59,-44 z"
         id="path110"
         inkscape:connector-curvature="0"
         style="fill:#373435;fill-rule:nonzero" /><path
         class="fil0"
         d="m 20512,21968 110,0 -54,-223 -56,223 z m 157,193 -28,-114 -149,0 -27,114 -108,0 145,-514 137,0 143,514 -113,0 z m 492,-176 c 1,3 1,6 1,9 0,4 0,9 0,15 0,51 -13,91 -41,119 -28,27 -67,41 -119,41 -23,0 -46,-3 -66,-9 -21,-6 -37,-15 -50,-26 -21,-18 -36,-44 -45,-78 -9,-34 -13,-88 -13,-164 0,-52 3,-92 8,-121 6,-29 15,-52 28,-71 12,-20 31,-34 54,-45 24,-10 52,-15 83,-15 53,0 92,13 118,40 27,27 40,66 40,118 l 0,10 -108,0 0,-10 c 0,-27 -4,-47 -13,-60 -8,-13 -21,-20 -39,-20 -24,0 -40,12 -50,35 -9,23 -13,76 -13,160 0,71 5,118 14,141 9,23 26,35 51,35 17,0 30,-7 39,-21 9,-14 13,-36 13,-65 0,-2 0,-5 0,-8 0,-4 -1,-7 -1,-10 l 109,0 z m 228,-338 c 63,0 106,9 128,28 23,19 34,54 34,104 0,39 -5,69 -17,88 -12,20 -31,33 -58,40 31,6 52,17 63,33 11,15 17,45 17,89 0,3 0,7 -1,13 0,6 0,10 0,13 0,23 1,44 3,60 2,17 6,33 10,46 l -112,0 c -5,-16 -7,-50 -8,-102 0,-17 0,-30 0,-40 -1,-26 -6,-44 -15,-54 -9,-11 -23,-16 -44,-16 l -45,0 0,212 -108,0 0,-514 153,0 z m -45,222 26,0 c 29,0 49,-6 61,-17 11,-10 17,-30 17,-57 0,-26 -5,-44 -16,-54 -10,-9 -30,-14 -60,-14 l -28,0 0,142 z m 294,292 0,-514 278,0 0,79 -170,0 0,123 156,0 0,79 -156,0 0,150 176,0 0,83 -284,0 z"
         id="path112"
         inkscape:connector-curvature="0"
         style="fill:#201e1e;fill-rule:nonzero" /></g></g><g
     id="g3498"
     transform="matrix(1.6182455,0,0,1.7197794,-22342.323,1640.1508)"><g
       id="g3495"><path
         style="fill:#a30d14"
         inkscape:connector-curvature="0"
         id="path114"
         d="m 17188,7581 c 44,56 422,235 519,267 101,33 196,68 306,90 462,93 939,93 1335,-159 l 159,-123 c 25,-22 41,-32 51,-58 -141,29 -521,306 -1124,247 -289,-28 -516,-143 -735,-299 l -94,-75 c -37,-30 -71,-56 -92,-88 77,-142 236,-361 327,-509 110,-178 207,-336 310,-529 161,-302 420,-872 447,-1226 l 337,129 c 328,107 709,122 1040,18 43,-13 154,-59 175,-56 80,133 252,1087 293,1302 199,1045 407,3255 424,4391 -407,-6 -813,-13 -1218,-34 -92,-5 -309,-26 -384,-22 l -3,306 c 84,2 292,-32 406,-38 125,-7 280,-19 412,-32 386,-38 1335,-45 1719,-2 l 813,72 0,-306 -847,44 c -283,7 -603,25 -884,10 26,-505 62,-1014 101,-1515 19,-250 49,-492 69,-743 20,-246 64,-493 85,-733 l 98,-712 c 92,-566 179,-1136 333,-1684 31,-107 71,-228 91,-327 62,3 126,44 189,63 797,249 1292,-109 1430,-132 28,359 285,919 448,1227 143,270 310,536 469,781 49,75 122,174 168,257 -64,98 -302,243 -394,295 -761,431 -1507,-51 -1652,-80 41,99 381,279 482,313 254,86 511,100 800,74 l 171,-29 c 133,-18 414,-103 529,-163 100,-52 337,-142 388,-212 l -41,-41 c -9,-11 -5,-6 -12,-17 l -156,-209 c -209,-286 -395,-559 -564,-875 -215,-402 -459,-982 -299,-1519 -60,6 -161,87 -235,108 -291,85 -595,149 -909,159 -366,12 -721,-47 -1050,-185 -38,-16 -93,-47 -128,-54 41,62 165,101 207,151 -48,140 -100,269 -151,418 -52,148 -96,303 -132,454 -202,848 -215,1172 -291,2024 -31,347 -46,752 -49,1108 -29,-290 -21,-729 -47,-1064 -14,-180 -19,-350 -37,-529 -55,-542 -102,-950 -197,-1496 -27,-153 -57,-318 -95,-471 -17,-72 -103,-413 -100,-463 62,-49 152,-87 200,-141 -90,30 -165,71 -253,105 -482,182 -1059,180 -1562,61 -98,-23 -184,-48 -281,-75 -70,-19 -121,-55 -185,-88 -7,-4 -21,-11 -31,-16 l -25,-11 c 7,94 60,121 52,419 -3,140 -34,295 -68,414 -179,622 -552,1198 -950,1699 -36,46 -77,92 -108,134 z"
         class="fil7" /></g><path
       class="fil7"
       d="m 17879,11160 -2,308 c 246,2 502,-31 746,-40 1289,-52 2561,-86 3856,-32 262,10 503,21 761,31 134,5 690,46 752,38 l 4,-305 -1499,43 c -1036,18 -2058,11 -3093,0 -258,-3 -513,-14 -762,-19 -248,-5 -524,-27 -763,-24 z"
       id="path116"
       inkscape:connector-curvature="0"
       style="fill:#a30d14" /><path
       class="fil8"
       d="m 22222,7574 c 102,-46 338,-321 422,-430 296,-384 581,-989 618,-1491 8,-102 16,-322 -23,-396 -72,676 -486,1489 -851,2056 l -166,261 z"
       id="path118"
       inkscape:connector-curvature="0"
       style="fill:#fff212" /><path
       class="fil9"
       d="m 19651,7574 -163,-256 c -157,-249 -327,-553 -448,-803 -89,-186 -182,-387 -250,-586 -37,-109 -65,-202 -97,-319 -19,-69 -55,-331 -67,-353 -43,535 49,900 283,1371 46,93 92,175 149,265 161,254 317,453 545,648 l 48,33 z"
       id="path120"
       inkscape:connector-curvature="0"
       style="fill:#00a859" /></g></svg>