<?xml version="1.0" encoding="UTF-8"?>
<!DOCTYPE svg PUBLIC "-//W3C//DTD SVG 1.1//EN" "http://www.w3.org/Graphics/SVG/1.1/DTD/svg11.dtd">
<!-- Creator: CorelDRAW X8 -->
<svg xmlns="http://www.w3.org/2000/svg" xml:space="preserve" width="210mm" height="297mm" version="1.1" style="shape-rendering:geometricPrecision; text-rendering:geometricPrecision; image-rendering:optimizeQuality; fill-rule:evenodd; clip-rule:evenodd"
viewBox="0 0 21000 29700"
 xmlns:xlink="http://www.w3.org/1999/xlink">
 <defs>
  <style type="text/css">
   <![CDATA[
    .fil5 {fill:#FEFEFE}
    .fil6 {fill:#373435}
    .fil8 {fill:#FFF212}
    .fil0 {fill:#FBF8F5}
    .fil7 {fill:#A03234}
    .fil9 {fill:#00A859}
    .fil1 {fill:#201E1E}
    .fil3 {fill:url(#id2)}
    .fil2 {fill:url(#id3)}
    .fil4 {fill:url(#id4)}
   ]]>
  </style>
     <clipPath id="id0">
      <path d="M11292 19100l370 904 -867 0 -867 0 374 -911c189,10 382,15 577,15 139,0 277,-2 413,-8z"/>
     </clipPath>
     <clipPath id="id1">
      <path d="M13083 18909c166,121 270,295 270,487 0,269 -203,501 -494,605l-978 0 0 -899c421,-40 824,-106 1202,-193z"/>
     </clipPath>
  <linearGradient id="id2" gradientUnits="userSpaceOnUse" x1="12617" y1="20064.2" x2="12617" y2="17792.9">
   <stop offset="0" style="stop-opacity:1; stop-color:#9C3D3F"/>
   <stop offset="1" style="stop-opacity:1; stop-color:#ED3237"/>
  </linearGradient>
  <linearGradient id="id3" gradientUnits="userSpaceOnUse" xlink:href="#id2" x1="10795.1" y1="20059" x2="10795.1" y2="17783.4">
  </linearGradient>
  <radialGradient id="id4" gradientUnits="userSpaceOnUse" gradientTransform="matrix(-0.718763 -1.43752 -1.60721 0 44953 31153)" cx="8648.47" cy="18720.6" r="660.64" fx="8648.47" fy="18720.6">
   <stop offset="0" style="stop-opacity:1; stop-color:#76C6E5"/>
   <stop offset="0.2" style="stop-opacity:1; stop-color:#4AA2C2"/>
   <stop offset="1" style="stop-opacity:1; stop-color:#38455A"/>
  </radialGradient>
 </defs>
 <g id="Camada_x0020_1">
  <metadata id="CorelCorpID_0Corel-Layer"/>
  <rect class="fil0" y="-3878" width="21000" height="37456"/>
 </g>
 <g id="Camada_x0020_1_0">
  <metadata id="CorelCorpID_1Corel-Layer"/>
  <g id="_2379301454592">
   <path class="fil1" d="M6724 13410c-42,-39 -89,-70 -142,-92 -62,-26 -125,-39 -192,-39 -67,0 -131,13 -192,39 -59,25 -112,61 -157,106 -46,46 -81,98 -106,156 -25,62 -38,126 -38,192 0,67 13,132 38,193 25,59 60,111 106,156 45,46 98,82 157,107 61,25 125,38 192,38 67,0 130,-13 192,-38 52,-23 100,-54 142,-92l122 122c-59,54 -124,97 -198,128 -82,35 -168,52 -258,52 -90,0 -177,-17 -260,-52 -79,-34 -149,-81 -211,-142 -61,-62 -109,-133 -142,-212 -35,-83 -52,-169 -52,-260 0,-90 17,-176 52,-258 33,-80 81,-151 142,-212 62,-61 132,-108 211,-142 83,-35 170,-52 260,-52 90,0 176,17 258,52 74,31 140,74 198,128l-122 122zm800 -128l0 0c-135,0 -251,48 -347,144 -96,96 -143,211 -143,346 0,136 47,252 143,348 96,95 212,142 347,142 135,0 251,-47 346,-142 96,-96 144,-212 144,-348 0,-135 -48,-250 -144,-346 -95,-96 -211,-144 -346,-144zm0 1156l0 0c-184,0 -341,-65 -471,-195 -130,-130 -195,-287 -195,-471 0,-183 65,-339 195,-470 130,-129 287,-194 471,-194 183,0 339,65 470,194 130,131 194,287 194,470 0,184 -64,341 -194,471 -131,130 -287,195 -470,195zm1729 0l0 0 -787 -870 0 870 -180 0 0 -1330 788 856 0 -856 179 0 0 1330zm1135 -113l0 0c-36,24 -74,44 -113,61 -40,17 -82,31 -124,39 -45,9 -90,13 -135,13 -45,0 -90,-4 -134,-13 -43,-8 -85,-22 -125,-39 -40,-17 -78,-37 -114,-61 -35,-24 -68,-51 -97,-81 -31,-31 -58,-63 -82,-99 -24,-35 -45,-73 -62,-113 -16,-40 -29,-82 -38,-125 -9,-44 -13,-88 -13,-134 0,-45 4,-90 13,-134 9,-43 22,-85 38,-125 17,-39 38,-77 62,-112 24,-36 51,-69 82,-100 29,-30 62,-57 97,-81 36,-24 74,-44 114,-60 40,-18 82,-31 125,-39 44,-9 89,-14 134,-14 45,0 90,5 135,14 42,8 84,21 124,39 40,16 78,36 113,60 34,23 65,49 94,77l-121 121c-22,-20 -45,-39 -69,-55 -26,-18 -55,-33 -84,-45 -30,-14 -61,-23 -92,-29 -34,-7 -67,-11 -100,-11 -33,0 -66,4 -100,11 -31,6 -62,15 -91,29 -30,12 -58,27 -85,45 -27,18 -51,38 -73,60 -23,23 -43,47 -60,73 -18,27 -33,55 -45,84 -13,30 -23,61 -29,93 -7,32 -10,65 -10,99 0,34 3,67 10,100 6,31 16,62 29,92 12,29 27,57 45,84 17,26 37,51 60,73 22,23 46,43 73,60 27,19 55,34 85,46 29,13 60,22 91,28 34,7 67,11 100,11 33,0 66,-4 100,-11 31,-6 62,-15 92,-28 29,-12 58,-27 84,-46 27,-17 51,-37 72,-60 23,-22 43,-47 62,-73 17,-27 32,-55 44,-84 13,-30 23,-61 29,-92l4 -14 -348 0 0 -172 527 0 0 86c0,46 -5,90 -14,134 -9,43 -22,85 -38,125 -17,40 -38,78 -62,113 -24,36 -51,68 -81,99 -30,30 -63,57 -99,81zm733 -371l0 0c91,0 169,-33 233,-97 65,-64 97,-142 97,-233 0,-91 -32,-168 -97,-232 -64,-65 -142,-97 -233,-97l-141 0 0 659 141 0zm291 484l0 0 -235 -297 -197 0 0 297 -188 0 0 -1330 329 0c143,0 265,50 366,151 100,101 151,223 151,365 0,143 -51,265 -151,366 -36,35 -75,64 -118,89l282 359 -239 0zm511 -1149l0 0 0 618 453 0 0 182 -453 0 0 167 587 0 0 182 -769 0 0 -1330 769 0 0 181 -587 0zm1099 1149l0 0c-105,0 -197,-32 -274,-96 -84,-71 -126,-166 -126,-284l179 0c0,67 26,120 78,156 43,30 90,45 143,45 65,0 121,-17 166,-50 45,-33 68,-81 68,-143 0,-41 -14,-74 -42,-97 -37,-40 -105,-65 -203,-76 -136,-16 -241,-64 -313,-143 -60,-65 -90,-141 -90,-228 0,-102 30,-192 91,-270 75,-96 180,-144 315,-144 125,0 227,40 307,120 81,81 121,188 121,323l-179 0c0,-77 -18,-138 -55,-183 -44,-54 -109,-81 -194,-81 -93,0 -159,38 -197,116 -20,40 -30,80 -30,119 0,34 12,66 35,97 41,53 111,84 210,96 151,17 260,66 326,147 52,61 78,138 78,231 0,95 -39,176 -118,244 -78,67 -176,101 -296,101zm931 0l0 0c-105,0 -196,-32 -273,-96 -85,-71 -127,-166 -127,-284l180 0c0,67 26,120 78,156 43,30 90,45 142,45 66,0 121,-17 167,-50 45,-33 68,-81 68,-143 0,-41 -14,-74 -42,-97 -38,-40 -106,-65 -203,-76 -137,-16 -241,-64 -313,-143 -60,-65 -90,-141 -90,-228 0,-102 30,-192 91,-270 75,-96 180,-144 315,-144 124,0 226,40 307,120 80,81 121,188 121,323l-179 0c0,-77 -18,-138 -55,-183 -45,-54 -109,-81 -194,-81 -94,0 -160,38 -197,116 -20,40 -30,80 -30,119 0,34 12,66 35,97 41,53 111,84 210,96 151,17 260,66 326,147 51,61 77,138 77,231 0,95 -39,176 -117,244 -78,67 -177,101 -297,101zm1184 -1156l0 0c-135,0 -251,48 -347,144 -95,96 -143,211 -143,346 0,136 48,252 143,348 96,95 212,142 347,142 135,0 251,-47 347,-142 96,-96 144,-212 144,-348 0,-135 -48,-250 -144,-346 -96,-96 -212,-144 -347,-144zm0 1156l0 0c-184,0 -340,-65 -471,-195 -130,-130 -195,-287 -195,-471 0,-183 65,-339 195,-470 131,-129 287,-194 471,-194 183,0 340,65 470,194 130,131 195,287 195,470 0,184 -65,341 -195,471 -130,130 -287,195 -470,195zm-9781 2292l0 0c197,0 366,-70 506,-209 139,-139 209,-308 209,-506l0 -1016 273 0 0 1016c0,274 -96,507 -289,699 -193,194 -426,290 -699,290l0 -274zm1889 274l0 0c-208,0 -386,-73 -533,-220 -147,-148 -221,-326 -221,-534l0 -1251 275 0 0 1251c0,133 46,246 139,339 94,94 207,141 340,141 132,0 245,-47 339,-141 94,-93 140,-206 140,-339l0 -1251 275 0 0 1251c0,208 -74,386 -221,534 -147,147 -325,220 -533,220zm1417 -730l0 0c136,0 253,-49 350,-146 98,-96 147,-213 147,-351 0,-137 -49,-254 -147,-351 -97,-97 -214,-145 -350,-145l-214 0 0 993 214 0zm439 730l0 0 -356 -447 -297 0 0 447 -282 0 0 -2005 496 0c215,0 398,76 550,228 152,152 229,335 229,550 0,216 -77,400 -229,552 -53,52 -112,97 -176,133l425 542 -360 0zm768 0l0 0 -273 0 0 -2005 273 0 0 2005zm92 -2287l0 0 -428 237 -112 -243 427 -237 113 243zm333 2009l0 0 179 0c98,0 192,-19 282,-56 86,-37 163,-89 230,-156 67,-67 119,-144 157,-231 37,-90 56,-184 56,-282 0,-99 -19,-193 -56,-282 -38,-87 -90,-164 -157,-230 -67,-67 -144,-119 -230,-155 -90,-39 -184,-58 -282,-58l-179 0 0 1450zm-277 278l0 0 0 -2005 456 0c136,0 266,26 389,79 120,50 227,122 320,215 92,92 163,198 214,319 53,123 79,253 79,389 0,137 -26,267 -79,390 -51,120 -122,227 -214,319 -93,93 -200,164 -320,215 -123,53 -253,79 -389,79l-456 0zm1879 0l0 0 -273 0 0 -2005 273 0 0 2005zm1653 -1549l0 0c-62,-59 -134,-106 -214,-140 -92,-38 -189,-58 -289,-58 -101,0 -197,20 -290,58 -89,39 -168,92 -236,161 -69,68 -122,147 -159,235 -39,93 -58,190 -58,290 0,101 19,197 58,290 37,89 90,167 159,235 68,70 147,123 236,161 93,38 189,57 290,57 100,0 197,-19 289,-57 79,-35 151,-81 214,-139l184 184c-88,82 -187,146 -297,194 -125,52 -254,78 -390,78 -136,0 -266,-26 -391,-78 -119,-51 -226,-123 -319,-215 -92,-93 -164,-200 -215,-320 -52,-124 -78,-254 -78,-390 0,-136 26,-266 78,-390 51,-121 123,-227 215,-319 93,-93 200,-164 319,-214 125,-53 255,-79 391,-79 136,0 265,26 390,79 111,46 210,110 297,193l-184 184zm1207 -194l0 0c-205,0 -379,73 -524,217 -144,145 -215,319 -215,523 0,204 71,378 215,523 145,143 319,215 524,215 203,0 378,-72 522,-215 145,-145 217,-319 217,-523 0,-204 -72,-378 -217,-523 -144,-144 -319,-217 -522,-217zm0 1743l0 0c-277,0 -514,-98 -710,-294 -196,-196 -294,-432 -294,-709 0,-276 98,-512 294,-709 196,-196 433,-293 710,-293 275,0 511,97 708,293 195,197 293,433 293,709 0,277 -98,513 -293,709 -197,196 -433,294 -708,294z"/>
   <g>
    <path class="fil1" d="M4803 21522c0,41 -7,81 -21,121 -14,39 -34,74 -60,103 -29,32 -62,57 -101,74 -38,17 -82,25 -132,25 -68,0 -121,-17 -160,-52 -38,-35 -58,-84 -58,-145 0,-44 8,-85 22,-124 15,-39 36,-73 64,-103 26,-29 60,-52 99,-69 39,-17 82,-25 129,-25 68,0 122,17 160,52 39,36 58,83 58,143zm-184 170l0 0c15,-20 27,-43 36,-69 8,-26 13,-56 13,-90 0,-36 -9,-64 -26,-84 -17,-21 -41,-31 -73,-31 -21,0 -40,5 -59,15 -19,9 -37,24 -52,43 -16,18 -28,42 -37,69 -10,28 -15,59 -15,93 0,38 9,67 27,86 17,20 41,30 72,30 22,0 42,-6 62,-16 20,-11 37,-26 52,-46zm354 153l0 0c-32,0 -63,-3 -93,-9 -30,-5 -54,-13 -70,-21l23 -98 12 0c4,4 11,8 18,14 8,5 18,10 32,16 12,5 26,9 41,13 16,3 33,5 51,5 27,0 47,-3 61,-9 13,-6 20,-15 20,-27 0,-9 -5,-16 -14,-20 -10,-5 -30,-11 -60,-18 -51,-12 -86,-26 -105,-43 -19,-16 -29,-37 -29,-62 0,-42 19,-76 57,-100 38,-25 90,-37 154,-37 28,0 57,3 85,9 28,5 48,12 62,18l-23 95 -10 0c-16,-12 -35,-22 -58,-30 -22,-8 -45,-12 -69,-12 -26,0 -45,4 -59,10 -14,6 -21,15 -21,28 0,10 6,17 18,23 12,5 31,10 56,16 48,10 82,23 103,38 21,16 31,38 31,66 0,42 -19,75 -58,99 -38,24 -90,36 -155,36zm983 -531l0 0 -121 521 -121 0 9 -39c-11,7 -22,14 -31,20 -8,6 -18,11 -29,16 -10,5 -20,8 -29,10 -10,2 -22,3 -35,3 -37,0 -66,-11 -88,-35 -21,-24 -32,-57 -32,-101 0,-35 6,-69 17,-100 12,-31 27,-59 47,-83 20,-24 43,-42 70,-56 27,-14 55,-21 84,-21 21,0 38,2 54,6 15,5 30,11 46,20l37 -161 122 0zm-175 233l0 0c-7,-3 -15,-6 -26,-8 -10,-3 -19,-4 -27,-4 -20,0 -37,4 -52,13 -16,8 -29,20 -39,35 -10,13 -17,30 -23,50 -6,21 -8,40 -8,59 0,23 5,39 15,50 11,10 27,15 48,15 11,0 22,-2 34,-7 13,-5 24,-11 35,-18l43 -185zm472 52l0 0c1,-4 1,-7 2,-11 0,-3 0,-6 0,-10 0,-18 -5,-31 -17,-41 -10,-9 -26,-14 -47,-14 -25,0 -46,7 -63,20 -17,14 -30,32 -39,56l164 0zm-92 246l0 0c-65,0 -114,-14 -149,-42 -35,-28 -52,-68 -52,-117 0,-35 5,-66 17,-95 11,-28 27,-53 49,-75 21,-21 46,-37 77,-50 31,-12 65,-18 102,-18 56,0 98,11 127,34 28,23 42,56 42,100 0,15 -1,30 -4,45 -3,14 -7,29 -12,43l-281 0c0,1 0,3 0,4 0,1 0,2 0,4 0,26 10,46 28,61 19,14 47,21 85,21 26,0 51,-4 75,-13 24,-9 44,-19 62,-30l13 0 -22 97c-24,11 -49,18 -75,24 -26,5 -53,7 -82,7zm388 0l0 0c-33,0 -64,-3 -94,-9 -30,-5 -53,-13 -69,-21l23 -98 11 0c5,4 11,8 19,14 7,5 18,10 32,16 12,5 25,9 41,13 16,3 33,5 51,5 27,0 47,-3 61,-9 13,-6 20,-15 20,-27 0,-9 -5,-16 -15,-20 -9,-5 -29,-11 -59,-18 -52,-12 -87,-26 -106,-43 -19,-16 -28,-37 -28,-62 0,-42 19,-76 57,-100 38,-25 89,-37 154,-37 28,0 56,3 84,9 28,5 49,12 62,18l-22 95 -10 0c-16,-12 -35,-22 -58,-30 -22,-8 -45,-12 -69,-12 -26,0 -46,4 -59,10 -14,6 -21,15 -21,28 0,10 6,17 18,23 12,5 30,10 56,16 47,10 81,23 102,38 21,16 32,38 32,66 0,42 -20,75 -58,99 -38,24 -90,36 -155,36zm531 -187l0 0c-22,1 -42,4 -61,6 -19,2 -35,6 -48,11 -14,5 -24,12 -32,20 -7,9 -11,21 -11,36 0,13 5,22 15,27 9,5 23,8 42,8 12,0 24,-3 38,-8 14,-6 26,-13 38,-21l19 -79zm-32 138l0 0c-8,4 -17,10 -28,17 -10,7 -20,13 -29,17 -13,5 -25,9 -36,11 -11,3 -26,4 -45,4 -32,0 -57,-8 -77,-26 -20,-17 -30,-40 -30,-68 0,-30 7,-55 21,-76 14,-21 35,-37 63,-49 26,-12 56,-20 92,-25 36,-6 75,-10 117,-12 0,-1 0,-3 1,-6 1,-4 1,-7 1,-11 0,-16 -7,-27 -22,-33 -15,-6 -37,-10 -66,-10 -20,0 -42,4 -66,10 -24,7 -42,13 -54,17l-11 0 18 -89c14,-3 36,-7 65,-12 30,-4 59,-6 88,-6 59,0 102,7 130,23 27,15 41,39 41,71 0,5 0,11 -1,18 -1,7 -2,13 -3,18l-59 256 -119 0 9 -39zm605 39l0 0 -121 0 69 -296 -134 0 -69 296 -121 0 69 -296 -51 0 18 -79 51 0 3 -11c10,-48 30,-84 60,-105 29,-22 67,-33 114,-33 16,0 31,0 46,2 15,1 27,3 36,4l-20 86 -8 0c-4,-2 -11,-3 -19,-6 -8,-2 -17,-3 -25,-3 -20,0 -35,5 -46,15 -10,10 -18,26 -23,48l0 3 258 0 -87 375zm125 -520l0 0 -121 0 -21 91 121 0 21 -91zm422 282l0 0c0,35 -5,68 -17,99 -12,31 -29,57 -50,79 -22,23 -48,41 -78,53 -29,13 -64,19 -103,19 -56,0 -99,-14 -129,-40 -30,-27 -45,-64 -45,-111 0,-34 6,-66 17,-96 11,-30 28,-56 49,-79 22,-23 48,-41 79,-54 31,-13 65,-19 104,-19 56,0 99,13 129,39 30,27 44,63 44,110zm-156 123l0 0c10,-16 18,-33 23,-51 5,-19 8,-41 8,-67 0,-23 -5,-41 -15,-53 -10,-13 -26,-19 -48,-19 -17,0 -32,4 -45,12 -13,9 -24,20 -34,35 -9,14 -16,32 -21,53 -6,20 -8,41 -8,63 0,26 5,44 17,55 11,11 27,17 47,17 14,0 28,-4 42,-12 13,-8 24,-19 34,-33zm338 125l0 0c-32,0 -63,-3 -93,-9 -30,-5 -54,-13 -70,-21l23 -98 11 0c5,4 12,8 19,14 8,5 18,10 32,16 12,5 26,9 41,13 16,3 33,5 51,5 27,0 47,-3 61,-9 13,-6 20,-15 20,-27 0,-9 -5,-16 -14,-20 -10,-5 -30,-11 -60,-18 -51,-12 -86,-26 -105,-43 -19,-16 -29,-37 -29,-62 0,-42 19,-76 57,-100 38,-25 90,-37 154,-37 28,0 57,3 85,9 28,5 48,12 62,18l-23 95 -10 0c-16,-12 -35,-22 -58,-30 -22,-8 -45,-12 -69,-12 -26,0 -45,4 -59,10 -14,6 -21,15 -21,28 0,10 6,17 18,23 12,5 31,10 56,16 48,10 82,23 103,38 21,16 31,38 31,66 0,42 -19,75 -58,99 -38,24 -90,36 -155,36zm801 -246l0 0c0,-4 1,-7 1,-11 1,-3 1,-6 1,-10 0,-18 -6,-31 -17,-41 -11,-9 -27,-14 -47,-14 -25,0 -46,7 -63,20 -17,14 -30,32 -39,56l164 0zm-93 246l0 0c-64,0 -113,-14 -148,-42 -35,-28 -53,-68 -53,-117 0,-35 6,-66 17,-95 12,-28 28,-53 50,-75 20,-21 46,-37 77,-50 31,-12 64,-18 101,-18 56,0 99,11 127,34 29,23 43,56 43,100 0,15 -2,30 -5,45 -3,14 -7,29 -11,43l-281 0c0,1 0,3 0,4 0,1 0,2 0,4 0,26 9,46 28,61 18,14 46,21 84,21 27,0 52,-4 76,-13 23,-9 44,-19 61,-30l14 0 -23 97c-23,11 -48,18 -74,24 -26,5 -54,7 -83,7zm622 -2l0 0c-41,0 -71,-7 -89,-21 -18,-14 -27,-34 -27,-61 0,-7 0,-14 2,-21 1,-6 2,-14 4,-23l41 -178 -50 0 19 -79 49 0 25 -108 122 0 -25 108 112 0 -18 79 -113 0 -31 136c-3,9 -5,19 -7,28 -2,10 -3,18 -3,24 0,14 4,23 11,28 8,6 19,8 35,8 6,0 15,-1 25,-3 10,-3 18,-5 24,-8l10 0 -18 80c-14,3 -28,6 -44,8 -15,2 -33,3 -54,3zm501 -268l0 0 27 -115c-4,-1 -9,-1 -14,-2 -5,0 -10,0 -14,0 -23,0 -46,5 -68,16 -23,10 -46,24 -69,41l13 -55 -121 0 -87 375 121 0 58 -251c16,-5 31,-9 46,-11 15,-3 30,-4 46,-4 9,0 19,1 29,2 10,0 17,2 22,4l11 0zm277 83l0 0c-22,1 -42,4 -61,6 -19,2 -35,6 -48,11 -14,5 -24,12 -31,20 -8,9 -11,21 -11,36 0,13 4,22 14,27 10,5 24,8 42,8 12,0 25,-3 38,-8 14,-6 27,-13 39,-21l18 -79zm-32 138l0 0c-7,4 -16,10 -27,17 -11,7 -21,13 -30,17 -13,5 -25,9 -35,11 -11,3 -27,4 -46,4 -32,0 -57,-8 -77,-26 -20,-17 -30,-40 -30,-68 0,-30 7,-55 21,-76 14,-21 35,-37 63,-49 26,-12 57,-20 92,-25 36,-6 75,-10 117,-12 0,-1 0,-3 1,-6 1,-4 1,-7 1,-11 0,-16 -7,-27 -22,-33 -15,-6 -37,-10 -66,-10 -20,0 -42,4 -66,10 -24,7 -42,13 -54,17l-11 0 18 -89c14,-3 36,-7 65,-12 30,-4 59,-6 88,-6 59,0 103,7 130,23 28,15 41,39 41,71 0,5 0,11 -1,18 -1,7 -2,13 -3,18l-59 256 -119 0 9 -39zm661 -251l0 0c0,6 -1,13 -2,21 0,8 -2,16 -4,25l-56 244 -121 0 42 -186c3,-14 5,-26 7,-35 2,-10 3,-19 3,-28 0,-14 -4,-25 -11,-31 -8,-7 -21,-10 -41,-10 -9,0 -20,2 -33,6 -12,4 -26,10 -42,18l-61 266 -121 0 87 -375 121 0 -10 41c25,-16 47,-29 68,-38 20,-9 43,-14 67,-14 34,0 60,8 79,25 18,16 28,40 28,71zm193 300l0 0c-32,0 -63,-3 -94,-9 -30,-5 -53,-13 -69,-21l23 -98 11 0c5,4 12,8 19,14 8,5 18,10 32,16 12,5 26,9 41,13 16,3 33,5 51,5 27,0 47,-3 61,-9 13,-6 20,-15 20,-27 0,-9 -5,-16 -14,-20 -10,-5 -30,-11 -60,-18 -51,-12 -86,-26 -105,-43 -19,-16 -29,-37 -29,-62 0,-42 19,-76 57,-100 38,-25 89,-37 154,-37 28,0 56,3 84,9 29,5 49,12 62,18l-22 95 -10 0c-16,-12 -35,-22 -58,-30 -22,-8 -45,-12 -69,-12 -26,0 -45,4 -59,10 -14,6 -21,15 -21,28 0,10 6,17 18,23 12,5 30,10 56,16 47,10 82,23 102,38 21,16 32,38 32,66 0,42 -19,75 -58,99 -38,24 -90,36 -155,36zm475 -385l0 0 93 0 -19 79 -88 0 -69 296 -121 0 68 -296 -51 0 18 -79 52 0 2 -10c10,-46 29,-80 56,-104 27,-23 67,-35 121,-35 19,0 36,0 51,2 14,1 27,2 37,4l-20 86 -9 0c-5,-2 -12,-4 -21,-6 -10,-2 -19,-3 -27,-3 -22,0 -38,5 -48,14 -10,8 -18,25 -25,49l0 3zm510 137l0 0c0,-47 -15,-83 -45,-110 -30,-26 -73,-39 -129,-39 -39,0 -73,6 -104,19 -31,13 -57,31 -78,54 -22,23 -39,49 -50,79 -11,30 -17,62 -17,96 0,47 15,84 45,111 30,26 73,40 129,40 39,0 74,-6 103,-19 30,-12 56,-30 78,-53 21,-22 38,-48 50,-79 12,-31 18,-64 18,-99zm-157 123l0 0c-9,14 -21,25 -34,33 -14,8 -28,12 -42,12 -20,0 -36,-6 -47,-17 -12,-11 -17,-29 -17,-55 0,-22 2,-43 8,-63 5,-21 12,-39 21,-53 10,-15 21,-26 34,-35 13,-8 28,-12 45,-12 22,0 38,6 48,19 10,12 15,30 15,53 0,26 -3,48 -8,67 -5,18 -13,35 -23,51zm526 -145l0 0 -10 0c-6,-2 -13,-4 -23,-4 -10,-1 -19,-2 -29,-2 -16,0 -31,1 -46,4 -15,2 -30,6 -45,11l-59 251 -121 0 87 -375 121 0 -12 55c22,-17 45,-31 68,-41 22,-11 45,-16 68,-16 4,0 9,0 14,0 5,1 10,1 14,2l-27 115zm685 -32l0 0c0,-30 -8,-53 -26,-69 -17,-17 -42,-25 -75,-25 -22,0 -45,6 -69,17 -24,11 -50,27 -80,48 -7,-21 -19,-37 -36,-48 -17,-11 -37,-17 -62,-17 -23,0 -44,5 -64,14 -20,9 -42,22 -66,38l9 -41 -121 0 -87 375 121 0 61 -266c15,-7 28,-13 39,-18 11,-4 22,-6 32,-6 18,0 31,3 38,9 6,6 10,16 10,29 0,7 -1,17 -4,29 -2,13 -5,25 -7,36l-44 187 122 0 62 -266c15,-8 28,-14 39,-18 11,-4 21,-6 30,-6 18,0 31,2 38,9 7,6 10,15 10,28 0,7 -1,17 -3,29 -2,11 -5,24 -8,37l-44 187 123 0 56 -244c2,-9 4,-17 5,-25 1,-8 1,-16 1,-23zm318 115l0 0c-22,1 -42,4 -61,6 -19,2 -35,6 -49,11 -13,5 -24,12 -31,20 -7,9 -11,21 -11,36 0,13 5,22 15,27 9,5 23,8 42,8 11,0 24,-3 38,-8 13,-6 26,-13 38,-21l19 -79zm-32 138l0 0c-8,4 -17,10 -28,17 -10,7 -20,13 -30,17 -12,5 -24,9 -35,11 -11,3 -26,4 -46,4 -31,0 -57,-8 -76,-26 -20,-17 -30,-40 -30,-68 0,-30 7,-55 21,-76 14,-21 35,-37 62,-49 26,-12 57,-20 93,-25 36,-6 75,-10 116,-12 1,-1 1,-3 2,-6 1,-4 1,-7 1,-11 0,-16 -8,-27 -22,-33 -15,-6 -37,-10 -66,-10 -20,0 -42,4 -66,10 -24,7 -42,13 -54,17l-11 0 18 -89c14,-3 36,-7 65,-12 29,-4 59,-6 88,-6 59,0 102,7 130,23 27,15 41,39 41,71 0,5 0,11 -1,18 -1,7 -2,13 -3,18l-59 256 -119 0 9 -39zm405 49l0 0c-24,0 -46,-4 -67,-10 -21,-7 -39,-16 -55,-29 -16,-13 -29,-29 -38,-49 -9,-20 -14,-43 -14,-69 0,-34 7,-65 19,-94 13,-29 31,-54 55,-76 22,-21 50,-38 83,-50 32,-13 68,-19 106,-19 23,0 46,3 68,8 23,5 44,13 63,22l-25 103 -17 0c-13,-16 -28,-28 -45,-35 -16,-8 -35,-12 -56,-12 -38,0 -68,13 -91,40 -23,27 -34,61 -34,101 0,28 7,49 21,63 14,14 36,21 66,21 23,0 44,-5 63,-15 19,-9 36,-20 49,-31l17 0 -25 102c-8,4 -18,8 -30,12 -13,5 -24,8 -34,10 -6,49 -21,84 -46,106 -25,21 -61,32 -108,32 -9,0 -21,0 -36,-2 -15,-1 -26,-3 -34,-6l16 -67 7 0c6,3 13,5 21,8 9,2 19,4 30,4 7,0 15,-1 24,-3 9,-2 16,-5 21,-10 7,-5 12,-12 16,-21 5,-9 8,-20 10,-34zm652 -248l0 0c0,35 -6,68 -18,99 -12,31 -28,57 -50,79 -22,23 -48,41 -77,53 -30,13 -64,19 -104,19 -56,0 -99,-14 -128,-40 -30,-27 -45,-64 -45,-111 0,-34 5,-66 16,-96 11,-30 28,-56 50,-79 21,-23 47,-41 78,-54 31,-13 66,-19 104,-19 56,0 99,13 129,39 30,27 45,63 45,110zm-157 123l0 0c11,-16 18,-33 24,-51 5,-19 7,-41 7,-67 0,-23 -5,-41 -15,-53 -10,-13 -26,-19 -48,-19 -17,0 -31,4 -44,12 -13,9 -25,20 -34,35 -10,14 -17,32 -22,53 -5,20 -8,41 -8,63 0,26 6,44 17,55 12,11 27,17 47,17 15,0 29,-4 42,-12 13,-8 25,-19 34,-33zm154 -426l0 0c-6,35 -19,62 -38,82 -19,19 -43,29 -72,29 -14,0 -26,-3 -36,-7 -11,-5 -22,-11 -34,-19 -6,-5 -12,-8 -17,-10 -4,-2 -9,-3 -15,-3 -10,0 -18,4 -23,11 -6,6 -10,16 -14,30l-74 0c6,-35 19,-62 38,-81 20,-20 44,-30 73,-30 14,0 26,3 36,7 10,5 22,11 34,19 6,5 12,8 16,10 4,2 9,3 15,3 11,0 19,-4 24,-11 6,-7 10,-17 14,-30l73 0z"/>
    <path class="fil1" d="M15035 21599c1,-4 1,-7 2,-11 0,-3 0,-6 0,-10 0,-18 -5,-31 -17,-41 -11,-9 -26,-14 -47,-14 -25,0 -46,7 -63,20 -17,14 -30,32 -39,56l164 0zm-92 246l0 0c-65,0 -114,-14 -149,-42 -35,-28 -52,-68 -52,-117 0,-35 5,-66 17,-95 11,-28 27,-53 49,-75 21,-21 46,-37 77,-50 31,-12 65,-18 102,-18 56,0 98,11 127,34 28,23 42,56 42,100 0,15 -1,30 -4,45 -3,14 -7,29 -12,43l-281 0c0,1 0,3 0,4 0,1 0,2 0,4 0,26 10,46 28,61 19,14 47,21 85,21 26,0 51,-4 75,-13 23,-9 44,-19 62,-30l13 0 -22 97c-24,11 -49,18 -75,24 -26,5 -53,7 -82,7zm388 0l0 0c-33,0 -64,-3 -94,-9 -30,-5 -53,-13 -69,-21l23 -98 11 0c5,4 11,8 19,14 7,5 18,10 32,16 12,5 25,9 41,13 16,3 33,5 51,5 27,0 47,-3 60,-9 14,-6 21,-15 21,-27 0,-9 -5,-16 -15,-20 -9,-5 -29,-11 -59,-18 -52,-12 -87,-26 -106,-43 -19,-16 -28,-37 -28,-62 0,-42 19,-76 57,-100 38,-25 89,-37 154,-37 28,0 56,3 84,9 28,5 49,12 62,18l-22 95 -10 0c-16,-12 -35,-22 -58,-30 -22,-8 -45,-12 -69,-12 -26,0 -46,4 -59,10 -14,6 -21,15 -21,28 0,10 6,17 18,23 12,5 30,10 56,16 47,10 81,23 102,38 21,16 32,38 32,66 0,42 -20,75 -58,99 -38,24 -90,36 -155,36zm936 -300l0 0c0,6 0,13 -1,21 -1,8 -3,16 -5,25l-56 244 -121 0 42 -186c3,-14 5,-26 7,-35 2,-10 3,-19 3,-28 0,-14 -4,-25 -11,-31 -7,-7 -21,-10 -41,-10 -9,0 -20,2 -33,6 -12,4 -26,10 -42,18l-61 266 -121 0 87 -375 121 0 -10 41c25,-16 47,-29 68,-38 20,-9 43,-14 67,-14 34,0 60,8 79,25 19,16 28,40 28,71zm481 52l0 0c0,35 -5,68 -17,99 -12,31 -29,57 -50,79 -22,23 -48,41 -78,53 -29,13 -64,19 -103,19 -56,0 -99,-14 -129,-40 -30,-27 -45,-64 -45,-111 0,-34 6,-66 17,-96 11,-30 28,-56 49,-79 22,-23 48,-41 79,-54 31,-13 65,-19 104,-19 56,0 99,13 129,39 30,27 44,63 44,110zm-156 123l0 0c10,-16 18,-33 23,-51 5,-19 8,-41 8,-67 0,-23 -5,-41 -15,-53 -10,-13 -26,-19 -48,-19 -17,0 -32,4 -45,12 -13,9 -24,20 -34,35 -9,14 -16,32 -21,53 -6,20 -8,41 -8,63 0,26 5,44 17,55 11,11 27,17 47,17 14,0 28,-4 42,-12 13,-8 24,-19 34,-33zm-11845 588l0 0c0,59 -24,107 -74,143 -49,37 -118,55 -206,55l-49 0 -37 162 -129 0 115 -498 179 0c32,0 61,2 85,7 24,4 45,12 63,23 17,11 30,25 39,42 10,18 14,40 14,66zm-137 12l0 0c0,-19 -7,-34 -21,-43 -14,-9 -35,-14 -63,-14l-52 0 -34 149 46 0c39,0 70,-8 91,-24 22,-16 33,-38 33,-68zm571 110l0 0c0,35 -6,68 -18,99 -12,31 -28,57 -50,79 -22,23 -48,41 -77,53 -30,13 -64,19 -103,19 -56,0 -99,-13 -129,-40 -30,-27 -45,-64 -45,-111 0,-34 5,-65 17,-95 11,-31 27,-57 49,-80 21,-23 47,-40 78,-53 31,-13 66,-20 104,-20 56,0 100,13 129,40 30,26 45,63 45,109zm-157 123l0 0c11,-15 18,-33 24,-51 5,-18 8,-41 8,-67 0,-23 -5,-41 -16,-53 -10,-13 -26,-19 -48,-19 -17,0 -31,4 -44,13 -13,8 -25,19 -34,35 -9,14 -17,31 -22,52 -5,20 -8,42 -8,63 0,26 6,44 17,55 12,11 27,17 47,17 15,0 29,-4 42,-12 14,-8 25,-19 34,-33zm680 -406l0 0 -120 521 -122 0 9 -39c-11,8 -21,14 -30,20 -9,6 -19,11 -29,16 -10,5 -20,8 -30,10 -10,2 -21,4 -35,4 -36,0 -65,-12 -87,-36 -22,-23 -33,-57 -33,-100 0,-36 6,-70 18,-101 11,-31 27,-59 47,-83 20,-23 43,-42 69,-56 27,-14 55,-21 84,-21 21,0 39,2 54,7 15,4 31,10 47,19l37 -161 121 0zm-175 234l0 0c-6,-4 -15,-7 -25,-9 -11,-3 -20,-4 -28,-4 -19,0 -36,4 -52,13 -15,8 -28,20 -39,35 -9,13 -17,30 -23,50 -5,21 -8,40 -8,59 0,23 5,39 16,50 10,10 26,15 47,15 11,0 23,-2 35,-7 12,-5 23,-11 34,-18l43 -184zm472 52l0 0c1,-4 2,-8 2,-12 0,-3 0,-6 0,-10 0,-18 -5,-31 -16,-41 -11,-9 -27,-14 -48,-14 -25,0 -46,7 -63,21 -17,13 -30,32 -38,56l163 0zm-92 246l0 0c-64,0 -114,-15 -149,-43 -35,-28 -52,-67 -52,-117 0,-34 6,-66 17,-94 11,-29 28,-54 49,-76 21,-21 47,-37 77,-50 31,-12 65,-18 102,-18 56,0 98,11 127,34 28,23 43,56 43,100 0,16 -2,30 -5,45 -3,14 -7,29 -12,43l-280 0c0,2 0,3 0,4 0,1 0,2 0,4 0,26 9,46 28,61 18,14 46,22 84,22 26,0 51,-5 75,-14 24,-9 44,-19 62,-30l13 0 -22 97c-23,11 -48,18 -74,24 -26,5 -54,8 -83,8zm576 -271l0 0 -10 0c-6,-2 -13,-3 -23,-4 -10,-1 -20,-2 -29,-2 -16,0 -31,1 -46,4 -15,2 -30,6 -45,11l-59 251 -121 0 87 -375 121 0 -12 55c22,-17 45,-30 68,-41 22,-10 45,-16 68,-16 4,0 9,0 14,1 5,0 10,0 14,1l-27 115zm546 96l0 0c-14,58 -39,102 -77,130 -37,28 -88,42 -153,42 -24,0 -46,-1 -65,-3 -19,-1 -36,-4 -51,-7l24 -103 12 0c9,4 19,7 30,11 11,3 25,5 43,5 34,0 60,-8 77,-24 17,-16 30,-48 41,-95l46 -198 -114 0 22 -92 242 0 -77 334zm538 -211l0 0 -87 375 -121 0 9 -41c-12,8 -23,15 -35,22 -11,7 -22,12 -32,16 -13,5 -25,9 -36,11 -10,2 -21,3 -31,3 -33,0 -59,-8 -78,-24 -19,-16 -29,-39 -29,-70 0,-9 1,-17 1,-24 1,-7 3,-15 5,-24l56 -244 123 0 -44 186c-3,14 -6,26 -8,36 -1,11 -2,19 -2,27 0,14 3,25 11,32 7,6 20,9 40,9 10,0 21,-2 34,-6 12,-4 26,-10 41,-18l62 -266 121 0zm514 -146l0 0 -121 521 -121 0 9 -39c-12,8 -22,14 -31,20 -8,6 -18,11 -29,16 -10,5 -20,8 -30,10 -9,2 -21,4 -34,4 -37,0 -66,-12 -88,-36 -21,-23 -32,-57 -32,-100 0,-36 5,-70 17,-101 11,-31 27,-59 47,-83 20,-23 43,-42 70,-56 27,-14 55,-21 84,-21 20,0 38,2 53,7 16,4 31,10 47,19l37 -161 122 0zm-175 234l0 0c-7,-4 -15,-7 -26,-9 -10,-3 -20,-4 -28,-4 -19,0 -36,4 -51,13 -16,8 -29,20 -39,35 -10,13 -17,30 -23,50 -6,21 -8,40 -8,59 0,23 5,39 15,50 11,10 27,15 48,15 11,0 22,-2 34,-7 12,-5 24,-11 35,-18l43 -184zm375 -88l0 0 -121 0 -87 375 121 0 87 -375zm37 -145l0 0 -21 91 -128 0 21 -91 128 0zm183 531l0 0c-25,0 -49,-4 -72,-10 -22,-6 -42,-16 -58,-30 -17,-13 -29,-29 -38,-49 -10,-20 -14,-43 -14,-69 0,-34 6,-65 19,-94 13,-29 31,-54 54,-76 23,-21 51,-38 83,-50 33,-12 68,-19 107,-19 23,0 45,3 68,8 23,5 44,13 63,23l-25 102 -18 0c-13,-16 -28,-28 -44,-35 -17,-8 -35,-12 -56,-12 -38,0 -68,14 -91,41 -23,26 -35,60 -35,100 0,28 7,49 22,63 14,14 36,21 66,21 23,0 44,-5 63,-14 19,-10 35,-20 49,-32l17 0 -25 103c-25,10 -46,17 -64,22 -18,4 -42,7 -71,7zm418 -386l0 0 -121 0 -87 375 121 0 87 -375zm37 -145l0 0 -21 91 -128 0 21 -91 128 0zm259 343l0 0c-22,2 -42,4 -61,6 -19,3 -35,6 -48,11 -14,5 -25,12 -32,21 -7,9 -11,20 -11,35 0,13 5,22 15,27 9,5 23,8 42,8 12,0 24,-3 38,-8 14,-5 26,-12 38,-21l19 -79zm-32 138l0 0c-8,5 -17,11 -28,17 -10,7 -20,13 -29,17 -13,5 -25,9 -36,12 -11,2 -26,4 -45,4 -32,0 -57,-9 -77,-27 -20,-17 -30,-40 -30,-68 0,-30 7,-55 21,-76 14,-21 35,-37 63,-49 26,-12 56,-20 92,-25 36,-5 75,-9 116,-12 1,-1 1,-3 2,-6 1,-3 1,-7 1,-11 0,-15 -7,-27 -22,-33 -15,-6 -37,-9 -66,-9 -20,0 -42,3 -66,10 -24,6 -42,12 -54,16l-11 0 18 -89c14,-3 36,-7 65,-12 29,-4 59,-6 88,-6 59,0 102,7 130,23 27,15 41,39 41,71 0,5 0,11 -1,18 -1,7 -2,13 -3,19l-59 255 -119 0 9 -39zm198 -515l0 0 -147 125 -86 0 105 -131 128 0 0 6zm356 294l0 0 -11 0c-5,-2 -13,-3 -23,-4 -10,-1 -19,-2 -29,-2 -16,0 -31,1 -46,4 -14,2 -30,6 -45,11l-58 251 -122 0 87 -375 122 0 -13 55c23,-17 45,-30 68,-41 23,-10 45,-16 68,-16 4,0 9,0 15,1 5,0 9,0 13,1l-26 115zm215 -115l0 0 -121 0 -87 375 121 0 87 -375zm37 -145l0 0 -21 91 -128 0 21 -91 128 0zm423 282l0 0c0,35 -6,68 -18,99 -12,31 -28,57 -50,79 -22,23 -48,41 -78,53 -29,13 -63,19 -103,19 -56,0 -99,-13 -129,-40 -30,-27 -45,-64 -45,-111 0,-34 6,-65 17,-95 11,-31 28,-57 50,-80 21,-23 47,-40 78,-53 31,-13 66,-20 104,-20 56,0 99,13 129,40 30,26 45,63 45,109zm-157 123l0 0c10,-15 18,-33 23,-51 6,-18 8,-41 8,-67 0,-23 -5,-41 -15,-53 -10,-13 -26,-19 -48,-19 -17,0 -32,4 -45,13 -12,8 -24,19 -34,35 -9,14 -16,31 -21,52 -5,20 -8,42 -8,63 0,26 6,44 17,55 11,11 27,17 47,17 15,0 28,-4 42,-12 13,-8 25,-19 34,-33zm621 126l0 0c-25,0 -49,-4 -72,-10 -22,-6 -42,-16 -58,-30 -17,-13 -29,-29 -39,-49 -9,-20 -13,-43 -13,-69 0,-34 6,-65 19,-94 13,-29 31,-54 54,-76 23,-21 50,-38 83,-50 33,-12 68,-19 107,-19 22,0 45,3 68,8 22,5 43,13 63,23l-25 102 -18 0c-13,-16 -28,-28 -44,-35 -17,-8 -35,-12 -56,-12 -38,0 -68,14 -91,41 -23,26 -35,60 -35,100 0,28 7,49 21,63 15,14 37,21 66,21 24,0 45,-5 64,-14 19,-10 35,-20 49,-32l17 0 -26 103c-24,10 -45,17 -63,22 -18,4 -42,7 -71,7zm643 -249l0 0c0,35 -6,68 -17,99 -12,31 -29,57 -50,79 -23,23 -49,41 -78,53 -29,13 -64,19 -103,19 -56,0 -99,-13 -129,-40 -30,-27 -45,-64 -45,-111 0,-34 6,-65 17,-95 11,-31 28,-57 49,-80 22,-23 48,-40 79,-53 30,-13 65,-20 104,-20 56,0 99,13 129,40 29,26 44,63 44,109zm-156 123l0 0c10,-15 18,-33 23,-51 5,-18 8,-41 8,-67 0,-23 -5,-41 -15,-53 -10,-13 -26,-19 -48,-19 -17,0 -32,4 -45,13 -13,8 -24,19 -34,35 -9,14 -16,31 -22,52 -5,20 -7,42 -7,63 0,26 5,44 17,55 11,11 27,17 47,17 14,0 28,-4 42,-12 13,-8 24,-19 34,-33zm633 -175l0 0c0,6 0,14 -1,21 -1,8 -3,16 -5,25l-56 244 -121 0 42 -186c3,-14 6,-25 7,-35 2,-10 3,-19 3,-28 0,-14 -4,-25 -11,-31 -7,-7 -21,-10 -40,-10 -10,0 -21,2 -33,6 -13,4 -27,10 -42,18l-62 266 -121 0 87 -375 121 0 -10 41c25,-16 48,-29 68,-38 20,-9 43,-14 67,-14 34,0 60,8 79,25 19,16 28,40 28,71zm193 298l0 0c-42,0 -72,-7 -90,-21 -18,-13 -27,-34 -27,-61 0,-7 1,-14 2,-20 1,-7 3,-15 5,-24l41 -178 -50 0 18 -79 50 0 25 -108 121 0 -25 108 113 0 -18 79 -113 0 -32 136c-2,9 -4,19 -6,28 -2,10 -3,18 -3,24 0,14 3,23 11,28 7,6 19,8 35,8 6,0 14,-1 24,-3 11,-3 19,-5 25,-8l10 0 -19 80c-14,4 -28,6 -43,8 -15,2 -33,3 -54,3zm472 -243l0 0c1,-4 1,-8 2,-12 0,-3 0,-6 0,-10 0,-18 -5,-31 -17,-41 -10,-9 -26,-14 -47,-14 -25,0 -46,7 -63,21 -17,13 -30,32 -39,56l164 0zm-92 246l0 0c29,0 56,-3 82,-8 26,-6 51,-13 75,-24l22 -97 -13 0c-18,11 -38,21 -62,30 -24,9 -49,14 -75,14 -38,0 -66,-8 -85,-22 -18,-15 -27,-35 -27,-61 0,-2 0,-3 0,-4 0,-1 0,-2 0,-4l280 0c5,-14 9,-29 12,-43 3,-15 4,-29 4,-45 0,-44 -14,-77 -42,-100 -29,-23 -71,-34 -127,-34 -37,0 -71,6 -102,18 -31,13 -56,29 -77,50 -22,22 -38,47 -49,76 -12,28 -17,60 -17,94 0,50 17,89 52,117 35,28 84,43 149,43zm920 -303l0 0c0,7 0,15 -1,23 -1,8 -3,16 -5,25l-56 244 -123 0 44 -187c3,-13 5,-25 8,-37 2,-12 3,-22 3,-29 0,-13 -3,-22 -10,-28 -7,-6 -20,-9 -38,-9 -9,0 -19,2 -30,6 -11,4 -24,10 -40,18l-61 266 -122 0 44 -187c2,-11 5,-23 7,-35 3,-13 4,-23 4,-30 0,-13 -4,-23 -11,-29 -6,-6 -19,-9 -38,-9 -9,0 -20,2 -31,6 -12,5 -24,11 -39,18l-61 266 -121 0 87 -375 121 0 -10 41c25,-16 47,-29 67,-38 19,-9 41,-14 64,-14 24,0 45,6 62,17 17,11 29,27 36,49 30,-22 56,-38 80,-49 24,-11 46,-17 68,-17 33,0 59,8 76,25 17,16 26,39 26,69zm492 37l0 0c0,34 -6,68 -17,100 -11,33 -27,61 -46,84 -20,25 -43,44 -69,58 -25,14 -54,21 -86,21 -20,0 -38,-2 -55,-7 -17,-5 -32,-11 -46,-19l-36 156 -121 0 119 -513 121 0 -9 39c23,-16 44,-28 63,-37 19,-8 41,-13 64,-13 38,0 67,12 87,35 21,23 31,55 31,96zm-157 132l0 0c9,-14 16,-31 22,-50 5,-19 7,-39 7,-61 0,-21 -4,-36 -13,-47 -9,-11 -25,-16 -48,-16 -12,0 -23,2 -34,6 -12,4 -24,10 -36,16l-44 190c7,3 15,5 25,7 9,1 19,2 29,2 20,0 38,-4 54,-13 15,-9 28,-20 38,-34zm626 -115l0 0c0,35 -6,68 -18,99 -12,31 -28,57 -50,79 -22,23 -48,41 -78,53 -29,13 -63,19 -103,19 -56,0 -99,-13 -129,-40 -30,-27 -44,-64 -44,-111 0,-34 5,-65 16,-95 11,-31 28,-57 50,-80 21,-23 47,-40 78,-53 31,-13 66,-20 104,-20 56,0 99,13 129,40 30,26 45,63 45,109zm-157 123l0 0c10,-15 18,-33 23,-51 6,-18 8,-41 8,-67 0,-23 -5,-41 -15,-53 -10,-13 -26,-19 -48,-19 -17,0 -32,4 -45,13 -12,8 -24,19 -34,35 -9,14 -16,31 -21,52 -5,20 -8,42 -8,63 0,26 6,44 17,55 12,11 27,17 47,17 15,0 29,-4 42,-12 13,-8 25,-19 34,-33zm527 -145l0 0 -11 0c-5,-2 -13,-3 -23,-4 -10,-1 -19,-2 -29,-2 -16,0 -31,1 -46,4 -14,2 -29,6 -45,11l-58 251 -122 0 87 -375 122 0 -13 55c23,-17 45,-30 68,-41 23,-10 45,-16 68,-16 5,0 9,0 15,1 5,0 9,0 13,1l-26 115z"/>
    <path class="fil1" d="M15098 22491c-21,2 -42,4 -60,6 -19,3 -35,6 -49,11 -13,5 -24,12 -31,21 -7,9 -11,20 -11,35 0,13 5,22 15,27 9,5 23,8 41,8 12,0 25,-3 39,-8 13,-5 26,-12 38,-21l18 -79zm-31 138l0 0c-8,5 -17,11 -28,17 -11,7 -21,13 -30,17 -12,5 -24,9 -35,12 -11,2 -26,4 -46,4 -31,0 -57,-9 -77,-27 -19,-17 -29,-40 -29,-68 0,-30 7,-55 21,-76 14,-21 35,-37 62,-49 26,-12 57,-20 93,-25 36,-5 74,-9 116,-12 0,-1 1,-3 2,-6 0,-3 1,-7 1,-11 0,-15 -8,-27 -22,-33 -15,-6 -37,-9 -66,-9 -20,0 -42,3 -66,10 -24,6 -42,12 -54,16l-11 0 17 -89c15,-3 36,-7 66,-12 29,-4 59,-6 88,-6 59,0 102,7 129,23 28,15 42,39 42,71 0,5 -1,11 -1,18 -1,7 -2,13 -4,19l-58 255 -119 0 9 -39zm167 -390l0 0 -85 0 -45 -73 -79 73 -90 0 138 -131 84 0 77 131zm493 139l0 0c0,6 0,14 -1,21 -1,8 -2,16 -4,25l-57 244 -121 0 42 -186c3,-14 6,-25 7,-35 2,-10 3,-19 3,-28 0,-14 -4,-25 -11,-31 -7,-7 -21,-10 -40,-10 -10,0 -21,2 -33,6 -13,4 -27,10 -42,18l-62 266 -121 0 87 -375 121 0 -10 41c25,-16 48,-29 68,-38 21,-9 43,-14 68,-14 33,0 59,8 78,25 19,16 28,40 28,71zm353 55l0 0c1,-4 1,-8 1,-12 1,-3 1,-6 1,-10 0,-18 -6,-31 -17,-41 -11,-9 -27,-14 -47,-14 -25,0 -46,7 -63,21 -17,13 -30,32 -39,56l164 0zm-93 246l0 0c-64,0 -113,-15 -148,-43 -35,-28 -53,-67 -53,-117 0,-34 6,-66 18,-94 11,-29 27,-54 49,-76 20,-21 46,-37 77,-50 31,-12 65,-18 102,-18 56,0 98,11 126,34 29,23 43,56 43,100 0,16 -1,30 -4,45 -3,14 -7,29 -12,43l-281 0c0,2 0,3 0,4 0,1 0,2 0,4 0,26 10,46 28,61 18,14 47,22 84,22 27,0 52,-5 76,-14 23,-9 44,-19 61,-30l14 0 -23 97c-23,11 -48,18 -74,24 -26,5 -53,8 -83,8zm677 -249l0 0c0,35 -6,68 -18,99 -12,31 -28,57 -50,79 -22,23 -48,41 -77,53 -30,13 -64,19 -104,19 -56,0 -99,-13 -128,-40 -30,-27 -45,-64 -45,-111 0,-34 5,-65 16,-95 12,-31 28,-57 50,-80 21,-23 47,-40 78,-53 31,-13 66,-20 104,-20 56,0 99,13 129,40 30,26 45,63 45,109zm-157 123l0 0c11,-15 18,-33 24,-51 5,-18 7,-41 7,-67 0,-23 -5,-41 -15,-53 -10,-13 -26,-19 -48,-19 -17,0 -31,4 -44,13 -13,8 -25,19 -34,35 -10,14 -17,31 -22,52 -5,20 -8,42 -8,63 0,26 6,44 17,55 12,11 27,17 47,17 15,0 29,-4 42,-12 13,-8 25,-19 34,-33z"/>
   </g>
   <g>
    <polygon class="fil2" points="10795,17783 11277,18921 11759,20059 10795,20059 9831,20059 10313,18921 "/>
    <path class="fil3" d="M12620 17793c256,126 426,344 426,593 0,138 -53,266 -143,375 308,116 522,363 522,648 0,291 -224,543 -543,655l-1073 0 0 -2271 811 0z"/>
    <g style="clip-path:url(#id0)">
     <image x="9928" y="19093" width="1733" height="911" xlink:href="app samuel _Images\app samuel _ImgID1.png"/>
    </g>
    <g style="clip-path:url(#id1)">
     <image x="11881" y="18909" width="1472" height="1092" xlink:href="app samuel _Images\app samuel _ImgID2.png"/>
    </g>
    <path class="fil4" d="M8945 17787c629,0 1139,510 1139,1139 0,629 -510,1139 -1139,1139 -629,0 -1139,-510 -1139,-1139 0,-629 510,-1139 1139,-1139z"/>
    <polygon class="fil5" points="9585,19563 9613,19558 9625,19533 9638,19557 9666,19561 9646,19581 9651,19608 9626,19596 9602,19609 9606,19582 "/>
    <polygon class="fil5" points="7945,19294 7981,19288 7996,19256 8012,19288 8048,19293 8022,19318 8029,19353 7997,19337 7965,19354 7971,19319 "/>
    <polygon class="fil5" points="8187,19126 8209,19124 8219,19104 8229,19124 8251,19127 8235,19143 8238,19164 8219,19154 8199,19164 8203,19142 "/>
    <polygon class="fil5" points="9682,19511 9715,19506 9731,19476 9746,19507 9779,19512 9755,19536 9760,19569 9730,19553 9700,19569 9706,19535 "/>
    <polygon class="fil5" points="9168,18841 9199,18836 9212,18809 9226,18836 9257,18841 9234,18863 9240,18893 9212,18879 9185,18893 9190,18862 "/>
    <polygon class="fil5" points="8881,19264 8890,19284 8912,19288 8896,19302 8899,19324 8880,19313 8861,19323 8865,19302 8850,19287 8871,19284 "/>
    <polygon class="fil5" points="8925,19820 8944,19817 8952,19799 8961,19816 8980,19818 8966,19832 8970,19851 8953,19842 8936,19852 8939,19833 "/>
    <polygon class="fil5" points="9006,19206 9042,19201 9058,19168 9074,19200 9110,19205 9085,19231 9091,19266 9059,19250 9027,19267 9032,19231 "/>
    <polygon class="fil5" points="8753,19221 8783,19216 8797,19188 8811,19216 8841,19220 8819,19242 8824,19272 8797,19258 8770,19272 8775,19242 "/>
    <polygon class="fil5" points="8411,19538 8451,19532 8468,19496 8486,19532 8526,19537 8498,19565 8505,19605 8469,19587 8434,19606 8440,19566 "/>
    <polygon class="fil5" points="8888,19438 8930,19432 8948,19394 8967,19431 9008,19437 8978,19466 8986,19508 8949,19488 8912,19508 8919,19467 "/>
    <polygon class="fil5" points="9473,19793 9502,19788 9515,19761 9528,19787 9558,19791 9537,19812 9543,19841 9516,19828 9490,19842 9494,19813 "/>
    <polygon class="fil5" points="9739,19420 9771,19416 9787,19387 9801,19417 9833,19422 9809,19445 9814,19477 9785,19462 9756,19476 9762,19444 "/>
    <polygon class="fil5" points="9681,19305 9722,19299 9740,19261 9759,19298 9800,19303 9771,19333 9778,19374 9741,19355 9705,19375 9711,19334 "/>
    <polygon class="fil5" points="8450,18958 8486,18951 8501,18918 8518,18950 8554,18955 8529,18981 8536,19016 8504,19000 8472,19018 8477,18982 "/>
    <polygon class="fil5" points="8293,19303 8327,19298 8342,19266 8357,19297 8392,19302 8367,19326 8374,19360 8343,19344 8313,19361 8318,19327 "/>
    <polygon class="fil5" points="9466,19668 9502,19663 9518,19631 9533,19663 9569,19669 9543,19694 9548,19729 9517,19712 9485,19728 9491,19693 "/>
    <polygon class="fil5" points="9141,19558 9170,19554 9183,19528 9196,19554 9225,19558 9204,19579 9209,19608 9183,19594 9157,19608 9162,19579 "/>
    <polygon class="fil5" points="9906,19292 9920,19317 9949,19321 9928,19341 9934,19370 9908,19357 9883,19371 9887,19342 9866,19323 9894,19318 "/>
    <polygon class="fil5" points="9471,19562 9500,19558 9513,19531 9526,19558 9555,19562 9534,19583 9539,19612 9513,19598 9487,19611 9492,19582 "/>
    <polygon class="fil5" points="8259,19423 8289,19419 8302,19392 8316,19419 8345,19423 8324,19444 8329,19474 8302,19460 8276,19474 8281,19444 "/>
    <polygon class="fil5" points="9228,19697 9261,19691 9275,19660 9291,19690 9325,19695 9301,19719 9307,19752 9277,19737 9247,19753 9252,19720 "/>
    <polygon class="fil5" points="9337,19588 9366,19583 9379,19556 9393,19583 9422,19587 9401,19608 9406,19637 9380,19623 9354,19637 9359,19608 "/>
    <polygon class="fil5" points="7956,18718 8000,18712 8019,18673 8038,18712 8082,18719 8050,18749 8058,18793 8019,18772 7980,18792 7987,18749 "/>
    <polygon class="fil5" points="9231,18509 9275,18502 9294,18463 9314,18502 9357,18508 9326,18539 9334,18582 9295,18562 9256,18583 9263,18539 "/>
    <polygon class="fil5" points="8903,19109 8939,19103 8954,19070 8971,19103 9006,19107 8981,19133 8988,19168 8955,19152 8924,19169 8929,19133 "/>
    <polygon class="fil5" points="8054,19193 8095,19187 8113,19149 8131,19187 8173,19192 8143,19221 8151,19262 8114,19243 8077,19263 8084,19222 "/>
    <path class="fil5" d="M10076 19061c-9,61 -20,117 -35,176 -627,-513 -1382,-743 -2189,-633 18,-57 39,-112 63,-166 773,-74 1442,70 2161,623z"/>
    <path class="fil6" d="M7949 18509c-1,-9 0,-16 3,-22 1,-4 4,-8 7,-12 3,-3 7,-6 11,-8 5,-2 11,-3 18,-4 12,0 22,3 30,11 7,7 11,17 12,31 0,14 -3,24 -10,32 -7,8 -17,12 -29,13 -12,0 -22,-3 -30,-10 -8,-8 -12,-18 -12,-31zm17 -2l0 0c0,10 3,17 8,22 4,4 10,7 16,6 7,0 13,-3 17,-8 4,-5 6,-12 5,-22 0,-9 -2,-16 -7,-21 -4,-4 -10,-7 -17,-6 -7,0 -12,3 -16,8 -4,4 -6,12 -6,21zm79 38l0 0 -2 -83 36 -1c9,0 15,0 19,2 4,1 8,4 10,8 3,3 4,8 4,13 0,6 -2,11 -5,15 -4,4 -9,7 -17,8 4,2 7,5 10,7 2,3 5,7 10,14l10 16 -20 0 -13 -18c-4,-6 -7,-10 -9,-12 -1,-2 -3,-3 -5,-3 -2,-1 -5,-1 -9,-1l-3 0 1 35 -17 0zm16 -48l0 0 12 -1c8,0 13,0 15,-1 2,-1 4,-2 5,-4 1,-1 2,-3 2,-6 0,-3 -1,-5 -3,-7 -1,-1 -3,-2 -6,-3 -2,0 -6,0 -12,0l-14 0 1 22zm69 -37l0 0 31 0c7,0 13,1 16,2 5,1 9,4 13,8 3,3 6,8 8,13 1,6 2,12 2,20 0,7 -1,13 -3,18 -2,6 -5,11 -9,15 -3,2 -7,5 -12,6 -4,1 -9,2 -15,2l-32 -1 1 -83zm17 14l0 0 -1 55 13 1c5,0 8,-1 10,-1 3,-1 5,-2 7,-3 2,-2 3,-5 5,-8 1,-4 2,-9 2,-16 0,-6 -1,-11 -2,-15 -1,-3 -3,-6 -5,-8 -2,-2 -4,-3 -7,-4 -3,-1 -7,-1 -14,-1l-8 0zm67 70l0 0 1 -83 62 1 0 14 -45 -1 -1 19 42 0 0 14 -42 0 0 23 47 0 0 14 -64 -1zm78 2l0 0 4 -84 25 1 12 58 18 -56 25 1 -4 84 -15 -1 3 -66 -20 65 -16 -1 -13 -66 -4 66 -15 -1zm135 -76l0 0 31 2c7,1 12,1 16,3 5,1 9,4 12,8 3,4 6,9 7,14 1,6 2,12 1,20 0,7 -1,13 -3,18 -3,6 -6,11 -10,14 -3,3 -7,5 -13,6 -3,1 -8,1 -15,1l-31 -2 5 -84zm16 15l0 0 -4 56 13 0c5,1 8,1 10,0 3,0 5,-1 7,-3 2,-1 4,-4 5,-7 2,-4 3,-9 3,-16 0,-6 0,-11 -1,-15 -1,-3 -2,-6 -4,-8 -2,-2 -4,-4 -7,-5 -3,0 -7,-1 -14,-1l-8 -1zm62 34l0 0c1,-8 3,-15 6,-21 2,-4 5,-8 8,-11 4,-3 8,-5 12,-6 5,-2 11,-3 18,-2 12,1 22,6 29,14 6,8 9,19 8,33 -1,13 -6,23 -14,30 -8,7 -18,10 -30,9 -12,-1 -22,-5 -29,-14 -6,-8 -9,-19 -8,-32zm17 1l0 0c0,10 1,17 5,22 4,5 9,8 16,9 7,0 13,-2 17,-6 5,-5 8,-12 9,-21 0,-10 -1,-17 -5,-22 -4,-5 -9,-8 -16,-9 -7,0 -13,2 -17,6 -5,5 -8,11 -9,21zm73 23l0 0 17 1c0,5 1,10 4,13 3,2 7,4 12,5 5,1 9,0 12,-2 3,-2 5,-4 6,-7 0,-2 -1,-4 -2,-5 0,-2 -2,-3 -5,-5 -2,-1 -6,-3 -13,-5 -9,-4 -15,-7 -18,-11 -4,-5 -6,-11 -5,-18 0,-4 2,-8 5,-11 3,-4 7,-6 12,-7 4,-1 10,-2 16,-1 11,2 18,5 23,10 5,6 6,12 6,20l-17 -2c0,-4 -1,-8 -3,-10 -3,-2 -6,-3 -11,-4 -5,-1 -9,0 -12,1 -2,1 -3,3 -3,5 0,2 0,4 2,6 2,2 7,4 15,7 7,3 13,6 17,9 3,2 6,6 8,9 2,4 2,9 1,14 0,5 -2,9 -5,13 -4,4 -8,6 -13,8 -5,1 -11,1 -18,0 -11,-1 -19,-5 -24,-10 -5,-6 -7,-14 -7,-23zm180 55l0 0 -18 -3 -4 -20 -33 -5 -10 18 -18 -3 45 -78 18 3 20 88zm-25 -38l0 0 -7 -32 -16 29 23 3zm49 -42l0 0 31 6c6,1 12,3 15,5 5,2 8,5 11,10 3,4 4,9 5,14 1,6 1,13 -1,20 -1,7 -3,13 -6,17 -3,6 -7,10 -11,13 -4,2 -8,4 -13,5 -4,0 -9,0 -15,-2l-31 -6 15 -82zm14 17l0 0 -10 55 12 2c5,1 8,1 10,1 3,0 6,-1 8,-2 2,-1 4,-4 6,-7 1,-3 3,-8 4,-15 1,-6 2,-11 1,-15 0,-3 -1,-6 -3,-9 -2,-2 -4,-4 -7,-5 -2,-1 -7,-2 -13,-3l-8 -2zm75 86l0 0 -13 -88 18 4 8 65 33 -56 18 3 -47 76 -17 -4zm63 -27l0 0c-4,13 -3,24 2,33 5,9 14,16 26,19 12,3 22,2 31,-4 9,-5 16,-15 19,-28 4,-13 3,-24 -2,-33 -6,-10 -14,-16 -26,-19 -7,-2 -13,-2 -18,-1 -5,0 -9,2 -13,4 -4,3 -7,6 -10,9 -4,5 -7,12 -9,20zm16 4l0 0c3,-9 7,-16 12,-19 6,-4 12,-5 18,-3 7,2 12,5 15,11 3,6 3,13 0,22 -2,10 -6,16 -11,20 -6,4 -12,4 -18,3 -7,-2 -12,-6 -15,-12 -3,-5 -3,-13 -1,-22zm109 41l0 0 4 -13 35 10 -9 32c-4,2 -10,4 -17,4 -7,1 -14,0 -21,-1 -8,-3 -15,-7 -20,-12 -6,-5 -9,-12 -10,-19 -2,-8 -1,-15 1,-23 2,-8 6,-15 12,-21 5,-5 12,-9 19,-10 6,-2 13,-1 21,1 10,3 17,7 21,13 5,6 7,13 6,20l-17 -1c0,-4 -1,-8 -3,-11 -3,-4 -6,-6 -11,-7 -7,-2 -14,-1 -19,2 -5,3 -9,9 -12,18 -3,10 -3,17 0,23 3,6 8,10 15,12 3,1 7,2 11,1 4,0 7,-1 10,-2l3 -10 -19 -6zm113 69l0 0 -6 -90 -17 -6 -57 70 17 5 13 -16 32 11 1 20 17 6zm-19 -42l0 0 -22 -6 20 -27 2 33zm56 -33l0 0 29 10c7,3 12,5 15,7 4,3 7,7 9,12 2,4 3,9 3,15 0,6 -1,12 -4,20 -2,6 -5,11 -9,16 -4,5 -8,8 -13,10 -4,2 -8,3 -13,3 -4,0 -9,-2 -15,-4l-30 -10 28 -79zm11 19l0 0 -18 52 12 4c4,2 7,3 9,3 3,0 6,0 8,-1 2,-1 5,-3 7,-6 2,-3 5,-8 7,-14 2,-6 3,-11 3,-15 0,-3 0,-6 -2,-9 -1,-2 -3,-4 -6,-6 -2,-1 -6,-3 -12,-6l-8 -2zm52 49l0 0c3,-8 7,-14 11,-19 3,-3 7,-6 11,-8 5,-2 9,-3 13,-3 6,0 12,1 18,3 12,5 20,12 24,22 4,9 4,21 -1,33 -5,13 -12,22 -22,26 -9,5 -20,5 -31,0 -12,-4 -20,-11 -24,-21 -4,-9 -4,-21 1,-33zm16 6l0 0c-3,9 -4,16 -1,22 2,6 6,11 13,13 6,2 12,2 18,-1 6,-3 10,-9 14,-18 3,-9 4,-17 1,-22 -2,-6 -6,-11 -13,-13 -6,-2 -12,-2 -18,1 -6,3 -10,9 -14,18zm64 42l0 0c-3,9 -3,16 1,23 3,7 9,13 19,17 7,3 13,4 18,4 5,0 10,-1 14,-4 4,-2 7,-6 9,-10 2,-5 3,-10 2,-14 0,-4 -2,-8 -5,-11 -2,-4 -7,-8 -14,-13 -7,-5 -11,-9 -12,-12 -1,-2 -1,-4 0,-5 1,-2 2,-4 4,-4 4,-1 8,0 12,2 5,2 7,4 9,7 1,2 1,6 0,10l16 6c3,-7 3,-14 0,-20 -3,-6 -9,-12 -19,-16 -6,-2 -11,-4 -16,-4 -5,0 -10,1 -13,4 -4,2 -7,5 -8,9 -3,6 -3,12 0,19 2,4 7,9 14,15 6,4 9,7 11,9 2,2 4,4 4,6 1,1 0,3 0,5 -2,3 -4,5 -7,6 -4,1 -8,0 -13,-2 -5,-2 -8,-5 -10,-9 -1,-3 -2,-8 0,-13l-16 -5zm130 -4l0 0 28 13c6,3 10,6 13,9 4,3 7,7 8,12 2,5 2,10 2,16 -1,5 -3,12 -7,19 -3,6 -6,11 -10,15 -4,4 -9,7 -14,9 -4,1 -9,2 -14,1 -4,-1 -8,-2 -14,-5l-29 -14 37 -75zm9 20l0 0 -24 50 11 5c4,2 7,4 10,4 2,1 5,1 7,0 3,-1 5,-3 8,-6 2,-2 5,-7 8,-13 3,-5 4,-10 5,-14 0,-3 0,-6 -1,-9 -1,-3 -3,-5 -5,-7 -2,-2 -6,-4 -12,-7l-7 -3zm46 55l0 0c-6,11 -8,22 -5,32 3,11 10,19 21,24 11,6 22,7 32,4 10,-3 18,-11 24,-23 7,-12 8,-23 5,-33 -3,-11 -10,-19 -20,-24 -7,-4 -12,-5 -18,-6 -4,0 -9,0 -13,2 -5,1 -9,3 -12,6 -5,4 -10,10 -14,18zm16 7l0 0c4,-8 10,-14 16,-16 6,-2 12,-2 18,2 6,3 10,7 11,14 2,6 0,13 -4,22 -5,8 -10,14 -16,16 -6,2 -12,2 -18,-1 -6,-4 -10,-8 -11,-15 -2,-6 0,-13 4,-22zm119 19l0 0 29 17c6,4 10,6 12,9 3,2 5,4 6,7 1,3 2,6 2,9 0,4 -1,7 -3,10 -2,3 -4,6 -8,8 -3,2 -7,2 -11,2 4,4 6,8 6,12 1,5 0,9 -3,13 -2,3 -4,6 -8,8 -3,3 -7,4 -10,4 -4,0 -8,0 -12,-2 -3,-1 -9,-5 -18,-10l-25 -15 43 -72zm8 21l0 0 -10 16 9 6c6,4 10,6 11,6 3,1 5,2 7,1 3,0 5,-2 6,-4 1,-2 2,-5 1,-7 0,-2 -1,-4 -4,-6 -1,-1 -5,-3 -12,-7l-8 -5zm-17 28l0 0 -12 20 14 8c5,3 8,5 10,5 2,1 5,1 7,0 2,0 4,-2 6,-4 1,-3 1,-5 1,-7 0,-2 -1,-4 -2,-6 -2,-2 -6,-5 -13,-9l-11 -7zm39 66l0 0 14 9 18 -29 3 1c4,2 6,4 7,6 1,1 2,3 3,5 0,3 0,8 1,15l0 22 18 11 0 -19c0,-8 -1,-13 -1,-17 -1,-3 -3,-7 -4,-11 6,3 12,4 18,3 5,-2 9,-5 13,-11 2,-4 3,-8 3,-13 0,-4 -1,-8 -4,-12 -2,-3 -7,-7 -15,-12l-30 -19 -44 71zm39 -32l0 0 12 -18 11 7c6,4 9,6 10,7 2,2 4,4 4,6 0,2 0,5 -2,7 -1,2 -3,4 -5,4 -1,1 -3,1 -5,1 -3,-1 -7,-3 -14,-7l-11 -7zm94 120l0 0 -15 -10 4 -20 -27 -19 -17 12 -15 -10 74 -51 15 10 -19 88zm-7 -45l0 0 7 -32 -26 19 19 13zm26 26l0 0c-4,9 -6,16 -4,24 2,7 7,14 16,20 6,4 11,7 16,8 5,1 10,1 15,-1 5,-2 8,-5 11,-8 3,-5 5,-9 5,-13 0,-4 0,-9 -2,-13 -2,-4 -6,-9 -12,-15 -5,-6 -8,-11 -9,-14 -1,-2 0,-4 1,-5 1,-2 3,-3 5,-3 4,0 7,1 11,4 4,3 6,6 7,9 1,3 1,6 -1,10l14 9c4,-6 5,-13 4,-19 -2,-7 -7,-14 -15,-20 -6,-4 -11,-6 -15,-7 -5,-1 -10,-1 -14,1 -4,1 -7,4 -10,7 -4,6 -5,12 -3,18 1,5 4,11 10,18 5,6 8,9 9,11 2,3 3,5 3,7 0,1 -1,3 -2,5 -1,2 -4,4 -8,4 -3,0 -7,-1 -12,-5 -4,-3 -7,-6 -7,-10 -1,-4 -1,-8 2,-13l-15 -9zm51 71l0 0 50 -67 14 10 -51 67 -13 -10zm26 21l0 0 50 -66 13 10 -41 55 34 25 -9 11 -47 -35z"/>
    <path class="fil1" d="M10109 20550l88 0 -43 -179 -45 179zm126 155l0 0 -22 -92 -120 0 -22 92 -86 0 116 -412 110 0 114 412 -90 0zm394 -141l0 0c1,2 1,5 1,7 0,3 0,7 0,12 0,41 -11,73 -33,95 -22,22 -54,34 -95,34 -19,0 -37,-3 -53,-8 -17,-5 -30,-12 -40,-21 -17,-14 -29,-35 -36,-62 -7,-27 -11,-71 -11,-132 0,-41 2,-73 7,-96 4,-23 12,-42 22,-58 10,-15 25,-27 44,-35 19,-8 41,-12 66,-12 42,0 73,10 95,32 21,21 31,53 31,94l0 8 -86 0 0 -8c0,-21 -3,-38 -10,-48 -7,-11 -17,-16 -32,-16 -19,0 -32,9 -39,28 -8,18 -11,61 -11,128 0,57 3,94 11,113 8,19 21,28 41,28 14,0 24,-6 31,-17 7,-11 11,-28 11,-52 0,-1 0,-3 -1,-6 0,-4 0,-6 0,-8l87 0zm182 -271l0 0c51,0 85,8 103,23 18,15 28,43 28,83 0,31 -5,55 -14,71 -10,15 -25,26 -47,31 25,5 42,14 51,26 9,13 13,37 13,72 0,2 0,6 0,11 -1,4 -1,8 -1,10 0,19 1,35 3,48 2,14 5,26 8,37l-90 0c-3,-13 -6,-41 -6,-81 0,-14 0,-25 0,-33 -1,-20 -5,-35 -12,-43 -7,-9 -19,-13 -36,-13l-36 0 0 170 -86 0 0 -412 122 0zm-36 178l0 0 22 0c23,0 39,-4 48,-13 9,-9 14,-24 14,-46 0,-21 -5,-35 -13,-43 -8,-8 -24,-12 -48,-12l-23 0 0 114zm236 234l0 0 0 -412 223 0 0 64 -136 0 0 98 125 0 0 63 -125 0 0 121 141 0 0 66 -228 0z"/>
   </g>
   <path class="fil7" d="M7447 9029c36,45 338,188 416,214 81,26 157,54 245,72 370,74 752,74 1069,-128l127 -98c20,-18 33,-26 41,-47 -113,24 -417,245 -900,198 -231,-23 -413,-114 -589,-239l-75 -60c-29,-25 -56,-45 -74,-70 62,-114 190,-290 263,-409 87,-142 165,-269 247,-423 130,-242 337,-699 359,-982l270 104c263,85 567,97 833,14 34,-10 122,-47 140,-45 64,107 202,870 234,1043 159,837 326,2606 340,3516 -326,-5 -651,-10 -976,-27 -73,-4 -247,-21 -307,-18l-2 245c67,2 233,-25 324,-30 101,-6 224,-15 330,-26 309,-30 1070,-36 1377,-1l651 58 0 -246 -679 36c-225,5 -482,20 -707,8 21,-405 50,-812 80,-1214 16,-200 40,-394 56,-594 16,-197 51,-396 68,-588l79 -570c73,-453 143,-910 267,-1349 24,-85 56,-182 72,-261 50,2 101,35 151,50 639,199 1035,-87 1145,-105 23,287 229,735 359,982 115,216 249,429 376,625 39,61 98,139 135,207 -52,78 -242,194 -316,235 -609,345 -1207,-40 -1323,-64 33,80 305,224 386,251 204,69 409,80 641,59l137 -23c106,-14 331,-83 424,-131 80,-41 269,-114 310,-169l-33 -33c-7,-9 -4,-5 -9,-13l-126 -168c-167,-229 -316,-448 -451,-701 -172,-322 -368,-786 -240,-1216 -47,4 -129,69 -188,87 -232,67 -476,119 -728,127 -293,10 -577,-38 -841,-149 -30,-13 -74,-37 -102,-43 33,50 132,81 166,121 -39,112 -80,216 -121,335 -42,118 -77,242 -106,363 -162,679 -172,939 -233,1621 -25,278 -36,602 -39,888 -24,-233 -17,-584 -38,-852 -11,-144 -15,-281 -29,-424 -44,-434 -82,-761 -158,-1198 -22,-123 -46,-255 -76,-377 -14,-58 -82,-331 -80,-371 49,-40 121,-70 160,-113 -72,24 -133,57 -203,84 -386,146 -848,144 -1250,49 -79,-18 -148,-39 -226,-60 -55,-15 -97,-44 -148,-71 -6,-3 -17,-8 -25,-12l-19 -9c5,75 48,97 41,335 -3,112 -27,236 -54,332 -144,498 -442,959 -761,1361 -29,36 -62,74 -87,107z"/>
   <path class="fil7" d="M8001 11895l-2 247c197,2 402,-25 598,-33 1032,-41 2051,-69 3087,-25 210,8 403,17 610,25 107,4 552,36 602,30l4 -244 -1201 35c-830,14 -1649,8 -2477,-1 -206,-2 -411,-11 -610,-15 -199,-4 -420,-22 -611,-19z"/>
   <path class="fil8" d="M11478 9023c82,-37 271,-257 339,-344 236,-308 465,-792 494,-1195 7,-81 13,-257 -18,-317 -58,542 -389,1193 -681,1647l-134 209z"/>
   <path class="fil9" d="M9420 9023l-131 -205c-125,-199 -262,-443 -358,-643 -72,-148 -147,-310 -201,-469 -29,-88 -52,-162 -78,-255 -15,-56 -43,-266 -53,-284 -35,429 39,721 226,1098 37,75 74,141 120,212 128,204 253,363 436,520l39 26z"/>
  </g>
 </g>
</svg>
