<?xml version="1.0" encoding="utf-8"?>
<!-- Generator: Adobe Illustrator 17.0.0, SVG Export Plug-In . SVG Version: 6.00 Build 0)  -->
<!DOCTYPE svg PUBLIC "-//W3C//DTD SVG 1.1//EN" "http://www.w3.org/Graphics/SVG/1.1/DTD/svg11.dtd">
<svg version="1.1" id="Camada_1" xmlns="http://www.w3.org/2000/svg" xmlns:xlink="http://www.w3.org/1999/xlink" x="0px" y="0px"
	 width="48px" height="48px" viewBox="0 0 48 48" enable-background="new 0 0 48 48" xml:space="preserve">
<path fill="#FFFFFF" d="M50.622,23.704c0.001,7.513,0.006,15.026-0.001,22.539c-0.003,2.866-1.301,4.153-4.193,4.153
	c-14.93,0.004-29.861,0.004-44.791,0c-2.903-0.001-4.185-1.266-4.186-4.146C-2.554,31.176-2.553,16.102-2.547,1.029
	c0.001-2.712,1.293-3.993,4.042-3.994c15.026-0.006,30.052-0.005,45.079,0.003c2.819,0.001,4.044,1.263,4.046,4.128
	C50.625,8.678,50.621,16.191,50.622,23.704z M28.259,48.318c0.383,0.066,0.563,0.124,0.743,0.125
	c5.991,0.005,11.981,0.005,17.972,0.006c1.401,0,1.748-0.859,1.747-2.066c-0.006-15.072-0.001-30.145-0.007-45.217
	c-0.001-1.849-0.415-2.224-2.308-2.221c-2.663,0.003-5.325,0.006-7.988,0.007C26.198-1.047,13.979-1.05,1.759-1.043
	c-1.918,0.001-2.418,0.39-2.419,1.977c-0.007,15.12-0.002,30.24,0.019,45.359c0.002,1.784,0.425,2.157,2.222,2.16
	c5.42,0.01,10.841,0.008,16.261,0.002c0.409,0,0.818-0.071,1.342-0.12c0-3.907,0.001-7.703,0-11.499
	c-0.001-2.095,0.107-2.175,2.522-1.661c0,4.35,0,8.745,0,13.185c0.735,0,1.274,0,2.004,0c0-6.905,0-13.714,0-20.606
	c1.185,0,2.184,0.061,3.172-0.017c1.055-0.082,1.416,0.289,1.399,1.362c-0.055,3.47-0.021,6.942-0.021,10.413
	C28.258,42.409,28.259,45.305,28.259,48.318z"/>
<path fill="#B3002A" d="M28.259,48.318c0-3.013,0-5.909,0-8.806c0-3.471-0.034-6.942,0.021-10.413
	c0.017-1.073-0.344-1.445-1.399-1.362c-0.988,0.077-1.988,0.017-3.172,0.017c0,6.892,0,13.701,0,20.606c-0.729,0-1.268,0-2.004,0
	c0-4.441,0-8.836,0-13.185c-2.414-0.514-2.523-0.434-2.522,1.661c0.001,3.796,0,7.592,0,11.499c-0.525,0.049-0.933,0.119-1.342,0.12
	c-5.42,0.006-10.841,0.008-16.261-0.002c-1.797-0.003-2.22-0.376-2.222-2.16c-0.021-15.12-0.025-30.24-0.019-45.359
	c0.001-1.587,0.501-1.976,2.419-1.977c12.22-0.007,24.439-0.004,36.659-0.005c2.663,0,5.325-0.003,7.988-0.007
	c1.892-0.002,2.307,0.372,2.308,2.221c0.006,15.072,0.001,30.145,0.007,45.217c0,1.206-0.346,2.066-1.747,2.066
	c-5.991-0.002-11.981-0.001-17.972-0.006C28.821,48.443,28.641,48.384,28.259,48.318z M8.342,15.564
	c-2.663,9.737-0.147,18.28,5.92,20.946c-0.913-2.122-1.982-4.24-2.749-6.462c-1.61-4.664-1.693-9.324,0.535-13.871
	c0.421-0.86,0.901-1.49,2.016-1.445c3.931,0.156,7.9-0.036,11.789,0.44c4.82,0.59,9.349,2.258,12.98,5.696
	c3.579,3.389,3.898,7.734,0.927,11.659c-0.694,0.917-1.489,1.758-2.238,2.634c0.083,0.104,0.165,0.207,0.248,0.311
	c1.476-1.063,3.046-2.019,4.412-3.208c4.804-4.18,4.955-9.525,0.433-14.009c-4.262-4.226-9.61-6.28-15.393-7.15
	c-3.345-0.503-6.773-0.46-10.205-0.665c6.526-4.137,13.191-4.285,20.031-0.495c-3.182-3.602-6.984-5.955-11.851-6.02
	c-5.693-0.076-10.117,2.587-13.67,6.833c-0.906,1.084-1.903,1.852-3.194,2.467c-2.322,1.105-4.506,2.5-6.747,3.774
	c0.073,0.143,0.147,0.285,0.22,0.428C3.911,16.826,6.017,16.226,8.342,15.564z"/>
<path fill="#FFFFFF" d="M8.342,15.564c-2.325,0.663-4.431,1.263-6.536,1.863c-0.073-0.143-0.147-0.285-0.22-0.428
	c2.242-1.274,4.425-2.669,6.747-3.774c1.292-0.615,2.288-1.383,3.194-2.467c3.552-4.247,7.977-6.91,13.67-6.833
	c4.868,0.065,8.669,2.418,11.851,6.02c-6.84-3.79-13.505-3.642-20.031,0.495c3.433,0.205,6.86,0.162,10.205,0.665
	c5.783,0.87,11.131,2.924,15.393,7.15c4.522,4.484,4.371,9.829-0.433,14.009c-1.367,1.189-2.936,2.145-4.412,3.208
	c-0.083-0.104-0.165-0.207-0.248-0.311c0.749-0.876,1.544-1.717,2.238-2.634c2.971-3.926,2.652-8.271-0.927-11.659
	c-3.631-3.438-8.161-5.106-12.98-5.696c-3.889-0.476-7.858-0.284-11.789-0.44c-1.115-0.044-1.595,0.585-2.016,1.445
	c-2.228,4.548-2.145,9.207-0.535,13.871c0.767,2.222,1.835,4.34,2.749,6.462C8.195,33.844,5.679,25.3,8.342,15.564z"/>
</svg>
