<?xml version="1.0" encoding="utf-8"?>
<!-- Generator: Adobe Illustrator 17.0.0, SVG Export Plug-In . SVG Version: 6.00 Build 0)  -->
<!DOCTYPE svg PUBLIC "-//W3C//DTD SVG 1.1//EN" "http://www.w3.org/Graphics/SVG/1.1/DTD/svg11.dtd">
<svg version="1.1" id="Camada_1" xmlns="http://www.w3.org/2000/svg" xmlns:xlink="http://www.w3.org/1999/xlink" x="0px" y="0px"
	 width="48px" height="48px" viewBox="0 0 48 48" enable-background="new 0 0 48 48" xml:space="preserve">
<g>
	<path fill="#FE0000" d="M34.827,13.058c-0.208,0.233-0.405,0.476-0.625,0.696c-3.364,3.36-6.731,6.717-10.098,10.075
		c-0.051,0.051-0.108,0.096-0.217,0.192c-0.458-0.473-0.903-0.948-1.363-1.407c-3.088-3.085-6.18-6.167-9.27-9.251
		c-0.096-0.096-0.182-0.203-0.273-0.305C20.263,13.058,27.545,13.058,34.827,13.058z"/>
	<path fill="#FE0000" d="M34.668,34.942c-7.129,0-14.355,0-21.521,0c3.575-3.599,7.173-7.222,10.765-10.838
		C27.499,27.718,31.104,31.35,34.668,34.942z"/>
	<path fill="#FE0000" d="M35.225,13.26c3.659,3.629,7.273,7.213,10.906,10.816c-3.635,3.605-7.249,7.188-10.906,10.815
		C35.225,27.664,35.225,20.504,35.225,13.26z"/>
	<path fill="#FE0000" d="M12.774,34.781c-3.657-3.608-7.265-7.167-10.905-10.759c3.625-3.578,7.241-7.148,10.905-10.765
		C12.774,20.455,12.774,27.578,12.774,34.781z"/>
</g>
</svg>
