<?xml version="1.0" encoding="utf-8"?>
<!-- Generator: Adobe Illustrator 17.0.0, SVG Export Plug-In . SVG Version: 6.00 Build 0)  -->
<!DOCTYPE svg PUBLIC "-//W3C//DTD SVG 1.1//EN" "http://www.w3.org/Graphics/SVG/1.1/DTD/svg11.dtd">
<svg version="1.1" id="Camada_1" xmlns="http://www.w3.org/2000/svg" xmlns:xlink="http://www.w3.org/1999/xlink" x="0px" y="0px"
	 width="48px" height="48px" viewBox="0 0 48 48" enable-background="new 0 0 48 48" xml:space="preserve">
<rect fill="#F9F600" width="48" height="48"/>
<g>
	<path fill="#2B5DAA" d="M42.86,17.51c-2.019,1.36-3.931,2.651-5.846,3.936c-5.321,3.569-10.648,7.127-15.957,10.713
		c-0.488,0.33-0.825,0.345-1.298,0c-0.979-0.715-2.002-1.371-3.105-2.117c6.062-4.11,12.039-8.162,18.08-12.258
		c-0.187-0.175-0.296-0.309-0.433-0.402c-3.435-2.33-6.87-4.66-10.316-6.974c-0.182-0.122-0.537-0.223-0.679-0.13
		c-1.666,1.09-3.307,2.219-5.085,3.425c1.389,0.937,2.665,1.798,4.008,2.705c-0.212,0.176-0.351,0.315-0.512,0.422
		c-2.737,1.833-5.485,3.65-8.209,5.504c-0.458,0.312-0.769,0.322-1.232,0.009c-2.363-1.595-4.753-3.15-7.205-4.766
		c0.194-0.169,0.326-0.311,0.483-0.416c5.927-3.969,11.861-7.929,17.778-11.913c0.512-0.345,0.867-0.347,1.378-0.002
		c5.848,3.948,11.712,7.872,17.57,11.805C42.448,17.161,42.597,17.299,42.86,17.51z"/>
	<path fill="#2B5DAA" d="M42.971,30.24c-1.835,1.227-3.533,2.366-5.234,3.499c-4.405,2.933-8.815,5.857-13.211,8.803
		c-0.445,0.298-0.758,0.338-1.233,0.018C17.398,38.589,11.486,34.644,5.58,30.69c-0.127-0.085-0.238-0.193-0.46-0.375
		c1.086-0.738,2.12-1.447,3.159-2.146c6.22-4.185,12.445-8.362,18.654-12.562c0.459-0.31,0.778-0.356,1.236-0.025
		c0.985,0.711,2.01,1.366,3.163,2.142c-6.084,4.125-12.07,8.185-18.157,12.312c0.61,0.423,1.112,0.777,1.621,1.122
		c3.03,2.049,6.066,4.088,9.086,6.152c0.402,0.275,0.683,0.312,1.101,0.017c1.543-1.088,3.116-2.132,4.784-3.265
		c-1.381-0.926-2.664-1.787-4.05-2.716c0.507-0.357,0.935-0.672,1.376-0.967c2.458-1.644,4.926-3.274,7.372-4.935
		c0.448-0.304,0.767-0.339,1.238-0.02C38.062,27.02,40.451,28.576,42.971,30.24z"/>
	<path fill="#2B5DAA" d="M35.475,10.003c2.578-1.704,5.023-3.321,7.625-5.04c0,1.763,0.013,3.331-0.017,4.898
		c-0.003,0.18-0.211,0.406-0.383,0.526c-0.976,0.681-1.961,1.349-2.965,1.988c-0.175,0.111-0.522,0.166-0.674,0.068
		C37.894,11.684,36.755,10.882,35.475,10.003z"/>
	<path fill="#2B5DAA" d="M4.948,43.037c0-1.688-0.02-3.139,0.019-4.588c0.007-0.259,0.194-0.599,0.406-0.753
		c0.984-0.716,1.996-1.397,3.024-2.048c0.195-0.123,0.582-0.173,0.756-0.062c1.155,0.736,2.277,1.524,3.524,2.373
		C10.102,39.651,7.612,41.286,4.948,43.037z"/>
</g>
</svg>
