<?xml version="1.0" encoding="utf-8"?>
<!-- Generator: Adobe Illustrator 17.0.0, SVG Export Plug-In . SVG Version: 6.00 Build 0)  -->
<!DOCTYPE svg PUBLIC "-//W3C//DTD SVG 1.1//EN" "http://www.w3.org/Graphics/SVG/1.1/DTD/svg11.dtd">
<svg version="1.1" id="Layer_1" xmlns="http://www.w3.org/2000/svg" xmlns:xlink="http://www.w3.org/1999/xlink" x="0px" y="0px"
	 width="90px" height="90px" viewBox="0 0 90 90" enable-background="new 0 0 90 90" xml:space="preserve">
<g enable-background="new    ">
</g>
<g>
	<path fill="#FFFFFF" d="M60.336,37.636c0.357-0.178,0.642,0.107,0.928,0.214c1.927,0.821,3.889,1.606,5.959,2.069
		c4.389,0.963,8.563,0.428,12.417-1.998c1.106-0.678,2.248-1.392,3.211-2.284c0.642-0.607,0.642-0.607,0.178-1.32
		c-1.463-2.212-2.926-4.424-4.317-6.708c-2.605-4.282-4.888-8.778-6.53-13.594c-0.5-1.499-0.928-3.069-1.106-4.674
		c-0.464-0.071-0.785,0.143-1.142,0.321c-1.927,0.821-3.854,1.534-5.959,1.855c-3.425,0.535-6.779,0.143-9.991-1.106
		c-1.249-0.5-1.213-0.5-1.606,0.749c-1.998,6.458-3.14,13.131-4.21,19.803c-0.535,3.39-1.035,6.779-1.427,10.169
		c-0.5,3.961-0.928,7.921-1.32,11.917c-0.535,5.531-0.892,11.097-1.285,16.627c-0.107,1.606-0.143,3.176-0.25,4.781
		c-0.036,0.464,0.143,0.607,0.571,0.607c1.784,0.036,3.532,0.036,5.316-0.036c4.175-0.107,8.314-0.321,12.488-0.571
		c0.285,0,0.571,0,0.856-0.036c0.321-0.036,0.464,0.071,0.464,0.428c0,0.856-0.036,1.713,0,2.569c0,0.428-0.178,0.464-0.535,0.428
		c-0.892-0.071-1.748-0.143-2.64-0.25c-7.422-0.856-14.843-1.106-22.301-0.749c-3.747,0.178-7.529,0.464-11.275,0.928
		c-1.392,0.178-1.392,0.178-1.392-1.213c0-0.535,0.036-1.07,0-1.641c-0.036-0.464,0.178-0.607,0.607-0.571
		c0.464,0.036,0.928,0.036,1.356,0.071c3.782,0.321,7.564,0.392,11.382,0.5c1.427,0.036,2.854,0.071,4.282,0.071
		c0.607,0,0.642,0,0.607-0.607c-0.107-3.675-0.25-7.35-0.5-11.025c-0.178-2.64-0.392-5.281-0.607-7.921
		c-0.285-3.425-0.607-6.886-0.963-10.312c-0.321-3.069-0.678-6.137-1.07-9.17c-0.571-4.567-1.285-9.099-2.177-13.594
		c-0.642-3.354-1.285-6.708-2.141-10.026c-0.143-0.535-0.321-1.106-0.5-1.641c-0.107-0.392-0.321-0.464-0.714-0.321
		c-0.999,0.357-1.998,0.714-3.033,0.928c-3.711,0.749-7.315,0.464-10.847-0.821c-1.035-0.392-2.07-0.785-3.033-1.142
		c-0.214,0.036-0.214,0.107-0.25,0.178c-0.5,3.532-1.855,6.815-3.318,10.026c-1.784,3.961-4.032,7.671-6.387,11.311
		c-0.785,1.177-1.57,2.391-2.319,3.604c-0.357,0.571-0.357,0.607,0.107,0.999c2.64,2.319,5.566,4.103,9.099,4.674
		c3.354,0.535,6.601,0.107,9.741-1.07c0.928-0.357,1.855-0.785,2.747-1.142c0.321-0.143,0.678-0.285,1.07-0.428
		c0.036,0.285-0.143,0.392-0.285,0.5c-2.747,2.498-6.03,3.711-9.705,3.925c-5.709,0.321-10.954-1.142-15.878-3.996
		c-1.035-0.607-1.035-0.607-0.285-1.499c3.532-4.389,6.744-8.992,9.134-14.13c1.177-2.569,2.212-5.209,2.712-7.993
		c0.392-2.284,0.535-4.531-0.178-6.779c-0.036-0.107-0.036-0.214-0.036-0.321c0-0.036,0.036-0.107,0.036-0.178
		c4.103,2.07,8.528,2.819,13.024,2.997c4.567,0.178,8.956-0.642,13.131-2.676c-0.285,0.464-0.749,0.642-1.142,0.928
		c-0.856,0.535-0.856,0.535-0.642,1.499c0.392,1.677,0.785,3.318,1.142,4.995c0.785,3.461,1.32,6.958,1.855,10.455
		c0.571,3.747,0.963,7.529,1.32,11.311c0.25,2.819,0.392,5.638,0.535,8.456c0.107,2.212,0.143,4.46,0.214,6.672
		c0,0.214-0.071,0.464,0.143,0.714c0.143-0.678,0.143-1.285,0.143-1.891c0.071-4.282,0.464-8.563,0.856-12.809
		c0.25-2.712,0.464-5.459,0.892-8.171c0.963-6.458,2.319-12.774,4.71-18.875c0.071-0.214,0.178-0.428,0.25-0.642
		c0.357-0.999,0.357-0.999-0.607-1.57c-0.392-0.214-0.821-0.392-1.07-0.856c4.175,1.855,8.528,2.712,13.024,2.498
		c4.46-0.214,8.849-0.856,12.952-3.033c0.036,0.571-0.178,1.035-0.25,1.534c-0.464,2.783-0.143,5.531,0.607,8.207
		c0.999,3.497,2.605,6.744,4.46,9.884c2.141,3.639,4.603,7.065,7.208,10.383c0.214,0.285,0.214,0.428-0.071,0.607
		c-0.285,0.178-0.571,0.392-0.856,0.535c-3.532,1.891-7.208,3.318-11.204,3.711c-2.89,0.285-5.78,0.214-8.563-0.678
		c-1.927-0.607-3.639-1.606-5.245-2.854C60.693,38.172,60.408,37.993,60.336,37.636L60.336,37.636z"/>
	<path fill="#FFFFFF" d="M9.634,78.099c0.5-0.143,0.963-0.107,1.427-0.071c5.174,0.143,10.312,0.392,15.486,0.464
		c11.596,0.178,23.157,0.214,34.753,0.036c5.673-0.071,11.347-0.321,17.02-0.464c1.07-0.036,0.963-0.107,0.963,0.928
		c0,0.5-0.036,1.035-0.036,1.534c-0.036,1.07,0.143,0.999-1.035,0.963c-1.249-0.036-2.498-0.107-3.747-0.214
		c-2.89-0.25-5.816-0.285-8.706-0.428c-10.062-0.5-20.124-0.535-30.222-0.321c-6.494,0.143-13.024,0.321-19.518,0.678
		c-1.748,0.107-3.532,0.285-5.281,0.321c-0.214,0-0.464,0-0.678,0c-0.321,0-0.392-0.143-0.392-0.428
		C9.669,80.097,9.634,79.098,9.634,78.099z"/>
	<path fill="#FFFFFF" d="M70.684,11.018c0.285,0.464,0.25,0.892,0.285,1.32c0.143,2.605-0.143,5.174-0.892,7.671
		c-1.82,6.066-4.853,11.418-9.348,15.878c-0.428,0.428-0.856,0.821-1.534,1.213c0.25-0.428,0.392-0.678,0.535-0.928
		c2.212-3.354,4.282-6.815,6.066-10.419c1.891-3.889,3.532-7.85,4.424-12.096C70.363,12.874,70.505,11.982,70.684,11.018z"/>
	<path fill="#FFFFFF" d="M29.544,36.78c-0.25,0.214-0.357-0.071-0.464-0.178c-0.714-0.607-1.392-1.249-2.034-1.962
		c-3.854-4.282-6.601-9.206-8.171-14.736c-0.749-2.676-0.892-5.459-0.749-8.242c0-0.107,0.036-0.214,0.036-0.321
		c0,0,0.036-0.036,0.143-0.071c0.107,0.678,0.214,1.32,0.357,1.998c0.607,3.283,1.748,6.351,3.104,9.384
		c1.998,4.46,4.389,8.706,7.029,12.809C29.008,35.888,29.365,36.28,29.544,36.78L29.544,36.78z"/>
	<path fill="#FFFFFF" d="M60.336,37.636c-0.071-0.107-0.107,0.071-0.071-0.036l0.036-0.036
		C60.372,37.565,60.372,37.601,60.336,37.636L60.336,37.636z"/>
	<path fill="#FFFFFF" d="M29.508,36.78c0.036,0.036,0.071,0.071,0.107,0.107c-0.036,0-0.071,0-0.107,0
		C29.508,36.851,29.508,36.816,29.508,36.78C29.544,36.78,29.508,36.78,29.508,36.78z"/>
</g>
</svg>
